/* XPM */
static char * black_xpm[] = {
"24 24 43 1",
" 	c #040404",
".	c #010101",
"+	c #020202",
"@	c #030303",
"#	c #060606",
"$	c #000000",
"%	c #050505",
"&	c #040403",
"*	c #050504",
"=	c #020203",
"-	c #000001",
";	c #010202",
">	c #020303",
",	c #030302",
"'	c #020201",
")	c #030201",
"!	c #050403",
"~	c #060504",
"{	c #040302",
"]	c #050503",
"^	c #040402",
"/	c #070705",
"(	c #020200",
"_	c #040301",
":	c #030200",
"<	c #050402",
"[	c #050401",
"}	c #030301",
"|	c #020100",
"1	c #010000",
"2	c #040200",
"3	c #030100",
"4	c #000101",
"5	c #040300",
"6	c #060503",
"7	c #030404",
"8	c #010100",
"9	c #060502",
"0	c #040502",
"a	c #070603",
"b	c #070604",
"c	c #020001",
"d	c #060402",
"  .+ +.+@# +$+@.++@%@@ +",
"@%% +$+@+++++@  $+@++++ ",
"@#% +$ % @@@+ %#..@+@+. ",
"  @.+@  %#%+.+@ ..++@@++",
"@+.$.%@+@ @@@+....+.@ @+",
"@.$$+%+..$.@ @++@  @   @",
"++... .$$$.@ +$. @+@@&*+",
".@@@++..+ @=@+-;#%>%@@%@",
"@@+..@++@++,.'))!~{]{^/~",
"# +$$+++.$.&.(_):::::<<[",
"# @@+@.+@.+ @}[{_|_|_|1|",
"+.+%%%+%#@ #%{2__::::1$|",
"+$+  @. %++@>:3|_<_<:1_<",
" +@+..$+ .$$4(5:__:_||_6",
" % @+ $@%+$.7]6<::|1|:::",
"+ @+@@.+ ++@7,[6<:1|::::",
"++@++.@@+@  >$|<_819_|_<",
"@@+@@+  @ %% 06<|1:a<:<_",
" +$$..+@+@@,={<6b6<___<<",
"@.$$$..++++'+|:_<_:$:<__",
" @+@+@@@ @++ {[_1$|[6_:_",
"+@+@@@++ +..@,{b_||6b<_|",
"++@++..+@+..+c36b<|:__:|",
"# @@.$@@+ @+@!d<<[:11:||"};
