/* XPM */
static char * colect_xpm[] = {
"24 24 200 2",
"  	c #EFF7CE",
". 	c #EFEFB5",
"+ 	c #E7E78C",
"@ 	c #E7DE73",
"# 	c #E4E48C",
"$ 	c #E8E8B2",
"% 	c #E4E4B0",
"& 	c #E3EBC5",
"* 	c #E4EBC5",
"= 	c #E0E08A",
"- 	c #E4E48B",
"; 	c #E5E58D",
"> 	c #E1E0B1",
", 	c #CCCCAC",
"' 	c #B0B3A7",
") 	c #949493",
"! 	c #888787",
"~ 	c #878781",
"{ 	c #A39F74",
"] 	c #B9B97E",
"^ 	c #DADAA8",
"/ 	c #EDEDB4",
"( 	c #E6E5B4",
"_ 	c #D1D5BF",
": 	c #BEBFB8",
"< 	c #B3B3B3",
"[ 	c #ADADAD",
"} 	c #A4A4A4",
"| 	c #9B9B9B",
"1 	c #909090",
"2 	c #838383",
"3 	c #7A7A79",
"4 	c #8E8E7E",
"5 	c #BEC3A7",
"6 	c #DBDB88",
"7 	c #E4E4B4",
"8 	c #C6C8BC",
"9 	c #BFBFBE",
"0 	c #C1C1C1",
"a 	c #BFBFBF",
"b 	c #B6B6B6",
"c 	c #ABABAB",
"d 	c #A1A1A1",
"e 	c #999999",
"f 	c #8F8F8F",
"g 	c #7A7A7A",
"h 	c #7A7A74",
"i 	c #A39D6F",
"j 	c #E4E48E",
"k 	c #C5C5A3",
"l 	c #C3C3C3",
"m 	c #C0C0C0",
"n 	c #B8B8B8",
"o 	c #AFAFAF",
"p 	c #A3A3A3",
"q 	c #9C9C9C",
"r 	c #959595",
"s 	c #8B8B8B",
"t 	c #818181",
"u 	c #797979",
"v 	c #797972",
"w 	c #BEBE97",
"x 	c #ECECB3",
"y 	c #D2D299",
"z 	c #BEBEBA",
"A 	c #C2C2C2",
"B 	c #B1B1B1",
"C 	c #A7A7A7",
"D 	c #9F9F9F",
"E 	c #989898",
"F 	c #878787",
"G 	c #7F7F7F",
"H 	c #777777",
"I 	c #88887B",
"J 	c #D7D7A6",
"K 	c #EEF6CD",
"L 	c #ECECB4",
"M 	c #CCCCB2",
"N 	c #BEBEBF",
"O 	c #BEBEBE",
"P 	c #B4B4B4",
"Q 	c #A8A8A8",
"R 	c #9A9A9A",
"S 	c #939393",
"T 	c #898989",
"U 	c #828282",
"V 	c #727272",
"W 	c #B7BCA2",
"X 	c #E3DA72",
"Y 	c #DFDF8E",
"Z 	c #C4C4AA",
"` 	c #BBBBBB",
" .	c #A9A9A9",
"..	c #969696",
"+.	c #8C8C8C",
"@.	c #7C7C7C",
"#.	c #747474",
"$.	c #A3A377",
"%.	c #E1D872",
"&.	c #DAD37F",
"*.	c #BABAAE",
"=.	c #B2B2B2",
"-.	c #A5A5A5",
";.	c #848484",
">.	c #7D7D7D",
",.	c #757575",
"'.	c #76766C",
").	c #E3E3AD",
"!.	c #E0E0B0",
"~.	c #B7B7B0",
"{.	c #BABABA",
"].	c #AEAEAE",
"^.	c #9E9E9E",
"/.	c #919191",
"(.	c #858585",
"_.	c #7E7E7E",
":.	c #6D6D6B",
"<.	c #E2E2AC",
"[.	c #E6E6B0",
"}.	c #B1B4A2",
"|.	c #A2A2A2",
"1.	c #B7B7B7",
"2.	c #9D9D9D",
"3.	c #808080",
"4.	c #8E8E8E",
"5.	c #787878",
"6.	c #656565",
"7.	c #818060",
"8.	c #DDDD87",
"9.	c #EBF3CB",
"0.	c #C0C4AF",
"a.	c #8C8C8B",
"b.	c #696969",
"c.	c #5F5F5F",
"d.	c #525252",
"e.	c #8C8C61",
"f.	c #DFDF88",
"g.	c #CECE97",
"h.	c #BBBAB5",
"i.	c #B5B5B5",
"j.	c #858584",
"k.	c #A6A6A6",
"l.	c #B0B0B0",
"m.	c #787877",
"n.	c #6F6F6F",
"o.	c #6C6C6C",
"p.	c #686868",
"q.	c #636363",
"r.	c #5B5B5B",
"s.	c #AEAE88",
"t.	c #EAEAB1",
"u.	c #D9D17A",
"v.	c #BABAA9",
"w.	c #888888",
"x.	c #868685",
"y.	c #6D6D6D",
"z.	c #626262",
"A.	c #797969",
"B.	c #D5DCB8",
"C.	c #CCD1B6",
"D.	c #A7A8A4",
"E.	c #8D8D8D",
"F.	c #737373",
"G.	c #6E6E6E",
"H.	c #646464",
"I.	c #6A6C66",
"J.	c #BDC3A5",
"K.	c #E5E58B",
"L.	c #B5B58D",
"M.	c #94948F",
"N.	c #929292",
"O.	c #6B6B6B",
"P.	c #6A6B66",
"Q.	c #A6AB92",
"R.	c #DEDE87",
"S.	c #E6EEC7",
"T.	c #C1C6AB",
"U.	c #9B9B8B",
"V.	c #7B7B7B",
"W.	c #767676",
"X.	c #717171",
"Y.	c #6A6A6A",
"Z.	c #5E5E5E",
"`.	c #898C7C",
" +	c #B8B877",
".+	c #DED570",
"++	c #D6D686",
"@+	c #BCBC7F",
"#+	c #9B9B81",
"$+	c #848471",
"%+	c #818477",
"&+	c #848778",
"*+	c #97976A",
"=+	c #BAB367",
"-+	c #D5CD6D",
";+	c #E6DD73",
">+	c #E7E7AF",
",+	c #E4E4AE",
"'+	c #DDD470",
")+	c #E0D771",
"      . + + @ @ +     . + + + + .   . + + + . . ",
". + + + + + +     . + + . .       + + .         ",
"+ . . .       . + # $ % & * = - + . .         + ",
". .     + + + ; > , ' ) ! ~ { ] ^ /     . + + + ",
".   + + . . ( _ : < [ } | 1 2 3 4 5 6 + + + + . ",
"+ + + + . 7 8 9 0 a b c d e f 2 g h i 6 + + . . ",
"@ + . . j k 9 l l m n o p q r s t u v w x .   + ",
"+ . . + y z A l l m n B C D E 1 F G H I J K @ @ ",
". + + L M N l l l O n P Q d R S T U g V W X @ + ",
"+ + . Y Z 0 l l A ` b P  .d R ..+.2 @.#.$.%.. . ",
"+ + @ &.*.0 l A O n b =.-.D | ..1 ;.>.,.'.).. + ",
"@ + + !.~.a A m {.b ].^.1 U /...1 (._.,.:.<.+ + ",
"+ . . [.}.|.B P 1.o C o 2.T 3.4.1 U 5.6.7.8.+ @ ",
". .   9.0.r r r | r [ c [ a.5.5.u b.c.d.e.f.+ . ",
"      . g.h.i.|.r j.k. .l.a.m.n.o.p.q.r.s.t.    ",
"+ + + @ u.v.i.[ |./.E |.w.x.@.u ,.y.z.A.B.  . + ",
"+ + + + . C.D.D e ..E.;.H F.5.H G.H.I.J.K.@ @ + ",
". .     . $ L.M.S N.1 T _.g #.O.H.P.Q.R.+ + . . ",
"    + + + + S.T.U.G V.W.X.Y.H.Z.`. +.++ + . .   ",
"+ + + . . . . K.++@+#+$+%+&+*+=+-+;++ .     . . ",
"+ + + + + + + + . x >+,+,+'+)+K.. .     + + + + ",
". . + + + + . . .     + @ + .       + + + . . . ",
"+ + + . . . .   . + + + .       + + . . . . . . ",
". . . .     . + @ + .       . + . . . . . . + . "};
