/* XPM */
static char * colect2_xpm[] = {
"24 24 217 2",
"  	c #EFF7CE",
". 	c #EFEFB5",
"+ 	c #E7E78C",
"@ 	c #E7DE73",
"# 	c #E5E58C",
"$ 	c #E7E7B1",
"% 	c #E2E2AF",
"& 	c #E1E8C4",
"* 	c #E3EAC5",
"= 	c #E0E08A",
"- 	c #E4E48B",
"; 	c #E6E68C",
"> 	c #E5E58D",
", 	c #E4E4B3",
"' 	c #D6D6AE",
") 	c #BFC2AF",
"! 	c #ABADA1",
"~ 	c #A1A398",
"{ 	c #A5A48F",
"] 	c #B4AE74",
"^ 	c #C7C783",
"/ 	c #E2E2AD",
"( 	c #EDEDB4",
"_ 	c #E9E9B4",
": 	c #D9DFC3",
"< 	c #C5C8BB",
"[ 	c #B5B5B1",
"} 	c #A8A8A8",
"| 	c #A0A0A0",
"1 	c #979797",
"2 	c #8A8A8A",
"3 	c #7D7D7D",
"4 	c #84847C",
"5 	c #A9A98D",
"6 	c #D2D9B8",
"7 	c #E2E28B",
"8 	c #D5D9C2",
"9 	c #C1C1BA",
"0 	c #BEBEBE",
"a 	c #BCBCBC",
"b 	c #B3B3B3",
"c 	c #9E9E9E",
"d 	c #949494",
"e 	c #7F7F7E",
"f 	c #797978",
"g 	c #909077",
"h 	c #C6BE73",
"i 	c #E3E38B",
"j 	c #D4D49B",
"k 	c #C2C2BA",
"l 	c #C2C2C2",
"m 	c #C3C3C3",
"n 	c #BFBFBF",
"o 	c #B7B7B7",
"p 	c #ACACAC",
"q 	c #A2A2A2",
"r 	c #999999",
"s 	c #919191",
"t 	c #868686",
"u 	c #757575",
"v 	c #959477",
"w 	c #D9D9A8",
"x 	c #EEEEB4",
"y 	c #DDDD93",
"z 	c #C7C7B6",
"A 	c #C0C0C1",
"B 	c #C0C0C0",
"C 	c #B8B8B8",
"D 	c #B0B0B0",
"E 	c #A5A5A5",
"F 	c #9D9D9D",
"G 	c #969696",
"H 	c #8C8C8C",
"I 	c #828282",
"J 	c #7A7A7A",
"K 	c #787875",
"L 	c #B2B291",
"M 	c #E6E6B0",
"N 	c #ECECB4",
"O 	c #D8D8B3",
"P 	c #BEBEBB",
"Q 	c #B2B2B2",
"R 	c #A6A6A6",
"S 	c #9F9F9F",
"T 	c #989898",
"U 	c #909090",
"V 	c #7E7E7E",
"W 	c #767676",
"X 	c #83857E",
"Y 	c #D9E0BD",
"Z 	c #E2E28F",
"` 	c #CAC9A4",
" .	c #BBBBBB",
"..	c #939393",
"+.	c #898989",
"@.	c #808080",
"#.	c #787878",
"$.	c #727271",
"%.	c #C3C381",
"&.	c #DFD77B",
"*.	c #C2C2A6",
"=.	c #B9B9B9",
"-.	c #B5B5B5",
";.	c #A4A4A4",
">.	c #9A9A9A",
",.	c #959595",
"'.	c #8B8B8B",
").	c #797979",
"!.	c #737271",
"~.	c #ACAC7D",
"{.	c #E6E6B2",
"].	c #C1C1AF",
"^.	c #C1C1C1",
"/.	c #B6B6B6",
"(.	c #AEAEAE",
"_.	c #A09F9F",
":.	c #908E8E",
"<.	c #8B8A8A",
"[.	c #ACAB8F",
"}.	c #B6BAA8",
"|.	c #ADADAD",
"1.	c #A9A8A8",
"2.	c #B6A2A4",
"3.	c #B39293",
"4.	c #918283",
"5.	c #848484",
"6.	c #8F8F8F",
"7.	c #717171",
"8.	c #616160",
"9.	c #B5B57A",
"0.	c #E6EDC7",
"a.	c #B6B9A6",
"b.	c #AFA5A6",
"c.	c #D1787E",
"d.	c #DD545C",
"e.	c #AF6D70",
"f.	c #7B7B7B",
"g.	c #777777",
"h.	c #686868",
"i.	c #5B5B5B",
"j.	c #535351",
"k.	c #BBBB79",
"l.	c #EBEBB3",
"m.	c #C6C692",
"n.	c #ACACAB",
"o.	c #A89C9D",
"p.	c #D37177",
"q.	c #E04E57",
"r.	c #B56C70",
"s.	c #787777",
"t.	c #6E6F6F",
"u.	c #6B6B6B",
"v.	c #646464",
"w.	c #5E5E5E",
"x.	c #6D6C5F",
"y.	c #D6D5A4",
"z.	c #E6DD74",
"A.	c #D5CE7C",
"B.	c #B4B4A2",
"C.	c #929292",
"D.	c #999797",
"E.	c #AA8A8D",
"F.	c #AB7477",
"G.	c #8F7A7A",
"H.	c #727272",
"I.	c #636360",
"J.	c #A4A384",
"K.	c #E4EBC5",
"L.	c #EAEAB3",
"M.	c #CBD0B6",
"N.	c #A6A7A2",
"O.	c #7F7D7D",
"P.	c #737373",
"Q.	c #6A6A6A",
"R.	c #616161",
"S.	c #86897B",
"T.	c #D3D9B7",
"U.	c #E5E58B",
"V.	c #EEEEB5",
"W.	c #E4E4AF",
"X.	c #B9B98D",
"Y.	c #979790",
"Z.	c #909091",
"`.	c #8D8D8D",
" +	c #838383",
".+	c #707070",
"++	c #7F8175",
"@+	c #C3C8AB",
"#+	c #E1E18A",
"$+	c #E2EAC5",
"%+	c #C2C8AE",
"&+	c #9B9B8D",
"*+	c #82827F",
"=+	c #6E6E6E",
"-+	c #696969",
";+	c #626262",
">+	c #6B6C68",
",+	c #959987",
"'+	c #C1C17D",
")+	c #DFD672",
"!+	c #E1E18B",
"~+	c #D1D187",
"{+	c #BABA81",
"]+	c #9A9A84",
"^+	c #7F7E74",
"/+	c #7A7B76",
"(+	c #86897E",
"_+	c #A0A073",
":+	c #BCB56D",
"<+	c #D5CD70",
"[+	c #E3DA72",
"}+	c #EAEAB2",
"|+	c #E1E1AC",
"1+	c #DCDCA9",
"2+	c #DBDBA9",
"3+	c #D6CE71",
"4+	c #DDD472",
"      . + + @ @ +     . + + + + .   . + + + . . ",
". + + + + + +     . + + . .       + + .         ",
"+ . . .       . + # $ % & * = - ; . .         + ",
". .     + + + > , ' ) ! ~ { ] ^ / (     . + + + ",
".   + + . . _ : < [ } | 1 2 3 4 5 6 7 + + + + . ",
"+ + + + . _ 8 9 0 a b } c d 2 e f g h i + + . . ",
"@ + . . > j k l m n o p q r s t 3 u v w x .   + ",
"+ . . ; y z A m m B C D E F G H I J K L M   @ @ ",
". + + N O P m m m 0 o Q R S T U t V W X Y @ @ + ",
"+ + . Z ` 0 m m l  .o Q R | r ..+.@.#.$.%.@ . . ",
"+ + @ &.*.n m l 0 =.-.D ;.c >.,.'.I ).!.~.. . + ",
"@ + + {.].a ^.B  ./.(._.:.<.d d H I J $.[.. + + ",
"+ . . M }.q Q -.-.|.1.2.3.4.5.6.2 3 7.8.9.+ + @ ",
". .   0.a.d >.>.S F b.c.d.e.f.f.g.h.i.j.k.+ + . ",
"      l.m.n.D | ..6.o.p.q.r.s.t.u.v.w.x.y..     ",
"+ + + z.A.B.Q p | C.D.E.F.G.).g.H.h.I.J.K.  . + ",
"+ + + + L.M.N.S >.,.U H O.J #.P.Q.R.S.T.U.@ @ + ",
". .     V.W.X.Y.Z.s `. +g.u .+h.R.++@+#++ + . . ",
"    + + + ; $+%+&+*+J u =+-+;+>+,+'+)++ + . .   ",
"+ + + . . . V.!+~+{+]+^+/+(+_+:+<+[++ .     . . ",
"+ + + + + + + + x }+|+1+2+3+4+i x .     + + + + ",
". . + + + + . . .     + @ + .       + + + . . . ",
"+ + + . . . .   . + + + .       + + . . . . . . ",
". . . .     . + @ + .       . + . . . . . . + . "};
