/* XPM */
static char * enemy2_xpm[] = {
"24 24 197 2",
"  	c #EFF7CE",
". 	c #EFEFB5",
"+ 	c #E7E78C",
"@ 	c #E7DE73",
"# 	c #C8CEAD",
"$ 	c #A4A991",
"% 	c #5C5C5D",
"& 	c #515158",
"* 	c #858565",
"= 	c #A3A37F",
"- 	c #E9F0C9",
"; 	c #CAD1AE",
"> 	c #59594E",
", 	c #56565D",
"' 	c #606068",
") 	c #595961",
"! 	c #56565E",
"~ 	c #585860",
"{ 	c #7D7D4F",
"] 	c #E3E389",
"^ 	c #D5D5A1",
"/ 	c #3E3E2D",
"( 	c #4E4E56",
"_ 	c #57575E",
": 	c #5B5B62",
"< 	c #79795C",
"[ 	c #EAF2CA",
"} 	c #E5E58B",
"| 	c #BCBC72",
"1 	c #323237",
"2 	c #5E5E66",
"3 	c #333339",
"4 	c #898E76",
"5 	c #C4C496",
"6 	c #3E3E46",
"7 	c #45454C",
"8 	c #55555D",
"9 	c #5A5A62",
"0 	c #5F5F67",
"a 	c #33333B",
"b 	c #71714E",
"c 	c #D6D681",
"d 	c #BDBD91",
"e 	c #515157",
"f 	c #57575F",
"g 	c #34343C",
"h 	c #4D4D55",
"i 	c #52525A",
"j 	c #616169",
"k 	c #33333A",
"l 	c #28282F",
"m 	c #9A9A5C",
"n 	c #5D5D3F",
"o 	c #5F5F66",
"p 	c #2E2E36",
"q 	c #35353D",
"r 	c #4D4D54",
"s 	c #53535B",
"t 	c #5B5B63",
"u 	c #3D3D45",
"v 	c #313139",
"w 	c #A1A179",
"x 	c #64644B",
"y 	c #5D5D65",
"z 	c #3C3C44",
"A 	c #2F2F37",
"B 	c #36363E",
"C 	c #3C3C43",
"D 	c #393941",
"E 	c #383840",
"F 	c #303038",
"G 	c #E2E2AB",
"H 	c #5C5C42",
"I 	c #5C5C64",
"J 	c #37373F",
"K 	c #29272F",
"L 	c #A2A78B",
"M 	c #D8CF6B",
"N 	c #452E22",
"O 	c #654935",
"P 	c #48372E",
"Q 	c #4D535F",
"R 	c #31343D",
"S 	c #2A2B32",
"T 	c #292B31",
"U 	c #2A2B31",
"V 	c #292A30",
"W 	c #0D070C",
"X 	c #4E3A41",
"Y 	c #B7AF74",
"Z 	c #E4E1AA",
"` 	c #9E7158",
" .	c #E7B594",
"..	c #A0806F",
"+.	c #B0BAC7",
"@.	c #8E776D",
"#.	c #441B35",
"$.	c #6A235B",
"%.	c #5F2052",
"&.	c #551E4B",
"*.	c #401335",
"=.	c #937A5A",
"-.	c #E3E1AA",
";.	c #A7806C",
">.	c #FDD5BD",
",.	c #D4B19C",
"'.	c #EAD6CA",
").	c #B88C81",
"!.	c #963B7F",
"~.	c #B2419A",
"{.	c #A03C8C",
"].	c #923982",
"^.	c #7F306F",
"/.	c #6D4156",
"(.	c #CAC49A",
"_.	c #EBF3CA",
":.	c #C9C1A1",
"<.	c #C79B81",
"[.	c #F3C7AC",
"}.	c #EBBB9D",
"|.	c #7F4A60",
"1.	c #AC3E94",
"2.	c #A13C8D",
"3.	c #A93E93",
"4.	c #963A85",
"5.	c #69275D",
"6.	c #442835",
"7.	c #CFCA9D",
"8.	c #E4DB71",
"9.	c #B4A658",
"0.	c #6F594A",
"a.	c #8A6148",
"b.	c #6B2F52",
"c.	c #973984",
"d.	c #9E3988",
"e.	c #622854",
"f.	c #431E38",
"g.	c #BCBA72",
"h.	c #DCDCA6",
"i.	c #E4E48A",
"j.	c #E9E9B0",
"k.	c #80836C",
"l.	c #59244B",
"m.	c #632755",
"n.	c #5A214C",
"o.	c #919058",
"p.	c #DDDD86",
"q.	c #EDEDB3",
"r.	c #E3EBC4",
"s.	c #8E7542",
"t.	c #4E444A",
"u.	c #44434B",
"v.	c #43434B",
"w.	c #3D3D43",
"x.	c #BDBD8F",
"y.	c #9B9B5C",
"z.	c #BD4900",
"A.	c #6A4846",
"B.	c #3A3A42",
"C.	c #505058",
"D.	c #B9B972",
"E.	c #A1A78B",
"F.	c #B2838A",
"G.	c #857594",
"H.	c #2D2D35",
"I.	c #606067",
"J.	c #848457",
"K.	c #E1E1AB",
"L.	c #747280",
"M.	c #615D76",
"N.	c #9D96AD",
"O.	c #757092",
"P.	c #38393D",
"Q.	c #393940",
"R.	c #D2D9B6",
"S.	c #DFDF87",
"T.	c #7C7C60",
"U.	c #3B3335",
"V.	c #B9B1C9",
"W.	c #A199B0",
"X.	c #180A00",
"Y.	c #141418",
"Z.	c #CBC365",
"`.	c #94946F",
" +	c #B98A67",
".+	c #534957",
"++	c #7C615D",
"@+	c #A37B58",
"#+	c #B7B76E",
"$+	c #EEEEB4",
"%+	c #8F8E5A",
"&+	c #7D769F",
"*+	c #7A7491",
"=+	c #B8B88B",
"-+	c #E6E68B",
";+	c #A3A37A",
">+	c #B9BF9F",
"      . + + @ @ + # $ % & & & * = - . + + + . . ",
". + + + + + +   ; > , ' ' ' ) ! ~ { ] .         ",
"+ . . .       ^ / ( ' ' ' ' _ _ ' : < [       + ",
". .     + + } | 1 ) ' ' ' ' _ ! ' 2 3 4 . + + + ",
".   + + . . 5 6 7 2 ' ' ' 2 8 9 ' 0 a b c + + . ",
"+ + + + . d e f g h 2 ' ' 9 i j ' ! k l m + . . ",
"@ + . . + n o ! p q r s ' t s j ! u v l w .   + ",
"+ . . + + x y 9 z A g B u C D 6 E v F l w   @ @ ",
". + + . . G H I i J A F F F F F F F p K L @ @ + ",
"+ + . + + + M N O P Q R S T T T U V W X Y @ . . ",
"+ + @ @ + + Z `  ...+.@.#.$.$.%.&.&.*.=.+ . . + ",
"@ + + . . . -.;.>.,.'.).!.~.~.{.].^./.(.. . + + ",
"+ . . .     _.:.<.[.}.|.1.2.3.4.5.6.7.. + + + @ ",
". .         + 8.9.0.a.b.c.d.e.f.g.h.. + + + + . ",
"      . + @ @ + i.j.k.l.m.n.o.p.q.. + + . .     ",
"+ + + @ @ + . .   r.s.t.u.v.w.x.+ + . .     . + ",
"+ + + + .       . y.z.A.B.j C.D.+ .     + @ @ + ",
". .     . . + + . E.F.G.H.I.C.J.K.    + + + . . ",
"    + + + +     . y.L.M.N.O.P.Q.R.+ @ + + . .   ",
"+ + + . . . . + + S.T.U.V.W.X.Y.Z.@ + .     . . ",
"+ + + + + + + + . . `. +.+++@+#+$+.     + + + + ",
". . + + + + . . .     %+&+*+=+      + + + . . . ",
"+ + + . . . .   . + + -+;+>+    + + . . . . . . ",
". . . .     . + @ + .       . + . . . . . . + . "};
