/* XPM */
static char * enemy1_xpm[] = {
"24 24 254 2",
"  	c #EFF7CE",
". 	c #EFEFB5",
"+ 	c #E7E78C",
"@ 	c #E7DE73",
"# 	c #ECF4CC",
"$ 	c #ECECB3",
"% 	c #E4E48B",
"& 	c #E6E68C",
"* 	c #C7D2B9",
"= 	c #A1AB9C",
"- 	c #484D59",
"; 	c #434753",
"> 	c #424652",
", 	c #899086",
"' 	c #A2AFA4",
") 	c #C9D1B1",
"! 	c #333C4D",
"~ 	c #343338",
"{ 	c #54545C",
"] 	c #606068",
"^ 	c #5E5E66",
"/ 	c #4E4E56",
"( 	c #343337",
"_ 	c #576061",
": 	c #EAEAB2",
"< 	c #C9CA81",
"[ 	c #262E39",
"} 	c #46464D",
"| 	c #5D5D65",
"1 	c #5F5F67",
"2 	c #585860",
"3 	c #333339",
"4 	c #48555E",
"5 	c #EBF3CB",
"6 	c #CBCC9D",
"7 	c #18222B",
"8 	c #25252B",
"9 	c #56565E",
"0 	c #515159",
"a 	c #4F4F57",
"b 	c #45454D",
"c 	c #121316",
"d 	c #4F5445",
"e 	c #C2C394",
"f 	c #19191D",
"g 	c #2E2E36",
"h 	c #47474F",
"i 	c #5A5A62",
"j 	c #5C5C64",
"k 	c #55555D",
"l 	c #3C3C44",
"m 	c #2A2A31",
"n 	c #0F1318",
"o 	c #BCBC73",
"p 	c #1D1D23",
"q 	c #303038",
"r 	c #34343C",
"s 	c #4D4D55",
"t 	c #313139",
"u 	c #2F2F37",
"v 	c #11151B",
"w 	c #46464E",
"x 	c #5B5B63",
"y 	c #3B3B43",
"z 	c #11151A",
"A 	c #C4C398",
"B 	c #231724",
"C 	c #33333B",
"D 	c #3E3E46",
"E 	c #3A3A42",
"F 	c #303037",
"G 	c #222228",
"H 	c #2F1D33",
"I 	c #C3BE81",
"J 	c #2E1129",
"K 	c #131417",
"L 	c #414148",
"M 	c #32323A",
"N 	c #2E2E33",
"O 	c #070608",
"P 	c #542852",
"Q 	c #BDBD76",
"R 	c #461B3F",
"S 	c #2C1027",
"T 	c #38373F",
"U 	c #54535C",
"V 	c #505058",
"W 	c #4E4E55",
"X 	c #52525A",
"Y 	c #53535C",
"Z 	c #4A4A52",
"` 	c #201F24",
" .	c #501E47",
"..	c #341B35",
"+.	c #C2C497",
"@.	c #54264F",
"#.	c #8E347B",
"$.	c #622855",
"%.	c #5A4F5D",
"&.	c #847F9D",
"*.	c #464449",
"=.	c #362F2B",
"-.	c #372F2B",
";.	c #38312F",
">.	c #5D5C68",
",.	c #79738C",
"'.	c #4E3746",
").	c #792D68",
"!.	c #883478",
"~.	c #2D273D",
"{.	c #EAF3CC",
"].	c #435369",
"^.	c #833072",
"/.	c #7C2E67",
"(.	c #BF9387",
"_.	c #C9C2C2",
":.	c #867164",
"<.	c #EBC5AE",
"[.	c #EAC4AD",
"}.	c #DEBAA5",
"|.	c #5C524E",
"1.	c #D4C0B8",
"2.	c #A06764",
"3.	c #8D3279",
"4.	c #4D1E45",
"5.	c #B6BA99",
"6.	c #B7C0A8",
"7.	c #6A3368",
"8.	c #9A3986",
"9.	c #8C4871",
"0.	c #BEA08E",
"a.	c #E9C0A6",
"b.	c #F3C8AE",
"c.	c #EFC2A6",
"d.	c #F5CBB2",
"e.	c #DBB399",
"f.	c #A78080",
"g.	c #8D3377",
"h.	c #8F357D",
"i.	c #493E5E",
"j.	c #DADB89",
"k.	c #B1A576",
"l.	c #7F4274",
"m.	c #802D6E",
"n.	c #46282E",
"o.	c #A07E67",
"p.	c #B2896F",
"q.	c #B58260",
"r.	c #AE8D78",
"s.	c #8B6750",
"t.	c #4B1840",
"u.	c #886C81",
"v.	c #DFDE8A",
"w.	c #BBB9A2",
"x.	c #381D37",
"y.	c #3E293D",
"z.	c #542F20",
"A.	c #9A4517",
"B.	c #AB501F",
"C.	c #853912",
"D.	c #362A2E",
"E.	c #3C2238",
"F.	c #574B5B",
"G.	c #E3E38C",
"H.	c #939D94",
"I.	c #6E7466",
"J.	c #41434A",
"K.	c #37373E",
"L.	c #733619",
"M.	c #A9522C",
"N.	c #7E4D3D",
"O.	c #B9511A",
"P.	c #382522",
"Q.	c #3F3F47",
"R.	c #54564B",
"S.	c #6F7366",
"T.	c #DFE7C3",
"U.	c #A0A796",
"V.	c #89869A",
"W.	c #9B95AB",
"X.	c #494851",
"Y.	c #1F1F23",
"Z.	c #83462B",
"`.	c #C65619",
" +	c #B35422",
".+	c #774C3B",
"++	c #3B383D",
"@+	c #28282D",
"#+	c #6D6A78",
"$+	c #A19AB1",
"%+	c #676C7B",
"&+	c #D1D38C",
"*+	c #929977",
"=+	c #656281",
"-+	c #7A7397",
";+	c #2D2C38",
">+	c #676382",
",+	c #875750",
"'+	c #A16658",
")+	c #706266",
"!+	c #AC664D",
"~+	c #594D5C",
"{+	c #54516A",
"]+	c #464257",
"^+	c #7F789D",
"/+	c #3E445C",
"(+	c #CFD187",
"_+	c #8C8E73",
":+	c #686842",
"<+	c #3F373A",
"[+	c #515061",
"}+	c #8D86A5",
"|+	c #A9A2B6",
"1+	c #AAA4B8",
"2+	c #A59DB2",
"3+	c #787394",
"4+	c #46424B",
"5+	c #504A37",
"6+	c #65633A",
"7+	c #D6D684",
"8+	c #51403C",
"9+	c #6D584E",
"0+	c #3C3B43",
"a+	c #494951",
"b+	c #44434B",
"c+	c #3E3A40",
"d+	c #664E43",
"e+	c #A39F7A",
"f+	c #312725",
"g+	c #A07154",
"h+	c #99745C",
"i+	c #795847",
"j+	c #5E3F34",
"k+	c #8E6B55",
"l+	c #99735B",
"m+	c #79543D",
"n+	c #9AA086",
"o+	c #828C86",
"p+	c #4F3F44",
"q+	c #AD95A0",
"r+	c #7B6969",
"s+	c #31201A",
"t+	c #A58F93",
"u+	c #98818F",
"v+	c #393F4F",
"w+	c #BDC188",
"x+	c #E6DD73",
"y+	c #D3D483",
"z+	c #2D3445",
"A+	c #C1C8AA",
"B+	c #EDF5CD",
"C+	c #444E59",
"D+	c #3E454F",
"E+	c #E5E68C",
"      . + + @ @ + # # $ % % % & .   . + + + . . ",
". + + + + + + * = - ; > > > ; , ' & + .         ",
"+ . . .     ) ! ~ { ] ] ] ] ^ / ( _ :         + ",
". .     + < [ } | 1 ] ] ] ] ] 1 2 3 4 5 . + + + ",
".   + + 6 7 8 9 0 a a a a a a a 9 b c d + + + . ",
"+ + + + e f g h i j j j j j j j k l m n + + . . ",
"@ + . . o p q r 2 ] ] ] ] ] ] 1 s t u v . .   + ",
"+ . . + o p q t w i x x x x x { y q u z .   @ @ ",
". + + . A B m q C D D D D D D E q F G H   @ @ + ",
"+ + . + I J K L M u u u u u u u y N O P + @ . . ",
"+ + @ @ Q R S T a U V W W / X Y Z `  ...+ . . + ",
"@ + + . +.@.#.$.%.&.*.=.-.;.>.,.'.).!.~.. . + + ",
"+ . . . {.].^./.(._.:.<.[.}.|.1.2.3.4.5.+ + + @ ",
". .       6.7.8.9.0.a.b.c.d.e.f.g.h.i.j.+ + + . ",
"      . + @ k.l.m.n.o.p.q.r.s.t.3.u.v.+ . .     ",
"+ + + @ @ + . w.x.y.z.A.B.C.D.E.F.G.. .     . + ",
"+ + + + .   H.I.J.K.L.M.N.O.P.Q.R.S.T.  + @ @ + ",
". .     . U.V.W.X.Y.Z.`. +.+++@+#+$+%+&++ + . . ",
"    + + + *+=+-+;+>+,+'+)+!+~+{+]+^+/+(++ . .   ",
"+ + + . . . _+:+<+[+}+|+1+2+3+4+5+6+7+.     . . ",
"+ + + + + + + + 8+9+0+a+a b+c+d+e+.     + + + + ",
". . + + + + . . f+g+h+i+j+k+l+m+n+  + + + . . . ",
"+ + + . . . .   o+p+q+r+s+t+u+v+w++ . . . . . . ",
". . . .     . + x+y+z+A+B+C+D+E+. . . . . . + . "};
