/* XPM */
static char * enemy4_xpm[] = {
"24 24 220 2",
"  	c #EFF7CE",
". 	c #EFEFB5",
"+ 	c #E7E78C",
"@ 	c #E7DE73",
"# 	c #E2EAC3",
"$ 	c #C2C296",
"% 	c #BCBC74",
"& 	c #C2C294",
"* 	c #C2C8A9",
"= 	c #DBE3BE",
"- 	c #EBF3CB",
"; 	c #AEAE86",
"> 	c #8C8C60",
", 	c #4B4B53",
"' 	c #4E4E55",
") 	c #4C4C54",
"! 	c #7E7E5C",
"~ 	c #A7A769",
"{ 	c #E4E4AD",
"] 	c #E5E58B",
"^ 	c #8B8B54",
"/ 	c #3A3A41",
"( 	c #56565E",
"_ 	c #5D5D65",
": 	c #616169",
"< 	c #5E5E66",
"[ 	c #57575F",
"} 	c #404047",
"| 	c #818162",
"1 	c #E8F0C8",
"2 	c #8C8C69",
"3 	c #36363A",
"4 	c #4E4E56",
"5 	c #393940",
"6 	c #747445",
"7 	c #E4E48A",
"8 	c #E9E9B0",
"9 	c #64644B",
"0 	c #32323A",
"a 	c #515159",
"b 	c #5F5F66",
"c 	c #5F5F67",
"d 	c #54545C",
"e 	c #37373F",
"f 	c #413E23",
"g 	c #DCDC85",
"h 	c #87874F",
"i 	c #2B2B33",
"j 	c #37373E",
"k 	c #5C5C64",
"l 	c #606068",
"m 	c #3D3D44",
"n 	c #2E2E36",
"o 	c #6D6D51",
"p 	c #83834D",
"q 	c #2C2C33",
"r 	c #47474F",
"s 	c #34343C",
"t 	c #67674D",
"u 	c #888866",
"v 	c #303038",
"w 	c #33333B",
"x 	c #44444C",
"y 	c #53535B",
"z 	c #35353D",
"A 	c #2F2F37",
"B 	c #676B58",
"C 	c #90855D",
"D 	c #281C28",
"E 	c #3A3A42",
"F 	c #231E27",
"G 	c #7A6D68",
"H 	c #988666",
"I 	c #280B21",
"J 	c #1C0D1A",
"K 	c #826456",
"L 	c #9B8B78",
"M 	c #993784",
"N 	c #3E1B37",
"O 	c #2F2F36",
"P 	c #301C2E",
"Q 	c #876C6B",
"R 	c #AAA291",
"S 	c #893D78",
"T 	c #9F3A8A",
"U 	c #3C1535",
"V 	c #36102E",
"W 	c #1E1F24",
"X 	c #2D2D35",
"Y 	c #2D2D34",
"Z 	c #23242A",
"` 	c #2E0D27",
" .	c #381331",
"..	c #983784",
"+.	c #8C3A7C",
"@.	c #988576",
"#.	c #686959",
"$.	c #8B367C",
"%.	c #8F367E",
"&.	c #943580",
"*.	c #3C1032",
"=.	c #000000",
"-.	c #300C28",
";.	c #893177",
">.	c #953882",
",.	c #8D377E",
"'.	c #4F403F",
").	c #E3E38A",
"!.	c #A59E52",
"~.	c #702E61",
"{.	c #632254",
"].	c #8A3479",
"^.	c #7F2D6D",
"/.	c #632054",
"(.	c #732762",
"_.	c #6A235B",
":.	c #6F265F",
"<.	c #933780",
"[.	c #652356",
"}.	c #6E2860",
"|.	c #9A975F",
"1.	c #BDBD8E",
"2.	c #ACA683",
"3.	c #370C30",
"4.	c #612154",
"5.	c #92367F",
"6.	c #A33D8F",
"7.	c #A33D8E",
"8.	c #993986",
"9.	c #622153",
"0.	c #45143C",
"a.	c #98925F",
"b.	c #B5B46D",
"c.	c #ECECB3",
"d.	c #EDF5CD",
"e.	c #9CA188",
"f.	c #868A75",
"g.	c #494A51",
"h.	c #362936",
"i.	c #4A1640",
"j.	c #521B48",
"k.	c #4D1944",
"l.	c #362333",
"m.	c #46474E",
"n.	c #7A7A54",
"o.	c #959673",
"p.	c #949376",
"q.	c #A49DB1",
"r.	c #41414A",
"s.	c #4F4F56",
"t.	c #515259",
"u.	c #57575E",
"v.	c #54545B",
"w.	c #393941",
"x.	c #47474D",
"y.	c #43434B",
"z.	c #9D97AB",
"A.	c #898C7F",
"B.	c #79784E",
"C.	c #8B84AD",
"D.	c #787199",
"E.	c #2A2B2B",
"F.	c #6F6A8B",
"G.	c #726F89",
"H.	c #656471",
"I.	c #656472",
"J.	c #6D6A80",
"K.	c #777296",
"L.	c #2F3031",
"M.	c #6D678C",
"N.	c #8D85B1",
"O.	c #68634C",
"P.	c #EAEAB1",
"Q.	c #7D7D60",
"R.	c #656341",
"S.	c #443B3F",
"T.	c #43444C",
"U.	c #767094",
"V.	c #8881AB",
"W.	c #7D779E",
"X.	c #45454E",
"Y.	c #443D43",
"Z.	c #615A38",
"`.	c #6F6B3B",
" +	c #D4D17F",
".+	c #744F3C",
"++	c #644F47",
"@+	c #323741",
"#+	c #4F5058",
"$+	c #373B44",
"%+	c #564642",
"&+	c #795643",
"*+	c #CCC796",
"=+	c #D6D6A1",
"-+	c #715039",
";+	c #AC7E5E",
">+	c #9D7559",
",+	c #6B4B3C",
"'+	c #634338",
")+	c #9C7358",
"!+	c #A87B5D",
"~+	c #865F45",
"{+	c #C3C9A8",
"]+	c #E7EEC7",
"^+	c #9F9C74",
"/+	c #8B6F7A",
"(+	c #C7ABB3",
"_+	c #745A57",
":+	c #60453F",
"<+	c #C7ABB2",
"[+	c #9A7C8A",
"}+	c #8D8C73",
"|+	c #D9D983",
"1+	c #E0D76F",
"2+	c #99996E",
"3+	c #5C596B",
"4+	c #C4CBAB",
"5+	c #CDD4B1",
"6+	c #64616E",
"7+	c #8A897A",
"      . + + @ @ +     . + + + + .   . + + + . . ",
". + + + + + +   # $ % % & & * =   + + .         ",
"+ . . .     - ; > , ' ' ' ' ) ! ~ { .         + ",
". .     + ] ^ / ( _ : : : : < [ } | 1   . + + + ",
".   + + . 2 3 ( 4 4 4 4 4 4 4 ' ( 5 6 7 + + + . ",
"+ + + + 8 9 0 a b < < < < < < c d e f g + + . . ",
"@ + . . h i j k l l l l l l l l < m n o . .   + ",
"+ . . + p q 0 r k : l l l l l < , s n t .   @ @ ",
". + + . u q v w x y ( ( ( ( d r z v A B   @ @ + ",
"+ + . + C D A v A z E E E E j A v v F G + @ . . ",
"+ + @ @ H I n v v v v v v v v v v v J K + . . + ",
"@ + + . L M N O A A v v v v v A A P M Q . . + + ",
"+ . . . R S T U V W X Y Y Y Z `  ...+.@.+ + + @ ",
". .       #.$.%.&.*.=.=.=.=.-.;.>.,.'.).+ + + . ",
"      . + !.~.{.].^./.(.(._.:.<.[.}.|.] . .     ",
"+ + + @ @ + 1.2.3.4.5.6.7.8.9.0.a.b.c..     . + ",
"+ + + + . d.e.f.g.h.i.j.j.k.l.m.n.o.1   + @ @ + ",
". .     . p.q.r.s.w t.u.u.v.w.x.y.z.A.7 + + . . ",
"    + + + B.C.D.E.F.G.H.I.J.K.L.M.N.O.7 + . .   ",
"+ + + . . P.Q.R.S.T.U.V.V.W.X.Y.Z.`.g .     . . ",
"+ + + + + + +  +.+++@+#+t.$+%+&+*+.     + + + + ",
". . + + + + . =+-+;+>+,+'+)+!+~+{+  + + + . . . ",
"+ + + . . . . ]+^+/+(+_+:+<+[+}+|++ . . . . . . ",
". . . .     . + 1+2+3+4+5+6+7+g . . . . . . + . "};
