/* XPM */
static char * enemy3_xpm[] = {
"24 24 199 2",
"  	c #EFF7CE",
". 	c #EFEFB5",
"+ 	c #E7E78C",
"@ 	c #E7DE73",
"# 	c #E8F0C8",
"$ 	c #C5CBAB",
"% 	c #C5C597",
"& 	c #BFBF76",
"* 	c #BEBE76",
"= 	c #E1E188",
"- 	c #EEF6CD",
"; 	c #B7BD9F",
"> 	c #A6A684",
", 	c #4C4C54",
"' 	c #A5AA93",
") 	c #A2A27A",
"! 	c #525259",
"~ 	c #57575F",
"{ 	c #616169",
"] 	c #5A5A62",
"^ 	c #44444A",
"/ 	c #9C9C5E",
"( 	c #97975A",
"_ 	c #575759",
": 	c #606068",
"< 	c #5C5C64",
"[ 	c #505058",
"} 	c #3A3A39",
"| 	c #9D9D76",
"1 	c #A0A078",
"2 	c #373737",
"3 	c #5B5B63",
"4 	c #5F5F67",
"5 	c #45454C",
"6 	c #737763",
"7 	c #E4E48B",
"8 	c #EAEAB1",
"9 	c #8A8A6D",
"0 	c #313139",
"a 	c #515159",
"b 	c #595960",
"c 	c #34343B",
"d 	c #8F8A54",
"e 	c #E2E289",
"f 	c #A1A160",
"g 	c #27272D",
"h 	c #585860",
"i 	c #595961",
"j 	c #53535B",
"k 	c #43434B",
"l 	c #3E3E46",
"m 	c #9A9A7A",
"n 	c #E6E6AE",
"o 	c #A0A05F",
"p 	c #303038",
"q 	c #404048",
"r 	c #3D3D45",
"s 	c #4D4D54",
"t 	c #B9B98D",
"u 	c #A6A67C",
"v 	c #484850",
"w 	c #44444C",
"x 	c #4D4D55",
"y 	c #42424A",
"z 	c #3C3C44",
"A 	c #46464D",
"B 	c #48484E",
"C 	c #B8BE9E",
"D 	c #26272D",
"E 	c #2F2F37",
"F 	c #56565E",
"G 	c #898E79",
"H 	c #D8D882",
"I 	c #ABA26C",
"J 	c #34162D",
"K 	c #131418",
"L 	c #2D2D35",
"M 	c #31323A",
"N 	c #1B1B20",
"O 	c #282528",
"P 	c #323033",
"Q 	c #7E7A47",
"R 	c #DBD36D",
"S 	c #EAEAB2",
"T 	c #988875",
"U 	c #2D0B25",
"V 	c #231020",
"W 	c #241122",
"X 	c #261123",
"Y 	c #2D1328",
"Z 	c #220F20",
"` 	c #2D1D14",
" .	c #95A1B3",
"..	c #6F6C73",
"+.	c #C99774",
"@.	c #BF8D6B",
"#.	c #A29359",
"$.	c #ADA794",
"%.	c #653254",
"&.	c #843274",
"*.	c #8C367D",
"=.	c #943882",
"-.	c #AC3E95",
";.	c #AD3F95",
">.	c #8B2D78",
",.	c #B17B67",
"'.	c #EBE0DB",
").	c #8B7E77",
"!.	c #F1CAB2",
"~.	c #E3BBA4",
"{.	c #A99870",
"].	c #A6986C",
"^.	c #5F2D4C",
"/.	c #803171",
"(.	c #963984",
"_.	c #AC3F95",
":.	c #AD3F96",
"<.	c #AE4097",
"[.	c #7F296D",
"}.	c #DDB49F",
"|.	c #F7CFB6",
"1.	c #F0C6AC",
"2.	c #D6B199",
"3.	c #BCB184",
"4.	c #9F9F5F",
"5.	c #8E8A57",
"6.	c #732B66",
"7.	c #812F71",
"8.	c #9C3987",
"9.	c #A33D8F",
"0.	c #7B2A6A",
"a.	c #AE7B61",
"b.	c #C7A48E",
"c.	c #AF8564",
"d.	c #BEB386",
"e.	c #EBF3CA",
"f.	c #B2B899",
"g.	c #949259",
"h.	c #6D245C",
"i.	c #863074",
"j.	c #692359",
"k.	c #573130",
"l.	c #B3B36B",
"m.	c #DBDB84",
"n.	c #838465",
"o.	c #3C333F",
"p.	c #4B3548",
"q.	c #523E50",
"r.	c #262727",
"s.	c #DEDE86",
"t.	c #D8DFBB",
"u.	c #3E3E45",
"v.	c #47474E",
"w.	c #3F434B",
"x.	c #AF4D28",
"y.	c #8B7C48",
"z.	c #CDCD7D",
"A.	c #44444B",
"B.	c #494950",
"C.	c #414450",
"D.	c #C35C3F",
"E.	c #654837",
"F.	c #E9F1C9",
"G.	c #DBDB86",
"H.	c #4C4C40",
"I.	c #61616C",
"J.	c #575561",
"K.	c #756E94",
"L.	c #AFA3BC",
"M.	c #5A554C",
"N.	c #E1D970",
"O.	c #E2E2AC",
"P.	c #353538",
"Q.	c #2E3034",
"R.	c #696482",
"S.	c #B5ADCC",
"T.	c #716D7C",
"U.	c #4C4B51",
"V.	c #7D7D4E",
"W.	c #E7E7AF",
"X.	c #898E75",
"Y.	c #4F3723",
"Z.	c #947F80",
"`.	c #9D97AC",
" +	c #917874",
".+	c #402C1B",
"++	c #E3EBC4",
"@+	c #DEDE87",
"#+	c #A69A60",
"$+	c #8C6E6E",
"%+	c #636087",
"&+	c #917069",
"*+	c #ADAC8D",
"=+	c #E9F0C9",
"-+	c #E5E5AD",
";+	c #9DA192",
">+	c #5B5676",
",+	c #A9AF99",
"'+	c #E9E9B0",
"      . + + @ @ + # $ % & * = + .   . + + + . . ",
". + + + + + + - ; > , , , , ' ; - + + .         ",
"+ . . .       ) ! ~ ~ { { { ] ^ / . .         + ",
". .     + + ( _ : < [ : : : : ] } |     . + + + ",
".   + + . 1 2 < : 3 [ : : : : 4 5 6 7 + + + + . ",
"+ + + + 8 9 0 < : < a 4 : : : : b c d e + + . . ",
"@ + . . f g 0 h : : i j : : : 3 k l ~ m n .   + ",
"+ . . + o g p q h { i j { 3 h k 0 r { s t   @ @ ",
". + + . u g p p l , v w x y z 0 0 A { B C @ @ + ",
"+ + . + o D 0 p E E E E E E p 0 w 3 F G H @ . . ",
"+ + @ @ I J K L p p p p p p M N O P Q R + . . + ",
"@ + + . S T U V W X Y Y Z `  ...+.@.#.. . . + + ",
"+ . . .   $.%.&.*.=.-.;.>.,.'.).!.~.{.. + + + @ ",
". .         ].^./.(._.:.<.[.}.|.1.2.3.+ + + + . ",
"      . + @ @ 4.5.6.7.8.9.0.a.b.c.d.+ + . .     ",
"+ + + @ @ + . . e.f.g.h.i.j.k.u l.+ . .     . + ",
"+ + + + .       . m.n.o.p.q.r.s.+ .     + @ @ + ",
". .     . . + + . t.u.3 v.w.x.y.8     + + + . . ",
"    + + + +     . z.A.{ B.C.D.E.F.+ @ + + . .   ",
"+ + + . . . . + G.H.y I.J.K.L.M.N.@ + .     . . ",
"+ + + + + + + + O.P.Q.R.S.T.U.V.8 .     + + + + ",
". . + + + + . . W.X.Y.Z.`. +.+++    + + + . . . ",
"+ + + . . . .   . @+#+$+%+&+*+=++ + . . . . . . ",
". . . .     . + @ + -+;+>+,+'++ . . . . . . + . "};
