/* XPM */
static char * wallBR_xpm[] = {
"24 24 14 1",
" 	c #A55229",
".	c #AD7331",
"+	c #BD8C39",
"@	c #D6AD4A",
"#	c #DEBD5A",
"$	c #F7E752",
"%	c #C69C42",
"&	c #EFEFB5",
"*	c #EFD663",
"=	c #E7BD5A",
"-	c #EFF7CE",
";	c #E7E78C",
">	c #E7CE63",
",	c #E7DE73",
" .+++@.+#$$$$$$#...+%+.&",
"  ++@+@##*$$$$$#+... .=-",
"+. %+@####*$$$*##+..  -;",
"+%+.@###*$**$$$*+%.+. ;;",
"%%%%%##>$$$$$$$$#..++ ;&",
"+++%@@>$$$$$$$$$#+.++.&&",
"######@$$$$$$$$*@+.++.-;",
">$$$$>@>$$$$$$$$++..+.,,",
"$$>>$$$#$$$$$>#@%.+...=;",
"$$$#$$$#$$$$>#@@@.@+...&",
"###%>>>%>>>>#@@@%.@+...;",
"%%%%%@@.%%@#@@@@..+....;",
"%%%+.%%%.++@@@@+%%.....,",
"+++++.++++++@@%@@%+....&",
".++++....+++++@#%+.. ..-",
"........++++%@#%++... .;",
"..+@@+.@###@@%@++.....=;",
".......%@@@%%%%++.....&&",
" .......+++++++%......&-",
" ........+++++++.....-&&",
". ...... .+++++++...;;;;",
". +....   ..+++++..;;&&&",
".=;&&&&-&;........&&&&&&",
"&&&&--&;,;&---&;&&&&&&;&"};
