/* XPM */
static char * wall_top_bottom_xpm[] = {
"24 24 12 1",
" 	c #E7DE73",
".	c #EFEFB5",
"+	c #E7E78C",
"@	c #AD7331",
"#	c #E7BD5A",
"$	c #BD8C39",
"%	c #A55229",
"&	c #C69C42",
"*	c #D6AD4A",
"=	c #DEBD5A",
"-	c #E7CE63",
";	c #F7E752",
" ...++++.....+++++..++  ",
"@@# +...+       #$$@@@@@",
"@%%@##  #@@$$$$$$$$@$$$$",
"@%@@@@@@@@&***&&&&$$$$$$",
"@@@$$$$@@$**=====*&*==*$",
"$@$$$$=&@@@$$&***&$$$@@@",
"@&=====&@*===***==&***&$",
"--*----&&=-------*-;;;-*",
";;;=;;;-&-;;;;;;-=;;;-*-",
"-;;&---&-;;;;;;-=&----&*",
"===&===&=------==$==**$$",
"&===$=&@&=*****==$$&&$$@",
"@@@@$$@@&&*******&==**&@",
"@$&&@@@@@$&******&&===&@",
"@@$&@$=&@@@$$&&&$@@@@@@@",
"@@@@@@@@@@&=====**&@@@@@",
"@@$&&&$@@@&&==***==*&==&",
"$@@$$$$@@@$&&&&&&&&&$$&&",
"&%@$$$$$@@@$$$$$$$&&$$$&",
"&%%@$$$$@@@$$$$$$$$&$$$&",
"&%%%@$@@#@@@$$$$$$$$$$$$",
"$@#      #@@$$$$$$$$$$$$",
"@  ++..++     ##$$$$$@@@",
"++...+++..+   +.....+++ "};
