/* XPM */
static char * colect_xpm[] = {
"40 40 559 2",
"  	c #666666",
". 	c #696969",
"+ 	c #6A6A6A",
"@ 	c #6B6B6B",
"# 	c #6E6E6E",
"$ 	c #6C6C6C",
"% 	c #6B6B6C",
"& 	c #6B6D6D",
"* 	c #797A7A",
"= 	c #858586",
"- 	c #87898A",
"; 	c #8E8F91",
"> 	c #858688",
", 	c #8E8E8F",
"' 	c #89898B",
") 	c #858485",
"! 	c #7A797A",
"~ 	c #707070",
"{ 	c #6D6D6C",
"] 	c #6D6D6D",
"^ 	c #686868",
"/ 	c #676767",
"( 	c #6F6F6F",
"_ 	c #8E837C",
": 	c #C59074",
"< 	c #E4BFA6",
"[ 	c #E4B9A1",
"} 	c #E1C1B0",
"| 	c #DFB3A7",
"1 	c #BB9A93",
"2 	c #E7D6D5",
"3 	c #DAD5D4",
"4 	c #E2E2E1",
"5 	c #CDCBCB",
"6 	c #82807E",
"7 	c #908F8F",
"8 	c #7D7D7D",
"9 	c #656565",
"0 	c #717171",
"a 	c #727272",
"b 	c #8F8682",
"c 	c #978678",
"d 	c #B4806A",
"e 	c #D57957",
"f 	c #D67E59",
"g 	c #C78E68",
"h 	c #DAA67B",
"i 	c #E89862",
"j 	c #EEB588",
"k 	c #EDA476",
"l 	c #EBB18F",
"m 	c #F0D4C1",
"n 	c #D7BFB1",
"o 	c #F0E9E6",
"p 	c #E5E3E3",
"q 	c #888988",
"r 	c #737373",
"s 	c #767676",
"t 	c #747474",
"u 	c #757575",
"v 	c #908C8C",
"w 	c #ACA7A8",
"x 	c #E99D9E",
"y 	c #A12C2C",
"z 	c #730E0F",
"A 	c #88140F",
"B 	c #C32721",
"C 	c #DB281F",
"D 	c #A46056",
"E 	c #B08A75",
"F 	c #D49E7B",
"G 	c #E7AC82",
"H 	c #E69F70",
"I 	c #E5AD87",
"J 	c #D09E81",
"K 	c #9F9B99",
"L 	c #777777",
"M 	c #626060",
"N 	c #BEB4B7",
"O 	c #CB6C6C",
"P 	c #432B2C",
"Q 	c #4B4045",
"R 	c #916669",
"S 	c #EFA3A2",
"T 	c #D7C4C3",
"U 	c #9E9D9E",
"V 	c #919295",
"W 	c #777A7F",
"X 	c #9F9893",
"Y 	c #BB9F8E",
"Z 	c #C39371",
"` 	c #AA7B58",
" .	c #847973",
"..	c #7F7E7F",
"+.	c #D2C8D0",
"@.	c #B6373A",
"#.	c #841D1D",
"$.	c #8A2728",
"%.	c #9E2525",
"&.	c #C75859",
"*.	c #CACACC",
"=.	c #696A6C",
"-.	c #464344",
";.	c #545557",
">.	c #5F5D60",
",.	c #958E89",
"'.	c #A37757",
").	c #967767",
"!.	c #8A8889",
"~.	c #8C8D8D",
"{.	c #DED7DC",
"].	c #B23E40",
"^.	c #AF1010",
"/.	c #CC1615",
"(.	c #C10E0D",
"_.	c #AF4A4B",
":.	c #B3B5BB",
"<.	c #636569",
"[.	c #5A5B5F",
"}.	c #606167",
"|.	c #5C5A5C",
"1.	c #959293",
"2.	c #A19A98",
"3.	c #A1A0A4",
"4.	c #8D8D8F",
"5.	c #8D8D8E",
"6.	c #E3DFE1",
"7.	c #B74647",
"8.	c #B20101",
"9.	c #B80101",
"0.	c #B80302",
"a.	c #AD484B",
"b.	c #BCBFC6",
"c.	c #ABACB1",
"d.	c #8E9195",
"e.	c #76777B",
"f.	c #939599",
"g.	c #A8A9AE",
"h.	c #9EA0A3",
"i.	c #8D8E91",
"j.	c #88898A",
"k.	c #797979",
"l.	c #787878",
"m.	c #E4DEE2",
"n.	c #C44343",
"o.	c #C7100F",
"p.	c #CE0A0A",
"q.	c #CB0302",
"r.	c #AD484A",
"s.	c #B4B6BC",
"t.	c #A3A5AA",
"u.	c #A5A6AA",
"v.	c #97999D",
"w.	c #999B9F",
"x.	c #9B9C9E",
"y.	c #99999C",
"z.	c #8F8F92",
"A.	c #858585",
"B.	c #E4D5D9",
"C.	c #CC1919",
"D.	c #E03635",
"E.	c #E33130",
"F.	c #DA0D0C",
"G.	c #AE4849",
"H.	c #B5B6B9",
"I.	c #A4A5A8",
"J.	c #A7A8AB",
"K.	c #9A9DA1",
"L.	c #99999B",
"M.	c #969699",
"N.	c #858587",
"O.	c #808282",
"P.	c #D2BDC1",
"Q.	c #C60000",
"R.	c #D72120",
"S.	c #DE1A19",
"T.	c #D70604",
"U.	c #994545",
"V.	c #B0B2B8",
"W.	c #A4A6A9",
"X.	c #A6A8AD",
"Y.	c #9A9BA1",
"Z.	c #97979B",
"`.	c #949499",
" +	c #8E8E91",
".+	c #7B7B7C",
"++	c #7B7C7C",
"@+	c #957E82",
"#+	c #BD0000",
"$+	c #BC0201",
"%+	c #C00303",
"&+	c #C40403",
"*+	c #7C4243",
"=+	c #ADAFB5",
"-+	c #A4A5AA",
";+	c #A8A9AF",
">+	c #9C9FA2",
",+	c #9FA0A5",
"'+	c #96969B",
")+	c #8C8C90",
"!+	c #6E7073",
"~+	c #757576",
"{+	c #737474",
"]+	c #9E888C",
"^+	c #BF0000",
"/+	c #BF0101",
"(+	c #BD0302",
"_+	c #793F41",
":+	c #909498",
"<+	c #93959B",
"[+	c #909398",
"}+	c #8A8D93",
"|+	c #7F8287",
"1+	c #717376",
"2+	c #696B6E",
"3+	c #66696C",
"4+	c #A69E9E",
"5+	c #9E6261",
"6+	c #9E3536",
"7+	c #AC1C17",
"8+	c #B70000",
"9+	c #814D4C",
"0+	c #70777C",
"a+	c #717980",
"b+	c #6A737A",
"c+	c #6F767B",
"d+	c #666C71",
"e+	c #6D7175",
"f+	c #838484",
"g+	c #A2A0A0",
"h+	c #7A7A7A",
"i+	c #A5A4A3",
"j+	c #B2B0AE",
"k+	c #A2A68E",
"l+	c #84913E",
"m+	c #868012",
"n+	c #787433",
"o+	c #6B8B59",
"p+	c #6B8E59",
"q+	c #6A8F54",
"r+	c #6C9649",
"s+	c #7C9C5F",
"t+	c #A3AB9A",
"u+	c #B7B4B0",
"v+	c #A5A3A2",
"w+	c #7B7B7B",
"x+	c #A4A4A1",
"y+	c #95B077",
"z+	c #75AE18",
"A+	c #77AF17",
"B+	c #78AF18",
"C+	c #72AB16",
"D+	c #72A915",
"E+	c #74AD17",
"F+	c #71AE13",
"G+	c #6EAC13",
"H+	c #72AE13",
"I+	c #7FB32B",
"J+	c #A3B388",
"K+	c #A2A09E",
"L+	c #9DA298",
"M+	c #7EAA37",
"N+	c #75AD18",
"O+	c #75AB17",
"P+	c #75AC14",
"Q+	c #77AE14",
"R+	c #76AF16",
"S+	c #6FA317",
"T+	c #6CA513",
"U+	c #6FA813",
"V+	c #6CA712",
"W+	c #79AF21",
"X+	c #87B147",
"Y+	c #989B92",
"Z+	c #989E91",
"`+	c #769F30",
" @	c #70A41A",
".@	c #75AC16",
"+@	c #78AF14",
"@@	c #77AF14",
"#@	c #75AC17",
"$@	c #71A815",
"%@	c #6E9C12",
"&@	c #6E9B13",
"*@	c #759F1F",
"=@	c #7B9B40",
"-@	c #969791",
";@	c #7C7C7C",
">@	c #959B8F",
",@	c #79AE34",
"'@	c #7EAC25",
")@	c #77AB24",
"!@	c #79AE1B",
"~@	c #78AE18",
"{@	c #77AD14",
"]@	c #78AE16",
"^@	c #70A213",
"/@	c #6D9812",
"(@	c #6A9614",
"_@	c #678B20",
":@	c #738448",
"<@	c #91928D",
"[@	c #93998F",
"}@	c #74AC36",
"|@	c #6DA818",
"1@	c #6CA117",
"2@	c #769F21",
"3@	c #739B1C",
"4@	c #649812",
"5@	c #619412",
"6@	c #5D8D11",
"7@	c #578510",
"8@	c #517C12",
"9@	c #5D7B1E",
"0@	c #6C804A",
"a@	c #858783",
"b@	c #91978D",
"c@	c #8AB363",
"d@	c #A9BC9D",
"e@	c #85A868",
"f@	c #7CA04F",
"g@	c #79963A",
"h@	c #648F26",
"i@	c #628A26",
"j@	c #5E872D",
"k@	c #5E8135",
"l@	c #6B814B",
"m@	c #808870",
"n@	c #898C89",
"o@	c #828282",
"p@	c #7E7E7E",
"q@	c #8D938A",
"r@	c #85AB5C",
"s@	c #B9BBBB",
"t@	c #C2C6C6",
"u@	c #B2B9B8",
"v@	c #A8ADAB",
"w@	c #A3A8A6",
"x@	c #9EA4A0",
"y@	c #9BA09D",
"z@	c #999D9A",
"A@	c #949493",
"B@	c #909090",
"C@	c #8E8D8C",
"D@	c #878583",
"E@	c #7F7F7F",
"F@	c #87AC5B",
"G@	c #C0C1C0",
"H@	c #C4C6CA",
"I@	c #7A7D83",
"J@	c #8B8D91",
"K@	c #AAABAC",
"L@	c #959696",
"M@	c #AAAAA9",
"N@	c #9F9E9E",
"O@	c #8E8F8E",
"P@	c #928F8C",
"Q@	c #928F8E",
"R@	c #817C78",
"S@	c #8E9289",
"T@	c #8FB05D",
"U@	c #C3C6CA",
"V@	c #C4C6CC",
"W@	c #A8AAAE",
"X@	c #9A9B9F",
"Y@	c #AEAEB0",
"Z@	c #ABAAAB",
"`@	c #A4A4A4",
" #	c #A1A2A3",
".#	c #9F9B97",
"+#	c #968F87",
"@#	c #8F8C8B",
"##	c #7F7A76",
"$#	c #8C8F87",
"%#	c #95AF5E",
"&#	c #C0C6CB",
"*#	c #BDC0C8",
"=#	c #ACAFB6",
"-#	c #989A9F",
";#	c #ACAFB4",
">#	c #A7A9AE",
",#	c #929297",
"'#	c #9D9EA0",
")#	c #967857",
"!#	c #91857C",
"~#	c #8A7866",
"{#	c #7A746F",
"]#	c #8A8C85",
"^#	c #96AD60",
"/#	c #C3C8CC",
"(#	c #C2C8CF",
"_#	c #BAC0CA",
":#	c #AFB2B9",
"<#	c #A6A7AE",
"[#	c #86878D",
"}#	c #999A9F",
"|#	c #978A82",
"1#	c #926628",
"2#	c #8B6F51",
"3#	c #867A6E",
"4#	c #797674",
"5#	c #858982",
"6#	c #8CAA5A",
"7#	c #C6CACD",
"8#	c #C2C8D0",
"9#	c #B8BDC7",
"0#	c #B0B3BB",
"a#	c #9F9F9E",
"b#	c #97969A",
"c#	c #957D67",
"d#	c #997D5E",
"e#	c #937958",
"f#	c #8C8176",
"g#	c #83684D",
"h#	c #767473",
"i#	c #878983",
"j#	c #87AA57",
"k#	c #C8CCCD",
"l#	c #C4C8D0",
"m#	c #BBC0CA",
"n#	c #AEB2B9",
"o#	c #9FA09F",
"p#	c #A2968C",
"q#	c #9F948D",
"r#	c #9A9EA6",
"s#	c #938070",
"t#	c #8F765F",
"u#	c #84613D",
"v#	c #767270",
"w#	c #83857F",
"x#	c #8AA858",
"y#	c #C6CCCB",
"z#	c #C6CAD0",
"A#	c #BDC2CA",
"B#	c #B5B9C3",
"C#	c #AFB2BA",
"D#	c #A9A6A5",
"E#	c #A0A2A5",
"F#	c #9C9CA2",
"G#	c #959192",
"H#	c #8C7157",
"I#	c #7E6453",
"J#	c #73706E",
"K#	c #81847E",
"L#	c #89A65A",
"M#	c #C6CBCA",
"N#	c #C5ADA8",
"O#	c #BEB3B4",
"P#	c #B8B7BE",
"Q#	c #B2B2B8",
"R#	c #AAABB2",
"S#	c #A59F9E",
"T#	c #9C897A",
"U#	c #87664A",
"V#	c #784F2B",
"W#	c #796254",
"X#	c #777776",
"Y#	c #81837E",
"Z#	c #8AA75D",
"`#	c #C5C9C7",
" $	c #BA8470",
".$	c #6F3000",
"+$	c #874315",
"@$	c #895330",
"#$	c #7F502C",
"$$	c #714013",
"%$	c #7A4917",
"&$	c #70523D",
"*$	c #826D60",
"=$	c #7D7C7B",
"-$	c #828281",
";$	c #8DA768",
">$	c #C4CAC5",
",$	c #C0BCB9",
"'$	c #B4A69F",
")$	c #AA8F84",
"!$	c #A07F6D",
"~$	c #92796A",
"{$	c #958075",
"]$	c #998F8A",
"^$	c #7E7B78",
"/$	c #929291",
"($	c #878787",
"_$	c #808080",
":$	c #9DA98C",
"<$	c #C4C9C2",
"[$	c #C2C2C2",
"}$	c #A8A8A8",
"|$	c #9FA1A0",
"1$	c #A0A2A2",
"2$	c #919292",
"3$	c #828483",
"4$	c #8E8E8E",
"5$	c #8F8F90",
"6$	c #868686",
"7$	c #818181",
"8$	c #7D7D7C",
"9$	c #AEAEAC",
"0$	c #C7C8CA",
"a$	c #C4C5C5",
"b$	c #AFAFAF",
"c$	c #B9BBB9",
"d$	c #ABADAC",
"e$	c #ACACAC",
"f$	c #A6A7A7",
"g$	c #999997",
"h$	c #8D8D8D",
"i$	c #8C8E8D",
"j$	c #7C7D7C",
"k$	c #AEAFAE",
"l$	c #C7C7CA",
"m$	c #C5C6C5",
"n$	c #C6C6C5",
"o$	c #B5B6B5",
"p$	c #959695",
"q$	c #929292",
"r$	c #969696",
"s$	c #959595",
"t$	c #949494",
"u$	c #8C8C8C",
"v$	c #ADADAC",
"w$	c #C4C5C8",
"x$	c #C5C7C6",
"y$	c #CBCBCB",
"z$	c #9A9A9A",
"A$	c #9D9D9D",
"B$	c #999999",
"C$	c #8C8B8C",
"D$	c #979696",
"E$	c #969494",
"F$	c #ACABAB",
"G$	c #BABBBB",
"H$	c #C1C2C2",
"I$	c #C4C4C4",
"J$	c #BFBFBF",
"K$	c #B7B6B7",
"L$	c #B0B0B0",
"M$	c #A9A9A9",
"N$	c #A1A1A1",
"O$	c #989899",
"P$	c #A7A7A7",
"Q$	c #9D9C9A",
"R$	c #9F9F9F",
"S$	c #B1B0B0",
"T$	c #AFAFB0",
"U$	c #B1B0B1",
"V$	c #AAAAAC",
"W$	c #A7A7A8",
"X$	c #A4A6A6",
"Y$	c #AEAEAE",
"Z$	c #848584",
"`$	c #A09F9F",
" %	c #ADADAD",
".%	c #AAAAAA",
"+%	c #8A8A8A",
"@%	c #A6A6A6",
"#%	c #A5A5A5",
"$%	c #9C9C9C",
"%%	c #888888",
"  .   + + @ # $ $ @ + + @ % & * = - ; > , ' ) ! ~ { $ ] ] $ @ . + $ $ + + + ^ / ",
". + ^ $ ( ( # # ~ # @ + ( _ : < [ } | 1 2 3 4 5 6 7 8 # ( ( ] . @ ( # # # @ ^ 9 ",
". $ + ( # 0 0 ~ ~ a # ] b c d e f g h i j k l m n o p q a ~ a $ # ( ( ~ ] . +   ",
"+ $ @ r ~ a s t r r u 0 v w x y z A B C D E F G H I J K t a u u 0 a ~ ~ ] + . / ",
"+ $ # r 0 0 a 0 0 t L s M N O P Q R S T U V W X Y Z `  .a 0 u u r t ( # ] + + . ",
"/ @ # a r r 0 ~ r L s u ..+.@.#.$.%.&.*.=.-.;.>.,.'.).!.0 t s t u r ~ ] 0 # # ] ",
"^ $ ( r a t t 0 t u u u ~.{.].^./.(._.:.<.[.}.|.1.2.3.4.r t s t s L 0 ~ 0 ( # . ",
"@ # ~ a r r u 0 r t L u 5.6.7.8.9.0.a.b.c.d.e.f.g.h.i.j.0 r s k.l.u r r t 0 ] . ",
"] # 0 t r t s ~ 0 0 r r , m.n.o.p.q.r.s.t.u.v.w.x.y.z.A.( 0 u r s u u t r ~ ( . ",
"$ # 0 r r s s t a r t a 5.B.C.D.E.F.G.H.I.J.K.w.L.M.z.N.r r t s s L s u t 0 ~ $ ",
"$ # ~ a a r u u t r r r O.P.Q.R.S.T.U.V.W.X.K.Y.Z.`. +.+s u s u u u u t t a ~ ] ",
"@ $ ] # ( ( r r r t r a ++@+#+$+%+&+*+=+-+;+>+,+'+)+!+~+r t u r a a a t a 0 ( + ",
". ] ( 0 ( a r r t r 0 ~ {+]+^+/+(+(+_+:+<+[+}+|+1+2+3+r r u u s u t r r r 0 # + ",
"$ ~ ~ a r L u u 0 a a ( ( 4+5+6+7+8+9+0+a+b+c+d+e+f+g+t t s L u u s u t t r ( ] ",
"~ s s s l.h+8 u 0 0 0 a r i+j+k+l+m+n+o+p+q+r+s+t+u+v+r t s r r r r t t r r a a ",
"r l.l.l.l.h+w+s r u t u s x+y+z+A+B+C+D+E+F+G+H+I+J+K+r s s t a 0 a a t a s t a ",
"u L l.h+k.h+k.L L s t u L L+M+N+O+P+Q+R+S+T+U+V+W+X+Y+s l.h+s t t a t t u t s u ",
"k.k.h+h+l.k.l.L L u t t s Z+`+ @.@Q++@@@#@$@%@&@*@=@-@w+;@w+l.L u u u L L u k.L ",
"L h+s L L u u s u r r u ~+>@,@'@)@!@~@{@]@^@/@(@_@:@<@h+h+l.s t r t L l.k.k.w+L ",
"~ ( @ $ # # ] ( # # ~ ~ # [@}@|@1@2@3@4@5@6@7@8@9@0@a@t t r ~ # ] $ a s t t r ] ",
"r u # ~ a a 0 0 ~ 0 t u t b@c@d@e@f@g@h@i@j@k@l@m@n@o@p@w+w+l.L s s h+w+w+w+k.s ",
"s s 0 0 r r a t t t t s u q@r@s@t@u@v@w@x@y@z@A@B@C@D@h+h+w+h+k.h+h+E@p@E@p@w+L ",
"l.L a 0 r u s s u u u t r q@F@G@H@I@J@K@L@M@N@O@P@Q@R@l.l.w+w+;@p@8 p@w+;@;@h+l.",
"u s t a u u u u t t t r a S@T@U@V@W@X@Y@Z@`@ #.#+#@###t s l.l.k.k.h+h+l.k.l.L t ",
"a u t t t r t t 0 a t t r $#%#&#*#=#-#;#>#,#'#)#!#~#{#t t s k.h+k.;@k.L L L L r ",
"0 a r t t r L u r a r u L ]#^#/#(#_#:#<#[#}#|#1#2#3#4#u k.k.;@w+w+w+k.s t u u ~ ",
"$ ( a t t t u 0 0 t t u u 5#6#7#8#9#0#a#b#c#d#e#f#g#h#t u L h+L L u s u r a a ] ",
"@ # 0 r r a r r t t u t r i#j#k#l#m#n#o#p#q#r#s#t#u#v#r a u s s r t s u s t a @ ",
". ( ~ a a 0 r t u t t t s w#x#y#z#A#B#C#D#E#F#G#H#I#J#r r u u t u u u u t t a ] ",
"] ~ 0 t a r a u s s u t L K#L#M#N#O#P#Q#R#S#T#U#V#W#X#u t t u L u u t r r r 0 ] ",
"$ ~ ~ a a a r u L L s t s Y#Z#`# $.$+$@$#$$$%$&$*$=$L u r a r u u a a a r r a # ",
". ( ~ a a r s L k.w+L u s -$;$>$,$'$)$!$~${$]$^$/$($l.s t r u u s s u t t r r # ",
". # 0 r t l.w+w+;@w+l.s t _$:$<$[$}$|$1$2$3$4$5$6$7$s t u u s s u t u t u t u ~ ",
". # ~ a r L k.L L u L a 0 8$9$0$a$b$c$d$e$f$g$h$i$A.t t t r L r 0 a a r t a r # ",
"] ( 0 r t u u t r r r a r j$k$l$m$n$o$p$q$r$s$o@t$u$u r u L L s u r r r t r r ( ",
"+ $ ( r r u t r a u u t t 8 v$w$x$y$b$z$A$B$C$z$D$E$s L k.k.h+s u r t s s s r # ",
". @ ] ~ t t t t r u u t t ;@F$G$H$I$J$K$L$M$N$O$P$Q$h+8 w+;@w+k.L s s s l.t 0 $ ",
"/ @ @ ~ a r t a ( r a r a s R$S$T$U$Y@V$W$X$W$Y$Y$Z$h+w+k.k.l.u t r r u t ( # + ",
"9 + ] ( 0 a r ( ] ( ~ ~ ~ ~ u `$ %b$b$b$b$b$b$.%+%s l.l.l.l.s s 0 a 0 0 ~ + + ^ ",
"/ ^ @ $ ] # # @ @ $ $ ] # $ + ] E@t$N$@%#%$%%%L ] ( a a 0 a 0 ( ( # $ @ @ . +   "};
