/* XPM */
static char * enemy_xpm[] = {
"40 40 781 2",
"  	c #666666",
". 	c #696969",
"+ 	c #6A6A6A",
"@ 	c #6B6B6B",
"# 	c #6E6E6E",
"$ 	c #6C6C6C",
"% 	c #676767",
"& 	c #5A5A5B",
"* 	c #444444",
"= 	c #414142",
"- 	c #575858",
"; 	c #686868",
"> 	c #6D6D6D",
", 	c #6F6F6F",
"' 	c #707070",
") 	c #525251",
"! 	c #5E5344",
"~ 	c #70614E",
"{ 	c #746555",
"] 	c #64594C",
"^ 	c #504F4D",
"/ 	c #656565",
"( 	c #717171",
"_ 	c #727272",
": 	c #5B5752",
"< 	c #776D64",
"[ 	c #73655D",
"} 	c #7F6E64",
"| 	c #6E6056",
"1 	c #58524A",
"2 	c #6A6A69",
"3 	c #737373",
"4 	c #767676",
"5 	c #747474",
"6 	c #757575",
"7 	c #6F6E6E",
"8 	c #4C433E",
"9 	c #4F4440",
"0 	c #57453C",
"a 	c #725F52",
"b 	c #6C594E",
"c 	c #61544A",
"d 	c #6B6866",
"e 	c #4B3D36",
"f 	c #5B463E",
"g 	c #51433B",
"h 	c #584A41",
"i 	c #5F534A",
"j 	c #483D35",
"k 	c #655F5B",
"l 	c #777777",
"m 	c #646465",
"n 	c #656566",
"o 	c #626264",
"p 	c #585857",
"q 	c #514942",
"r 	c #473B35",
"s 	c #5C5048",
"t 	c #595149",
"u 	c #534A43",
"v 	c #675F55",
"w 	c #6F6961",
"x 	c #757473",
"y 	c #6E6E6F",
"z 	c #6F6F70",
"A 	c #4B4D4F",
"B 	c #3A3A3E",
"C 	c #343438",
"D 	c #333439",
"E 	c #2B2B2E",
"F 	c #3D3A37",
"G 	c #5B544D",
"H 	c #756D65",
"I 	c #776F68",
"J 	c #635B56",
"K 	c #68615B",
"L 	c #837C73",
"M 	c #7D7770",
"N 	c #4A4A4B",
"O 	c #404144",
"P 	c #414247",
"Q 	c #494A4D",
"R 	c #59595A",
"S 	c #28282C",
"T 	c #2E3136",
"U 	c #2F3137",
"V 	c #2B2D32",
"W 	c #282728",
"X 	c #272523",
"Y 	c #403935",
"Z 	c #625A54",
"` 	c #635B5A",
" .	c #564D4B",
"..	c #67615C",
"+.	c #736E6A",
"@.	c #736C65",
"#.	c #6B645D",
"$.	c #3E3B3A",
"%.	c #2E2E30",
"&.	c #333336",
"*.	c #3A393B",
"=.	c #3D3D41",
"-.	c #747475",
";.	c #797979",
">.	c #787878",
",.	c #606060",
"'.	c #282727",
").	c #262628",
"!.	c #2E3137",
"~.	c #2E2F35",
"{.	c #3A393A",
"].	c #343333",
"^.	c #282627",
"/.	c #272322",
"(.	c #2B211E",
"_.	c #251B18",
":.	c #372F2A",
"<.	c #514A45",
"[.	c #615A58",
"}.	c #584F49",
"|.	c #49413C",
"1.	c #2D2B2C",
"2.	c #2D2C2D",
"3.	c #2E2D2D",
"4.	c #363432",
"5.	c #323130",
"6.	c #2D2C2C",
"7.	c #1D1C1D",
"8.	c #292C31",
"9.	c #2F323B",
"0.	c #2E2F37",
"a.	c #2D2E34",
"b.	c #2E2F31",
"c.	c #303030",
"d.	c #282525",
"e.	c #211D1D",
"f.	c #1C1918",
"g.	c #1C1917",
"h.	c #231C19",
"i.	c #2B221E",
"j.	c #29211E",
"k.	c #272323",
"l.	c #252525",
"m.	c #2C2C2F",
"n.	c #2F2F32",
"o.	c #2F2B29",
"p.	c #2F2C28",
"q.	c #3C3B3A",
"r.	c #444443",
"s.	c #1D1A18",
"t.	c #212328",
"u.	c #292D35",
"v.	c #2A2E37",
"w.	c #292C33",
"x.	c #32343B",
"y.	c #36373C",
"z.	c #2B2C2E",
"A.	c #242123",
"B.	c #22201F",
"C.	c #262322",
"D.	c #252221",
"E.	c #1F1E1E",
"F.	c #211F21",
"G.	c #2C2B2D",
"H.	c #302E31",
"I.	c #2A292A",
"J.	c #2B2E33",
"K.	c #28282B",
"L.	c #2A2522",
"M.	c #2C2825",
"N.	c #403F3F",
"O.	c #615F5A",
"P.	c #383026",
"Q.	c #1D1A1A",
"R.	c #20242D",
"S.	c #23262D",
"T.	c #21242A",
"U.	c #222328",
"V.	c #28292E",
"W.	c #2C2E32",
"X.	c #29282B",
"Y.	c #292727",
"Z.	c #282526",
"`.	c #272422",
" +	c #2C2725",
".+	c #222122",
"++	c #29292B",
"@+	c #47464C",
"#+	c #3B3A3E",
"$+	c #26272A",
"%+	c #24252B",
"&+	c #24262C",
"*+	c #222124",
"=+	c #2B2624",
"-+	c #262323",
";+	c #515150",
">+	c #615C59",
",+	c #50483E",
"'+	c #4E4333",
")+	c #393127",
"!+	c #15171D",
"~+	c #181B20",
"{+	c #1E1F24",
"]+	c #2E2A2B",
"^+	c #3D3735",
"/+	c #483E3B",
"(+	c #534844",
"_+	c #5D5049",
":+	c #60544D",
"<+	c #61544C",
"[+	c #62544E",
"}+	c #5C4F49",
"|+	c #50443F",
"1+	c #473B37",
"2+	c #352E2C",
"3+	c #2B292B",
"4+	c #202226",
"5+	c #1B1B20",
"6+	c #191A20",
"7+	c #1C1D22",
"8+	c #2B2623",
"9+	c #453F36",
"0+	c #595146",
"a+	c #615952",
"b+	c #71706F",
"c+	c #6F6C6B",
"d+	c #635855",
"e+	c #5C4E47",
"f+	c #514740",
"g+	c #453B34",
"h+	c #342B23",
"i+	c #292728",
"j+	c #4C4541",
"k+	c #554740",
"l+	c #655449",
"m+	c #736256",
"n+	c #79665B",
"o+	c #77665C",
"p+	c #7D6C61",
"q+	c #837368",
"r+	c #87766C",
"s+	c #87786D",
"t+	c #86766C",
"u+	c #7F6F65",
"v+	c #736359",
"w+	c #685A51",
"x+	c #64564C",
"y+	c #524740",
"z+	c #3A3431",
"A+	c #262426",
"B+	c #1B1919",
"C+	c #3B332A",
"D+	c #4C4238",
"E+	c #4E4237",
"F+	c #5C4F44",
"G+	c #63554D",
"H+	c #6F6D6D",
"I+	c #6B6A68",
"J+	c #554A47",
"K+	c #4E3D3A",
"L+	c #686061",
"M+	c #636060",
"N+	c #46413D",
"O+	c #362C27",
"P+	c #4C413A",
"Q+	c #63574E",
"R+	c #625147",
"S+	c #735F51",
"T+	c #766255",
"U+	c #7A675C",
"V+	c #827065",
"W+	c #88796F",
"X+	c #8D7D73",
"Y+	c #8F8077",
"Z+	c #8B7D73",
"`+	c #857469",
" @	c #7F7064",
".@	c #7B6B5F",
"+@	c #756457",
"@@	c #6B5D50",
"#@	c #615348",
"$@	c #4D463C",
"%@	c #302F2C",
"&@	c #29211D",
"*@	c #443831",
"=@	c #594F47",
"-@	c #61574C",
";@	c #65564B",
">@	c #5F4E47",
",@	c #696461",
"'@	c #787979",
")@	c #5B5654",
"!@	c #41312E",
"~@	c #5C5153",
"{@	c #625D60",
"]@	c #494742",
"^@	c #3E3A33",
"/@	c #4A3C34",
"(@	c #4D413B",
"_@	c #5B4D45",
":@	c #6A5649",
"<@	c #736254",
"[@	c #7A695B",
"}@	c #7B6A5F",
"|@	c #827368",
"1@	c #897A70",
"2@	c #89796E",
"3@	c #8A7C73",
"4@	c #887A72",
"5@	c #84766C",
"6@	c #817065",
"7@	c #807265",
"8@	c #796B5F",
"9@	c #726356",
"0@	c #6C5E51",
"a@	c #655548",
"b@	c #55483D",
"c@	c #4C463C",
"d@	c #3D3830",
"e@	c #352E26",
"f@	c #4F463E",
"g@	c #62574F",
"h@	c #69584D",
"i@	c #5F4A42",
"j@	c #544843",
"k@	c #737272",
"l@	c #57504E",
"m@	c #504341",
"n@	c #5C5658",
"o@	c #383430",
"p@	c #373531",
"q@	c #484037",
"r@	c #54443C",
"s@	c #54463E",
"t@	c #66594F",
"u@	c #66584C",
"v@	c #706153",
"w@	c #736357",
"x@	c #776558",
"y@	c #806F64",
"z@	c #847368",
"A@	c #817266",
"B@	c #82756C",
"C@	c #796D63",
"D@	c #776B60",
"E@	c #7C6D62",
"F@	c #7B6E62",
"G@	c #776B5F",
"H@	c #706456",
"I@	c #6D5F52",
"J@	c #6A5A4D",
"K@	c #625144",
"L@	c #574A3E",
"M@	c #554A3F",
"N@	c #2E261F",
"O@	c #35271E",
"P@	c #493A33",
"Q@	c #6B5E5A",
"R@	c #564037",
"S@	c #53443E",
"T@	c #696664",
"U@	c #564E49",
"V@	c #575151",
"W@	c #3C3836",
"X@	c #494746",
"Y@	c #6A6868",
"Z@	c #4D453D",
"`@	c #53463E",
" #	c #50443B",
".#	c #5D5349",
"+#	c #62584B",
"@#	c #665B4D",
"##	c #706355",
"$#	c #756559",
"%#	c #77685C",
"&#	c #796960",
"*#	c #7E6D64",
"=#	c #7D7168",
"-#	c #73665E",
";#	c #71675F",
">#	c #756A61",
",#	c #72675E",
"'#	c #70655B",
")#	c #6C6156",
"!#	c #665A50",
"~#	c #62554B",
"{#	c #594A41",
"]#	c #493D34",
"^#	c #4D443B",
"/#	c #48433F",
"(#	c #30261D",
"_#	c #34241E",
":#	c #5F5252",
"<#	c #51403B",
"[#	c #50433F",
"}#	c #595553",
"|#	c #747271",
"1#	c #53443C",
"2#	c #594B43",
"3#	c #453C36",
"4#	c #717170",
"5#	c #646362",
"6#	c #3F3832",
"7#	c #493E39",
"8#	c #493F38",
"9#	c #5B4F46",
"0#	c #655A4E",
"a#	c #5E5449",
"b#	c #675C50",
"c#	c #716356",
"d#	c #6B5F53",
"e#	c #6B5D52",
"f#	c #6E6158",
"g#	c #71635B",
"h#	c #675C59",
"i#	c #615854",
"j#	c #665E59",
"k#	c #665F57",
"l#	c #615852",
"m#	c #594D46",
"n#	c #51433E",
"o#	c #50423D",
"p#	c #413732",
"q#	c #3D342E",
"r#	c #666463",
"s#	c #636261",
"t#	c #3B3533",
"u#	c #463A36",
"v#	c #615554",
"w#	c #4A3C37",
"x#	c #4E4340",
"y#	c #595352",
"z#	c #757474",
"A#	c #59514E",
"B#	c #564947",
"C#	c #5D5855",
"D#	c #5C5B5B",
"E#	c #2F2A27",
"F#	c #423C38",
"G#	c #4C4440",
"H#	c #50443E",
"I#	c #5C4E46",
"J#	c #574D45",
"K#	c #5D534A",
"L#	c #605348",
"M#	c #60534B",
"N#	c #64564F",
"O#	c #65564E",
"P#	c #655653",
"Q#	c #6B5F5F",
"R#	c #655E5D",
"S#	c #605C5A",
"T#	c #66625D",
"U#	c #5E5753",
"V#	c #584F4C",
"W#	c #5B4E4B",
"X#	c #504643",
"Y#	c #57504D",
"Z#	c #504945",
"`#	c #362B26",
" $	c #454240",
".$	c #3F3934",
"+$	c #534640",
"@$	c #473933",
"#$	c #3F3534",
"$$	c #666565",
"%$	c #737474",
"&$	c #625C5A",
"*$	c #564B48",
"=$	c #64615F",
"-$	c #6E6D6D",
";$	c #50504F",
">$	c #241E1C",
",$	c #44403D",
"'$	c #585450",
")$	c #504641",
"!$	c #534643",
"~$	c #524D48",
"{$	c #5B4F45",
"]$	c #5F5045",
"^$	c #554441",
"/$	c #574A4C",
"($	c #5A4E4E",
"_$	c #5E5455",
":$	c #5F5858",
"<$	c #615C5A",
"[$	c #56514E",
"}$	c #504644",
"|$	c #4E403E",
"1$	c #493E3C",
"2$	c #54504D",
"3$	c #54504E",
"4$	c #2F2825",
"5$	c #2D2B2A",
"6$	c #696867",
"7$	c #50413D",
"8$	c #41332E",
"9$	c #4F3D39",
"0$	c #676564",
"a$	c #605E5D",
"b$	c #363534",
"c$	c #1C1716",
"d$	c #2D2828",
"e$	c #453F3D",
"f$	c #413430",
"g$	c #463733",
"h$	c #4B403C",
"i$	c #4D4842",
"j$	c #4F443C",
"k$	c #5D4C45",
"l$	c #443634",
"m$	c #5D5453",
"n$	c #443836",
"o$	c #483C3C",
"p$	c #554944",
"q$	c #4F4643",
"r$	c #504645",
"s$	c #4B4143",
"t$	c #403534",
"u$	c #3C3736",
"v$	c #221A18",
"w$	c #2B2A28",
"x$	c #7C7C7B",
"y$	c #7A7A7A",
"z$	c #7E7E7E",
"A$	c #6D6A69",
"B$	c #4F433F",
"C$	c #5C514E",
"D$	c #181411",
"E$	c #1A1614",
"F$	c #1E1715",
"G$	c #251918",
"H$	c #332522",
"I$	c #3E302B",
"J$	c #3D332F",
"K$	c #3F3B38",
"L$	c #3E3B38",
"M$	c #453932",
"N$	c #503C36",
"O$	c #332828",
"P$	c #4A494B",
"Q$	c #545456",
"R$	c #413F3F",
"S$	c #3F302E",
"T$	c #392922",
"U$	c #43332E",
"V$	c #4A3A36",
"W$	c #3C2D2C",
"X$	c #352A28",
"Y$	c #302827",
"Z$	c #271E1D",
"`$	c #1C1513",
" %	c #2C2B2A",
".%	c #807F7F",
"+%	c #7D7D7D",
"@%	c #696767",
"#%	c #777676",
"$%	c #616060",
"%%	c #191615",
"&%	c #1D1B1B",
"*%	c #211F1E",
"=%	c #1F1615",
"-%	c #221917",
";%	c #2F2523",
">%	c #352927",
",%	c #373332",
"'%	c #373130",
")%	c #392D25",
"!%	c #3B2620",
"~%	c #362F31",
"{%	c #2F2D2E",
"]%	c #373436",
"^%	c #2F2A2D",
"/%	c #342C2C",
"(%	c #362923",
"_%	c #38271F",
":%	c #372823",
"<%	c #2F211F",
"[%	c #251815",
"}%	c #211715",
"|%	c #1B1715",
"1%	c #302E2E",
"2%	c #595959",
"3%	c #191513",
"4%	c #191616",
"5%	c #1F1C1C",
"6%	c #1E1A19",
"7%	c #231916",
"8%	c #2F2320",
"9%	c #342E2D",
"0%	c #342D2A",
"a%	c #33251F",
"b%	c #341F15",
"c%	c #37231D",
"d%	c #2C2525",
"e%	c #312E30",
"f%	c #30292A",
"g%	c #2C221E",
"h%	c #2D2621",
"i%	c #2C2420",
"j%	c #2F2826",
"k%	c #2A2320",
"l%	c #1D1514",
"m%	c #1C1815",
"n%	c #1A1513",
"o%	c #525252",
"p%	c #7C7C7C",
"q%	c #626261",
"r%	c #171514",
"s%	c #1A1715",
"t%	c #1A1514",
"u%	c #201A19",
"v%	c #1C1713",
"w%	c #1C1512",
"x%	c #201512",
"y%	c #27211F",
"z%	c #2B231F",
"A%	c #2F2016",
"B%	c #301F14",
"C%	c #2A1910",
"D%	c #241711",
"E%	c #211714",
"F%	c #291F19",
"G%	c #291D15",
"H%	c #2C231D",
"I%	c #28201E",
"J%	c #261F1C",
"K%	c #1D1615",
"L%	c #1B1613",
"M%	c #181310",
"N%	c #161210",
"O%	c #7B7B7B",
"P%	c #565656",
"Q%	c #181614",
"R%	c #1C1A19",
"S%	c #181514",
"T%	c #1C1715",
"U%	c #1E1B18",
"V%	c #1E1917",
"W%	c #191411",
"X%	c #1C1412",
"Y%	c #261A12",
"Z%	c #281A0F",
"`%	c #281A11",
" &	c #231812",
".&	c #241A17",
"+&	c #1F1510",
"@&	c #221711",
"#&	c #231712",
"$&	c #201511",
"%&	c #1C1613",
"&&	c #181412",
"*&	c #292625",
"=&	c #373636",
"-&	c #1F1C1A",
";&	c #181512",
">&	c #1D1816",
",&	c #1F1B19",
"'&	c #211C19",
")&	c #201C19",
"!&	c #1D1815",
"~&	c #1B1410",
"{&	c #1F130E",
"]&	c #19110D",
"^&	c #19110C",
"/&	c #1A100C",
"(&	c #1B130F",
"_&	c #19120E",
":&	c #201B19",
"<&	c #1A1613",
"[&	c #1E1A18",
"}&	c #32302F",
"|&	c #454443",
"1&	c #211E1C",
"2&	c #15120E",
"3&	c #201B1A",
"4&	c #201C1A",
"5&	c #1D1B19",
"6&	c #1B1614",
"7&	c #1B1612",
"8&	c #1C1714",
"9&	c #1B1714",
"0&	c #1E1A17",
"a&	c #1D1917",
"b&	c #4C4B4A",
"c&	c #504F4F",
"d&	c #1A1816",
"e&	c #211D1B",
"f&	c #1A1512",
"g&	c #16110E",
"h&	c #14100C",
"i&	c #171211",
"j&	c #181513",
"k&	c #191412",
"l&	c #171210",
"m&	c #181311",
"n&	c #191512",
"o&	c #1B1512",
"p&	c #16120F",
"q&	c #1C1816",
"r&	c #1F1B18",
"s&	c #6C6B6B",
"t&	c #666665",
"u&	c #100C08",
"v&	c #1E1816",
"w&	c #15110F",
"x&	c #120E0C",
"y&	c #110D0A",
"z&	c #110C0A",
"A&	c #2E2D2C",
"B&	c #424241",
"C&	c #4D4D4C",
"D&	c #302F2E",
"E&	c #100906",
"F&	c #120D0B",
"G&	c #120E0B",
"H&	c #15110D",
"I&	c #1B1513",
"J&	c #414040",
"K&	c #676666",
"L&	c #17110D",
"M&	c #15100E",
"N&	c #14100D",
"O&	c #15110E",
"P&	c #4E4E4D",
"Q&	c #403E3E",
"R&	c #120C0A",
"S&	c #15100D",
"T&	c #1C1915",
"U&	c #191310",
"V&	c #454545",
"W&	c #656564",
"X&	c #14100F",
"Y&	c #120F0D",
"Z&	c #191614",
"`&	c #5F5F5E",
" *	c #2E2C2B",
".*	c #130F0C",
"+*	c #150F0C",
"@*	c #535252",
"#*	c #1A1511",
"$*	c #282726",
"%*	c #515050",
"&*	c #6E6E6D",
"**	c #333231",
"=*	c #14100E",
"-*	c #1F1A17",
";*	c #1F1C19",
">*	c #646363",
",*	c #2F2E2D",
"'*	c #252322",
")*	c #1B1816",
"!*	c #120F0E",
"~*	c #5B5B5A",
"{*	c #292726",
"]*	c #171311",
"^*	c #2F2D2C",
"/*	c #3F3F3F",
"(*	c #363535",
"_*	c #232323",
":*	c #3B3B3B",
"<*	c #232120",
"[*	c #1F1D1B",
"}*	c #242321",
"|*	c #201D1C",
"1*	c #646463",
"2*	c #3A3937",
"3*	c #323030",
"4*	c #312F2E",
"5*	c #646464",
"6*	c #383737",
"7*	c #252624",
"8*	c #323232",
"9*	c #373737",
"0*	c #595858",
"a*	c #515151",
"b*	c #5E5E5E",
"c*	c #211F1F",
"d*	c #323031",
"e*	c #4C4C4C",
"f*	c #373535",
"  .   + + @ # $ $ @ + + @ @ @ @ $ % & * = -   ; + . $ > > $ @ . + $ $ + + + ; % ",
". + ; $ , , # # ' # @ + # , # # , ) ! ~ { ] ^ + $ # # > , , > . @ , # # # @ ; / ",
". $ + , # ( ( ' ' _ # > # ' ( ' ' : < [ } | 1 2 # # 3 ' _ ' _ $ # , , ' > . +   ",
"+ $ @ 3 ' _ 4 5 3 3 6 ( 3 ' ' ' 7 8 9 0 a b c d 5 ' _ 4 3 _ 6 6 ( _ ' ' > + . % ",
"+ $ # 3 ( ( _ ( ( 5 4 5 5 ' # ' ' e f g h i j k 6 ( _ ( ' ( 6 6 3 5 , # > + + . ",
"% @ # _ 3 3 ( ' 3 l 4 6 ' m n o p q r s t u v w x 5 3 y ' 6 4 5 6 3 ' > ( # # > ",
"; $ , 3 _ 5 5 ( 5 6 z A B C D E F G H I J K H L M N O P Q @ 4 5 4 l ( ' ( , # . ",
"@ # ' _ 3 3 6 ( 3 5 R S T U V W X Y Z `  ...+.@.#.$.%.&.*.=.-.;.>.6 3 3 5 ( > . ",
"> # ( 5 3 5 4 ' ( ,.'.).!.~.{.].^./.(._.:.<.[.}.|.1.2.3.4.5.. 3 4 6 6 5 3 ' , . ",
"$ # ( 3 3 4 4 5 + 6.7.8.9.0.a.b.c.d.e.f.g.h.i.j.k.l.m.n.o.p.q.( 4 l 4 6 5 ( ' $ ",
"$ # ' _ _ 3 6 5 r.s.t.u.v.w.x.y.z.A.B.C.D.E.F.G.H.I.E J.K.L.M.N.5 6 6 5 5 _ ' > ",
"@ $ > # , , 3 O.P.Q.R.S.T.U.V.W.X.Y.Z.C.`. +.+++@+#+$+%+&+*+=+-+;+( _ 5 _ ( , + ",
". > , ( , ( >+,+'+)+!+~+{+]+^+/+(+_+:+<+[+}+|+1+2+3+4+5+6+7+8+9+0+a+b+3 3 ( # + ",
"$ ' ' ( c+d+e+f+g+h+i+j+k+l+m+n+o+p+q+r+s+t+u+v+w+x+y+z+A+B+C+D+E+F+G+H+5 3 , > ",
"' 4 4 I+J+K+L+M+N+O+P+Q+R+S+T+U+V+W+X+Y+Z+X+`+ @.@+@@@#@$@%@&@*@=@-@;@>@,@3 _ _ ",
"3 >.'@)@!@~@{@]@^@/@(@_@:@<@[@}@|@1@2@3@4@5@6@7@8@9@0@a@b@c@d@e@f@g@h@i@j@k@5 _ ",
"6 l >.l@m@n@o@p@q@r@s@t@u@v@w@x@y@z@A@B@C@D@E@F@G@H@I@J@K@L@M@N@O@P@Q@R@S@T@4 6 ",
";.;.T@U@V@W@X@Y@Z@`@ #.#+#@###$#%#&#*#=#-#;#>#,#'#)#!#~#{#]#^#/#(#_#:#<#[#}#>.l ",
"l |#1#2#3#4#5 5#6#7#8#9#0#a#b#c#d#e#f#g#h#i#j#k#k#l#m#n#o#p#q#r#s#t#u#v#w#x#y#z#",
"' A#B#|+C## > D#E#F#G#H#I#J#K#L#M#N#O#P#Q#R#S#T#U#V#W#X#Y#Z#`# $# % .$+$/@@$#$$$",
"%$&$*$=$-$_ ( ;$>$,$'$)$!$~$t {$]$R+^$/$($_$:$<$[$}$|$1$2$3$4$5$>.4 6$7$8$9$0$4 ",
"4 4 a$7 3 3 ( b$c$d$e$f$g$h$i$i$j$k$l$m$i#n$o$p$q$r$s$t$t#u$v$w$x$y$z$A$B$C$y$l ",
">.l _ _ 3 6 ' D$E$F$G$H$I$J$K$L$M$N$O$P$Q$R$S$T$U$V$W$X$Y$Z$`$ %.%+%z$@%<$#%y$>.",
"6 4 5 _ 6 6 $%%%&%*%=%-%;%>%,%'%)%!%~%{%]%^%/%(%_%:%<%[%}%F$|%1%y$y$y$l ;.>.l 5 ",
"_ 6 5 5 5 5 2%3%4%5%6%`$7%8%9%0%a%b%c%d%e%f%g%h%i%j%k%l%`$m%n%o%y$p%;.l l l l 3 ",
"( _ 3 5 5 5 q%r%s%t%u%v%w%x%y%z%A%B%C%D%E%F%G%H%I%J%K%L%M%N%3%' O%O%;.4 5 6 6 ' ",
"$ , _ 5 5 5 P%Q%R%S%T%U%V%W%X%-%Y%Z%`% &.&+&@&#&$&%&V%c$D$&&*&( l 6 4 6 3 _ _ > ",
"@ # ( 3 3 3 =&&%-&f.;&>&,&'&)&!&~&+&{&]&^&/&(&_&F$:&,&<&V%[&}&( 3 5 4 6 4 5 _ @ ",
". , ' _ _ _ |&R%1&[&D$2&E$3&4&5&s.|%t%6&7&8&m%9&0&[&|%a&3&,&b&5 6 6 6 6 5 5 _ > ",
"> ' ( 5 _ 3 c&d&e&'&f&g&h&i&D$j&;&k&D$l&M%m&n&o&D$p&9&q&U%r&s&l 6 6 5 3 3 3 ( > ",
"$ ' ' _ _ 3 t&u&9&v&v&t%w&x&y&z&A&B&C&D&E&F&G&H&M%W%!&k&I&J&5 6 6 _ _ _ 3 3 _ # ",
". , ' _ _ 5 K&L&M&N&m&n&3%O&&&P&, 3 6 $ Q&R&S&k&L%T&D$U&N%V&6 6 4 4 6 5 5 3 3 # ",
". # ( 3 5 >.W&o&7&N%X&Y&N&Z&`&5 _ 6 5 > #  *.*+*+*S&O&k&n%@*4 4 6 5 6 5 6 5 6 ' ",
". # ' _ 3 l @ #*q&k&w&f.$*%*_ 3 6 6 4 > 3 &***O&=*p&9&-*;*>*l 3 ( _ _ 3 5 _ 3 # ",
"> , ( 3 5 6   ,*'*)*!*~*, 3 4 l >.>.4 ' 4 6 ' {*]*q&[&,&^*_ l 4 6 3 3 3 5 3 3 , ",
"+ $ , 3 5 + /*(*3._*:*' 5 6 l >.l l 6 , l 6 3 > <*[*}*|*1*;.y$4 6 3 5 4 4 4 3 # ",
". @ > ' $ 2*3*4* %5*( 5 5 6 l l ;.l 5 # 6 6 5 , 6*7*8*9*5*p%O%;.l 4 4 4 >.5 ( $ ",
"% @ @ ' > 0*a*) b*3 _ 3 _ 3 3 5 6 3 3 # 6 6 6 6 @ c*d*9*e*l >.6 5 3 3 6 5 , # + ",
"/ + > , ( _ _ , > , ' ' ' ' ' , _ _ 6 ' 4 ' ( _ # Q&b$f*J&_ 4 4 ( _ ( ( ' + + ; ",
"% ; @ $ > # # @ @ $ $ > # $ + @ @ @ > % # @ + $ > # ; ; @ ( ( , , # $ @ @ . +   "};
