/* XPM */
static char * floor_xpm[] = {
"64 64 31 1",
" 	c #626262",
".	c #6A6A6A",
"+	c #696969",
"@	c #656565",
"#	c #666666",
"$	c #686868",
"%	c #6B6B6B",
"&	c #6D6D6D",
"*	c #6C6C6C",
"=	c #636363",
"-	c #676767",
";	c #727272",
">	c #717171",
",	c #707070",
"'	c #6E6E6E",
")	c #6F6F6F",
"!	c #737373",
"~	c #747474",
"{	c #646464",
"]	c #767676",
"^	c #777777",
"/	c #787878",
"(	c #757575",
"_	c #797979",
":	c #7B7B7B",
"<	c #7E7E7E",
"[	c #7A7A7A",
"}	c #7D7D7D",
"|	c #7C7C7C",
"1	c #7F7F7F",
"2	c #808080",
" .+@#++$+%&.....+++.....++%++%*=--.+$#+$$$%&.%.%%+$+$.%%$++%-$--",
"$&+-.*&&&&;>,,'**%%')&)'))'')>;+,)*&$.&&*''!,>),&&.%&,&,',&*%+$#",
"++%#+&.>,''&),&'%+.&),''&)),>!~*;)'&+.&*')''%')''%$.*)'')*'*.$-{",
"#%..#&*'>'')>,';&.*&',)>)'),;~!*~,)'&+&*',,&&>));).+'')',)%%#$+{",
"+*'*%>)'>]!);,>!>))'>,>;,;!,!!;*;;~;''>)')^~>!,>!,',),,,;))*+%*@",
".**%*!>);;/(!~,(]!,!;),,,,,>;>;&(~(~!)~!)>;/~!~;(((,>!),>)&%$+%@",
"$&&*&~~,>;~;~>>!]/~]!>,'>>;;(~~*]]]^(;(],;;!;!;>;]_~~~>>)>&*$-+$",
"+*%))!;,>>;>,>>^/;~;~,*',,>~(^^)](^/^~~~,;;;,);>(/!!!~;*&)*..%%+",
"#.%&'>!!!;;,,!]/^~]!(;',>;!~((])___/]~]~(!!>,,;(]/~^~~!)&)>''')&",
"#%%)'!,;~;),';](]>!;>,),>;;!!!~&^^:__(]!~~~)),,^(]!;!;,)*,>&'').",
"-.*',~>;(!(>;~!](~(]]!,),>;,,;!&/_:<[_/(!(!]!;;~](!(//~,)!,>&'&-",
".&',,>;~~(^!>~~(^/(((;)>;;!,,,!&_[<}[/^(]((^~,~~(^[__^(;!!(~,'%$",
"%&&>)!,~;!!!';;!^]~!~;!;;;>>~!~&::}}__^(](~~~'>;(/^/^~~!!~!,)*&#",
"%,&'~(;~!]]),>,>!;!((](!>(;>!;~,[_:/^^](((](>';>~^;(^(!]~;!>',&-",
"%)))!;!(]](!;>>!~!;~!!!!,!]~!~(,___(~~(!]]^(~;>>!]~(^^]((~!;')'-",
"%'&,;!!!]]]]!;;!~]>~~((,,;~~]~~,|:_],!~~~]^]]~;~~(^](/]]]~~;,,,%",
"*'',;!;!~!](]~!;~!!(^(~;;>;>>;!)[/^(;,;~;~](]]((((]]](]](((!>>>&",
"$)&&*),,>;~!!~!(!!!!]((^!;!;;;!)///](!]~]((~!](~_(!~;!!;;!!>>))#",
".'*&'&))',~(;;~~!!;!!~^~^!;;,!()/]^^](~]^](!(!;(((!;>;!>~(;>,,&+",
"-*%*>,*'>;!~;~!~>;,;>;~~!(~!>>~'^(~(~~~~~!]!~;~(](]~!;!;>!!,,'&$",
"$*)',!;>;~!~;~!;;,,));~(;~(~;(('^]]~!!~]]]^(;!(](]]^]((!~~!;>')+",
"+,)))>;!/]!/>>;!!>')>;!~;(~(,;~'_](!;;;;((]](~(]/](~]]](~!(~;))%",
"',]~!~!]^_[|,>>>;~;,!!~!(]]~>;;%]~~~!!>)!~((](^(!~~!~!;!~;~~(>;>",
"'(]/]]/__<1[,>>>,;;~^(!_^^^]!;>*^~~(!!;,,;]~;!/]~;;;!!!(~~!;!;!;",
",^//^]^^_|:/!>]~!~~]^/[|:[/_(!!']~((^~>>;;!~!(](!!,);;;;~!>~^~]>",
";[/[/:[[::[_](]^](^/[}}:[[_/](()^^]((^!!!!!((_/^]](~;;!!~~!(]~]'",
"!_]^_[/_[:/^]^]]~~(]_[:_^_/(]]];]!(!!~!(!~^]/^[[](~~!;~((!(!~][~",
"]|/:|://[__^^/^(~(~]/_[:_/]]~~(,]~>;!~!(]/[[:||[]_]((~]!]^^(]_:^",
"/|/_^__^/^^]/^]~!!((/[/__/](~!]&](!>;((^[<|:||||__]](((^/]/(]/_~",
"([:/]^^^]~((^];~;~((^^^^/^]](]^'/^(](((^:}:_:[_^^(~~;~^//^__[::]",
"]}/!!~!~!(!]^!;!((]~((~~]](]]]^,/](]^^^/_::_[_/^(!!;>>(]/::|_:<!",
"%'.$-+%*%%+&%*.&&'''%**%&*,)))'#&&%&')),;;,;;;);)&**%$'>(!>,>)'-",
")]~)',,!;;>>>,,;!~~(;~~;;;](^/]&(;;(((/:|:}}1:[[^/](](][[_[:_]/~",
"~<~)'),!!~,>;>>;!^]]!~];>>!(^^(&!),~~]_:<}}}}::|:_//_^_}1|11}1|^",
"~[];,>;!!;;!(~~~~~]~^~~~;~~]/^^&/~;!~][[2}:[_[_:[__[[[11<12}<:[]",
"(:(~>;>~(]^](~(^](~(!]]](~]]]^_)(((~~/[||^____|||::<}}<1|}|}:_|^",
"^:^;>>;!!](]^((~(!!!!]]]]^]^/__']]~~]^_//(^]^^_[[|}2|}}}[:}|[_}(",
"![(~~;~](~(~]~;~~~!;;!]]/^///[[>:^((^_[[/!!(!^([^___/_[[//__^^/>",
"'](((!~!(](]~~~(^~!!!(]]]_/[:[[![^](/[[/(~>;~(((__[_::[__^_^[^_;",
">]~(!~~(;~~~~,>>;(~!~^]]]/_[:}[;^]~!(//^_~~!~!~^/:[__||/^^]]^^^,",
">!;!;~~~!!^]]!,;;~(^//^]]^//[[_>[^]~~]^/^](((_/[||::|}:_^(((]]~)",
",>,(!(;!~(^(!;;!~(]]^]](~]__[_[;|_^(^//((](((_/[}:[:[/^^(!!!~~>'",
"+));;~!~!](>,>;(!~((!!(;;]^/___!}_^(~(]((!;~!~!/[/^(^~]((~;>;;,%",
"$,'>!!~~>]~!;~(~](~!!~((^/:::[:]2_^^((((~;~(]!]]]^](!~]((^]~~!)+",
"+''),;;;>;;!!!!~(~!!~~;!]/[:[||(:_]~!!~~;>!>>>~~(((!!~]]((](!;>.",
"$%,);;!;>;!!~((~~~!]((!;;~/_^/^'^^/;;,>!!;!!!;~(~(!(]((((]~~(;;%",
"-)',,!;,>!!~]]^((]]]/](];~(~]~(%(!;;(,>;>>!~~~~~]]]](](~((((!;;%",
"',>>!~!!~;;~^(]](~!^]^/](!~~~!!*~!!>;~;!~(^](~;~~(/]!(;~!;;!;>>*",
".>,)>;;;!;;(]^(^]]!(]^^(](((~~!&]~~;;;!~~(^](!~;;((((>>;!>~!;;>*",
"$)));>!;;>~(]_^_/]]^]]((]((]^(~&((~~!~~~!~~~]~!>~]](]~!>!;;!!;,&",
"-')'>;,!~!]^^/::/(((]](~!!~!~(~'(~]^(~~~~((]^~!!(((]]]]]];(!!!>&",
"#&',>;!!(/:[[[<}_^^((]!~!~!]((>.~(^](!;;;;(~](]](^^](~]](](~((~'",
"+%),~!~]/|[::}[_^](~~(!;;;>~(!;*!;(!(~~!>,;~~(]~^(~~~~!!!(~!~~(&",
"-&''>>!!][_/^/~]_~;>>!~!;~(~]]!.!;(~(~~!;,>;^~!!/(!>>;!;;(~!;!;%",
".,),>!>~~(]]~(!~!>!!;;!!~]^///(*(~!(((]~>;>!!!!]](~~),!;;~~!,~~'",
"*)',;!!](((~;!!!~!>!~!(/_^//^]('^]]^]((]~!!!!]]/^_^(^~!!~!~~!!;*",
"+*&)>~!~~]~!;;(((~~!(~]^//^^](('^^~!!!!!!]!~^^_^[_((!!!~(]]](!!&",
"+%.*,>!!(]~(!;~~]~~(~]]^^_//^(!%(^((;!!;;(^_[||[:[^[^~(]^]^](~;.",
"-*%*',>(~!~(!!~(~]~~~(]^^/_/]~!*(((~!;;((^:<}:|||:_/(]]^]^_(~>)%",
"#**.'>>!!!(~;,~~!!~!~(~((]/]~!;*(~((]]~(~^:}[__[_^((~~~(]^^;,>).",
"{%%$&);;!!~!)',;>>;>,;;;;!!>>~~&~(~~~~((^^_[://_^^(!!;,;!;>&***-",
"{-.%)),;;!!>'*'),>)),,,>';;>!(]'^!,>;;;!(]/_////]^];,;,>;),*$.+$",
"-+.%),>>;>!,&&)&,);,!)'&))),,!;%/!'))>,;!]^^/^^^((~~~;>))')%$%*$",
"--$-*..%&**...%%%+*.'%+$+++.+%% +&+$$..%*),>)'))))&&*&*+...$++% "};
