/* XPM */
static char * floor_xpm[] = {
"40 40 27 1",
" 	c #666666",
".	c #696969",
"+	c #6A6A6A",
"@	c #6B6B6B",
"#	c #6E6E6E",
"$	c #6C6C6C",
"%	c #6D6D6D",
"&	c #686868",
"*	c #676767",
"=	c #6F6F6F",
"-	c #707070",
";	c #737373",
">	c #717171",
",	c #656565",
"'	c #727272",
")	c #767676",
"!	c #747474",
"~	c #757575",
"{	c #777777",
"]	c #787878",
"^	c #797979",
"/	c #7B7B7B",
"(	c #7C7C7C",
"_	c #7A7A7A",
":	c #7D7D7D",
"<	c #7E7E7E",
"[	c #7F7F7F",
" . ++@#$$@++@@@@$@%&++.&+.$%%$@.+$$+++&*",
".+&$==##-#@+#=##=-;#>#@+$##%==%.@=###@&,",
".$+=#>>--'#%#->->>;#'>=$##;-'-'$#==-%.+ ",
"+$@;-')!;;~>;----''#~~!-!-');'~~>'--%+.*",
"+$#;>>'>>!)!!-#->!)>){{!~>'>->~~;!=#%++.",
"*@#';;>-;{)~;>=>;!~>]^]~!!;--!)!~;-%>##%",
"&$=;'!!>!~~~~'=>'-'=]/(])!!!'!)!){>->=#.",
"@#-';;~>;!{~!'>''>'=_:/]))~~-;)^]~;;!>%.",
"%#>!;!)->>;;~~;';';>__{{~~);=>~;)~~!;-=.",
"$#>;;))!';!'!!'>!~!>/^;;!~{);;!)){)~!>-$",
"$#-'';~~!;;;)~!''>'-^{!>!!~~)~)~~~~!!'-%",
"@$%#==;;;!;';!~~'>;>{{)~~)~!;!~;'''!'>=+",
".%=>=';;!;>--'!;~';-{~!!~~);;~~)~!;;;>#+",
"$--';{~~>''=-'!;!;'=]~;''~)~!){~~)~!!;=%",
"-)))]_:~>>>'!!)){!'%)!!;->~!!);;;;!!;;''",
";]]]]_/);~!~{_(/^{!-)~)~'';!))!'>''!')!'",
"~{]_^_^{{)!~]__]]));~~;!!;){]_)!!'!!~!)~",
"^^__]^]{{~!!{^_^)~!>)''!~^//(/]{~~~{{~^{",
"{_){{~~)~;;~){{])))>]~)~{//__])!;!{]^^/{",
"-=@$##%=##--==#->>>@-#->'!!!!;-#%$')!!;%",
";~#-''>>->!~!!;'~){-;'~)_(:<//]{))_///^)",
"))>>;;'!!!!)~!!'!{{-)'!{_[/__/_^__[<[</{",
"]{'>;~))~~~!;)))){]'~~!]_^]]]//(<:</((_]",
"~)!'~~~~!!!;'!)]]]_!_~)^_);!)]]^^__]^]{!",
"'~!!!;!!>'!!;)){^/(~{~~^]{;;!)^_^(^{{{{;",
">';!!;{~;';~{{))]^_!_)~{{)~~^^(///^)!~~-",
"$='!!!~>>!!~!!;!{^^~({~)~!;!~{_{{~)~;''%",
"@#>;;';;!!~!;!!{_//{({~!~';;'~));!)~)!'@",
".=-''>;!~!!!)~;;{]]>{{'-'';;;~~!~~~~!!'%",
"%->!';'~))~!{{)!!!;#!;';';~~!!~{~~!;;;>%",
"$--''';~{{)!){~)~~!=~!';!!)~;';~~''';;'#",
".=-'';){^/{~))!;!!~-~))!!!~)!;~~))~!!;;#",
".#>;!]//(/])!~;;'~!%!)~;;>;!~~))~!~!~!~-",
".#-';{^{{~{'>;;;~~)%;!~!!>>!!;{;>'';!';#",
"%=>;!~~!;;;';;){]])-)~)~~;';~{{)~;;;!;;=",
"+$=;;~!;'~~!!~{]{{~={~;;;!!{^^_)~;!)));#",
".@%-!!!!;~~!!~{{^{!#~~!'!~_:/(/^{)))]!>$",
"*@@-';!'=;';';;!~;;#~~~~~)_/^^]~!;;~!=#+",
",+%=>';=%=-----=''~-)->';~]]]]))>'>>-++&",
"*&@$%##@@$$%#$+@@@%*#@+$%=''>'>==#$@@.+ "};
