/* XPM */
static char * wall_square_xpm[] = {
"64 64 113 2",
"  	c #F7F7F7",
". 	c #F4F4F4",
"+ 	c #EAEAEA",
"@ 	c #EFEFEF",
"# 	c #EEEEEE",
"$ 	c #E8E8E8",
"% 	c #F5F5F5",
"& 	c #F8F8F8",
"* 	c #E5E5E5",
"= 	c #E6E6E6",
"- 	c #E4E4E4",
"; 	c #F6F6F6",
"> 	c #ECECEC",
", 	c #F0F0F0",
"' 	c #E9E9E9",
") 	c #E7E7E7",
"! 	c #F3F3F3",
"~ 	c #F1F1F1",
"{ 	c #EDEDED",
"] 	c #EBEBEB",
"^ 	c #DDDDDD",
"/ 	c #E0E0E0",
"( 	c #DFDFDF",
"_ 	c #E2E2E2",
": 	c #DBDBDB",
"< 	c #DADADA",
"[ 	c #F2F2F2",
"} 	c #E3E3E3",
"| 	c #E1E1E1",
"1 	c #DCDCDC",
"2 	c #DEDEDE",
"3 	c #F9F9F9",
"4 	c #E5E5E6",
"5 	c #F7F7F6",
"6 	c #E8E8E9",
"7 	c #E5E4E6",
"8 	c #D8D8DB",
"9 	c #DBDBDC",
"0 	c #E2E1E4",
"a 	c #DCDCDD",
"b 	c #E0E0E2",
"c 	c #DFDFE1",
"d 	c #E5E5E8",
"e 	c #E6E6E7",
"f 	c #F5F5F6",
"g 	c #F7F7F8",
"h 	c #E1E1E2",
"i 	c #E7E7E8",
"j 	c #F8F8F7",
"k 	c #D9D9D9",
"l 	c #E4E4E5",
"m 	c #E1E1E3",
"n 	c #DADADB",
"o 	c #E4E4E6",
"p 	c #F4F4F5",
"q 	c #EAEAEB",
"r 	c #DFDFE0",
"s 	c #E3E3E4",
"t 	c #DDDDDE",
"u 	c #E5E5E7",
"v 	c #E0E0E1",
"w 	c #E0DFE2",
"x 	c #E5E4E7",
"y 	c #E2E2E4",
"z 	c #E1E0E3",
"A 	c #F8F8FA",
"B 	c #F8F8F9",
"C 	c #F8F8F6",
"D 	c #F3F3F4",
"E 	c #ECECED",
"F 	c #EFEFF1",
"G 	c #E8E8EA",
"H 	c #F4F3F4",
"I 	c #E3E2E5",
"J 	c #DBDBDD",
"K 	c #E9E9EA",
"L 	c #F2F2F3",
"M 	c #E7E7E9",
"N 	c #DCDCDF",
"O 	c #DFDFE2",
"P 	c #E2E2E3",
"Q 	c #E2E2E5",
"R 	c #DEDEDF",
"S 	c #DDDDE0",
"T 	c #E4E3E6",
"U 	c #E3E3E5",
"V 	c #DCDBDE",
"W 	c #E6E5E7",
"X 	c #E6E6E8",
"Y 	c #E7E6E9",
"Z 	c #DCDBDF",
"` 	c #E9E9EB",
" .	c #EAEAEC",
"..	c #DDDDDF",
"+.	c #EBEBEC",
"@.	c #DCDCDE",
"#.	c #EBEBED",
"$.	c #D9D9DA",
"%.	c #DADADC",
"&.	c #F1F1F2",
"*.	c #EEEEEF",
"=.	c #F0F0F1",
"-.	c #F7F8F6",
";.	c #F7F8F7",
">.	c #DADADD",
",.	c #E4E3E5",
"'.	c #F6F6F7",
").	c #E7E7E6",
"!.	c #D6D6D6",
"~.	c #E6E5E6",
"{.	c #D7D7D7",
"].	c #E6E6E5",
"^.	c #F5F5F7",
"    . +               @ #               $ %             & * &               =                 *                 - ;             ",
"    . >               @ ,               ' ;               = &               )                 = &               * ;             ",
"    ! # &             # ~               ' %               = &               )                 =                 = ;             ",
"! ! @ { % % . % % % % ] , % % % % % ; % ) ! % % ; % % % % - ; % ; % . % % % * % % % . % % % % - % ; % % % % % % - % % % % . ! ! ",
"' + ] > > > ] ^ { > > > > > > > / > > > ] ] > > ] ^ + + + ' + ] + ' ( + + + ] + + + - _ ' ' $ $ $ $ ' : ' $ $ $ $ $ $ $ < = ) ) ",
"              )                 +               & $               % +               ~ @               $ &               ) %     ",
"              $                 '               & )               . +               ~ ,               '                 = %     ",
"&             $                 '               & $               . +               [ @               $ ;               = %     ",
"} $ ) ) + ] + | ) ' $ / $ $ ' ' | + + + } + + ] + _ + + + } + ' ] $ - ] + ] } + + + = - + ' ' } $ $ ) / * ) = = | = = ) 1 } _ _ ",
"    [ @               =                 '                 '                 $   &           & ]                 *               ",
"    [ @               = &               '                 ' ;             ; $               & ]               & *               ",
"    [ @   ;     ;     ' &               )                 ' ;               $               & +                 - ;             ",
"' ] ) = # # # { # # { | { # { { # { # # ( { @ @ # # # # { ( { # # # # # # # ( @ @ # # { # # @ / @ , @ @ # @ @ , / , , , ~ , @ # ",
". % . % % % ; } % % % ! [ ! ! ] > [ ! [ ! ! [ [ ' ] ~ [ ~ ~ [ [ ~ _ # @ , , ~ , , ~ / , @ , # @ @ @ @ 2 @ @ # # { { { { ^ { { > ",
"            & *               # ~             & # ~               $ ;               ) &               =                 =       ",
"            & )               { ~               # ~               $                 ) &               )                 =       ",
"&           3 $   &   &   & & > !         &     # [               '       & &       $ 3             & ) &       &       *   &   ",
"} = ^ ) $ ) ) } $ $ ' _ + ' ' * ) ' + ] | + + ' ) ) + + + | ' + + * ' + + + | ' + ' } + + ' = _ ' ' $ } ' + ' _ - $ $ ) _ $ ) 4 ",
"  ; = &               +                 =               & )                 )               ~ {               , @             5 ",
"    *                 ]                 )               & $                 $               [ {               @ @               ",
"    *                 +                 )                 $                 6     5       5 [ ] 5           5 , #   5 5 5 5 5   ",
"} 7 8 $ ) $ ' ) $ $ $ ^ ) = = = = = = = 1 $ ' + $ $ $ $ $ < ' $ $ ) $ $ $ ' 9 6 = = = ) = = 0 a 4 = * = = = = b c d e = 4 4 4 d ",
". ; ; ; ; ;   '   ; ;   ; ;   ' ! ; ; ; ; ; ; ; + % ; ; ; ; ; ; ; ) ; ; ; ; ; ; ; ; = ; ; ; ; ; ; ; ; * % ; % ; ; f ; ; - ; ; ; ",
"            & +               > %               ] ;               )               ; $                 *                 =       ",
"            & +               ] ;               ] ;               $                 $ &               -                 =       ",
"&   & & & & & '     & &   &   ' ; & & & & & & & >   & &   &     & + &       & & &   = & & 3   & & & & -   & & & &   & & e g     ",
"* $ ( ' + + ) } $ = $ ^ $ $ ' = = $ ' ' 2 ' + ' * $ ' ' ' ( ' ' + - ' + + ' 2 ' $ ' * + $ * | } = = = } = * = ^ _ = * - h * - } ",
"    ) ; ; ; ; ; ;   ; $   ; ; ;     ;   )               & )           ; ;   =   ; ; ; ; ;   @ @ ; ; ; ; ; ; ; > ! ; ;           ",
"    $                 '                 i               & )                 =               , @               > !               ",
"    $                 '               j e               & $                 =               @ @               ] !               ",
"_ * : = = = = - ) ) ) ^ = ) ) - ) = = = k = = = * ) = ) ) : $ $ $ * ) $ $ $ 1 ' ' $ ) $ $ = ( ( ) = ) = ) ) ) 2 } = * - - = = - ",
"  & & & & & ; + & & &   & & & = & & & & & & & & ' 3 & 3 & & & & & ' & & & & & & & & * 3 & & &       & > &   & & & & & & $ & &   ",
"            ; '               * &               ' &               $                 =                 {                 '       ",
"      ; ;   ; + ; ; ;     ;   ) &               + &   ; ; ;     ; '                 )                 {               & $   ;   ",
"% %       & % '       & &   & $ 3 & & & & & & & ' g         &     + 3 & & & & &     $ & & & & & & & & # & & & & & & & & $       ",
"- ) ^ ' + + ' $ + + ' 1 ' ' $ = ) $ $ ' : $ $ $ ) l l l m n = = - - = ) = ^ o e = * - * = * 2 | = * * - _ _ } k _ } } _ _ - } _ ",
"    $ &             & '               & $               f $               { p               # [               +                 ",
"    $ &               '               3 )               % $               { .               @ [               +                 ",
"    =                 +               & 6               % $               # ~ 5             @ [               '                 ",
"$ ] ^ $ + + ) = + + + / ] + + e q + + ' r $ 6 6 s ' $ $ $ t u 4 - v e ) e b w x x o _ ' ' i v s $ ) 6 y e = * ^ ) * * * h } } z ",
"&     & & & % + &   & & & & & ) A g   &   & j & 6 B   & j j B & & ) B & 5 j B g B A i & & & C j & & B i j   & & & & & 3 e B & & ",
"            ! ]               = &               $ &               =               5 )               & '               & )       ",
"      5 5   D E               ) &               =   5             e g       5       i               & $               & =       ",
"[ ~ ! ! D ! F G . . . . ! ! ! _ . . . ! ! [ [ [ _ [ [ [ [ [ ! ! [ r D [ [ [ ! ! ! H I . . . . . . . . * . . . ! ! . . . } ! . . ",
"$ ] 1 ] ] + + + + + ] J + ' ' ' $ ' + ' ^ + + ' ' i i ) s c + ' ' K ' ' ' | _ ' ' ' ' ' ' + 1 ' ' ' ' + ' ' ' < + ' ' ' ' ) $ = ",
"    =             ; & u g             ; )               L E               # @               ) ;               = &             ; ",
"    =               & *               % $               [ {               # @ 5             $ ;               = &               ",
"  g e 5 5 & 5 5 5   & * g & g g     & p $ & 5 5 j   &   L E g g   &       { F           5   M ;               e B           5 5 ",
"N O a P l Q R h s } - S o T U V 0 h - h ( } - s 9 U o - l P W 6 + _ = $ ' - X ' ) Y h ) 4 u c * * * - / * } } a s } } h Z P h r ",
"            ] .               - &               =               & =               & *   &           & *               & *       ",
"            ] .               *                 )                 =               j *               & =               & =       ",
"            > .               }                 )                 )               j 4               & =               & =       ",
"o o 6 ) i 6 ( = ' ' ' ` q + K 9 + ] ]  .q ] + + ..] + + + ' + q +.@.#.] ] q #.+ +  .$.] ] ]  .q +  .+.< ] ] ]  . .] + ] %.q ] + ",
"&.L l ! ! ! L ! ! ! . _ ! ! L ! . . D *.' . ! ! . ! ! ! = # ! ! D D L [ ~ } =.[ [ &.[ [ ~ [ / &.~ [ &.[ ~ ~ ~ r &.~ ~ ~ =., ~ , ",
"    $               & -               ! {               ] !             ; ) ;               = &               *                 ",
"    )               & -               [ {               + [               ) ;               = &               *                 ",
"& & $   & & & & & 5 j *   & g & & & & [ #     &       & + !   & &         )           -.;.  ) &   j     &     - & j     g   -.& ",
"( / 2 - - * R s - l y ( - - s t = = * } - = = l t - - - ( - * } } >.y } } ( I T I _ 9 s - } 2 T T T o 1 } - } 9 P s - } n ,.P / ",
"    ;   ;   + D   5 5       '.*       ;         + ;     ;   ; ; & * ;       5 5 5   ).5         5   & *           5   ; s   5   ",
"            ' !               -                 +               & )               & $                 *               ; -       ",
"            ' ! ;             * &     ;     ; ; '                 * ; ; ; ; ; ;   3 $ ;           ;   * ; ; ;         % - 5     ",
"_ - = 4 = = : } = = ) = = = = !.* * * * * = - - < * * - l * * ~.u !.* = * * = = = W 9 = = = = = = * * !.* = * l * * * - {.].* * ",
"; g l ; ;     ; ; ; ; )           ; ; @ # ; ; ; ; ; ; ; K D       ; ; ; ; ) ; ;   '.        -     ; % ;   % ; s '.; ; ; % % % ^.",
"  & *               ; )               @ @               ' .             ; )                 - &               *                 "};
