/* XPM */
static char * char2left_xpm[] = {
"40 40 375 2",
"  	c #666666",
". 	c #696969",
"+ 	c #6A6A6A",
"@ 	c #6B6B6B",
"# 	c #6E6E6E",
"$ 	c #6C6C6C",
"% 	c #6D6D6D",
"& 	c #686868",
"* 	c #696A69",
"= 	c #676767",
"- 	c #6F6F6F",
"; 	c #707070",
"> 	c #5D5C57",
", 	c #454947",
"' 	c #3F4542",
") 	c #5E5F5F",
"! 	c #656565",
"~ 	c #717171",
"{ 	c #727272",
"] 	c #60594A",
"^ 	c #A18853",
"/ 	c #353D3B",
"( 	c #4B4944",
"_ 	c #625E5B",
": 	c #737373",
"< 	c #767676",
"[ 	c #747474",
"} 	c #757575",
"| 	c #5A4942",
"1 	c #AE7E6E",
"2 	c #B7816B",
"3 	c #8D7365",
"4 	c #847169",
"5 	c #717070",
"6 	c #81716C",
"7 	c #A9705D",
"8 	c #B97E6B",
"9 	c #936F5F",
"0 	c #88695F",
"a 	c #747373",
"b 	c #777777",
"c 	c #7A7372",
"d 	c #9D6E61",
"e 	c #B4806C",
"f 	c #856F62",
"g 	c #725546",
"h 	c #6B6B67",
"i 	c #737473",
"j 	c #747475",
"k 	c #93918F",
"l 	c #957F75",
"m 	c #958073",
"n 	c #745F55",
"o 	c #7C5442",
"p 	c #51523C",
"q 	c #595A45",
"r 	c #6B6B66",
"s 	c #6B6559",
"t 	c #5D5347",
"u 	c #684538",
"v 	c #73523F",
"w 	c #505139",
"x 	c #5A5C41",
"y 	c #53533B",
"z 	c #676863",
"A 	c #797979",
"B 	c #787878",
"C 	c #6A6A68",
"D 	c #393C2C",
"E 	c #484433",
"F 	c #714B39",
"G 	c #664E39",
"H 	c #4C4D38",
"I 	c #55563D",
"J 	c #474735",
"K 	c #6F6F6E",
"L 	c #727373",
"M 	c #666766",
"N 	c #6D6D6C",
"O 	c #5B5B5B",
"P 	c #5D5D5E",
"Q 	c #444546",
"R 	c #51524A",
"S 	c #34362A",
"T 	c #423D2C",
"U 	c #A68967",
"V 	c #5D533D",
"W 	c #494A35",
"X 	c #505039",
"Y 	c #525239",
"Z 	c #40402D",
"` 	c #605F5C",
" .	c #696A6A",
"..	c #666767",
"+.	c #454646",
"@.	c #2B2E2D",
"#.	c #242626",
"$.	c #41302A",
"%.	c #54392D",
"&.	c #4C3D39",
"*.	c #2F3335",
"=.	c #272929",
"-.	c #1F1F20",
";.	c #393729",
">.	c #B09671",
",.	c #59533E",
"'.	c #444634",
").	c #52513B",
"!.	c #4B4933",
"~.	c #3B3926",
"{.	c #4B4B45",
"].	c #666664",
"^.	c #4D4E4E",
"/.	c #343535",
"(.	c #5D5654",
"_.	c #644335",
":.	c #724936",
"<.	c #8C5941",
"[.	c #6A4738",
"}.	c #523A2C",
"|.	c #25231F",
"1.	c #333429",
"2.	c #927E5F",
"3.	c #685F49",
"4.	c #4C4D39",
"5.	c #4D4D39",
"6.	c #484432",
"7.	c #322E20",
"8.	c #2B2C20",
"9.	c #6F706F",
"0.	c #6C6C6B",
"a.	c #756F6E",
"b.	c #77645E",
"c.	c #7C584A",
"d.	c #A16B52",
"e.	c #916048",
"f.	c #584233",
"g.	c #4D4D42",
"h.	c #6F624A",
"i.	c #514E3A",
"j.	c #4D4B37",
"k.	c #494734",
"l.	c #413F2E",
"m.	c #26281C",
"n.	c #202117",
"o.	c #5B5B59",
"p.	c #717170",
"q.	c #545352",
"r.	c #785E55",
"s.	c #8E614D",
"t.	c #67533D",
"u.	c #54503A",
"v.	c #514C39",
"w.	c #4B4A36",
"x.	c #504B38",
"y.	c #484634",
"z.	c #303122",
"A.	c #23241A",
"B.	c #51514E",
"C.	c #7A7A7A",
"D.	c #7D7D7D",
"E.	c #737372",
"F.	c #636363",
"G.	c #6A6663",
"H.	c #4D4735",
"I.	c #4E4C38",
"J.	c #5B5740",
"K.	c #58563D",
"L.	c #494532",
"M.	c #343525",
"N.	c #2A2B1E",
"O.	c #393A32",
"P.	c #7B7B7B",
"Q.	c #7C7C7C",
"R.	c #61615E",
"S.	c #444639",
"T.	c #4F4E3A",
"U.	c #54523C",
"V.	c #534F3A",
"W.	c #3E3A29",
"X.	c #3E3D2B",
"Y.	c #373827",
"Z.	c #303123",
"`.	c #303022",
" +	c #636362",
".+	c #4D4E47",
"++	c #4A4534",
"@+	c #534936",
"#+	c #353625",
"$+	c #3A3C2A",
"%+	c #3D3B2A",
"&+	c #353525",
"*+	c #333223",
"=+	c #464642",
"-+	c #595A56",
";+	c #50422E",
">+	c #7F674C",
",+	c #46412F",
"'+	c #3B3B2A",
")+	c #3A3B28",
"!+	c #343523",
"~+	c #2F2F21",
"{+	c #787877",
"]+	c #555551",
"^+	c #352D21",
"/+	c #715F48",
"(+	c #4C4431",
"_+	c #383827",
":+	c #3D3D29",
"<+	c #3B3C28",
"[+	c #353624",
"}+	c #2C2B1D",
"|+	c #6C6C6A",
"1+	c #49433A",
"2+	c #3E362C",
"3+	c #4B4134",
"4+	c #484130",
"5+	c #403A2C",
"6+	c #40392B",
"7+	c #3C3528",
"8+	c #383429",
"9+	c #5B5A57",
"0+	c #58524B",
"a+	c #443B2E",
"b+	c #3C3429",
"c+	c #463D30",
"d+	c #544B3E",
"e+	c #554A3D",
"f+	c #514637",
"g+	c #483D2F",
"h+	c #453E35",
"i+	c #6D6C6C",
"j+	c #43392D",
"k+	c #3E352A",
"l+	c #342D21",
"m+	c #463D31",
"n+	c #5B5145",
"o+	c #5B5143",
"p+	c #5C5140",
"q+	c #544738",
"r+	c #544C43",
"s+	c #7B7B7A",
"t+	c #7F7F7F",
"u+	c #7E7E7E",
"v+	c #5C5852",
"w+	c #332D26",
"x+	c #2F2821",
"y+	c #342C22",
"z+	c #473F35",
"A+	c #5A5143",
"B+	c #5C5243",
"C+	c #5C4F3E",
"D+	c #5A4D3B",
"E+	c #69645D",
"F+	c #4C463F",
"G+	c #3C3327",
"H+	c #362F26",
"I+	c #483F35",
"J+	c #584F43",
"K+	c #54493D",
"L+	c #504536",
"M+	c #4F4434",
"N+	c #706D6A",
"O+	c #747372",
"P+	c #382F25",
"Q+	c #362E25",
"R+	c #54504B",
"S+	c #4A4137",
"T+	c #51473B",
"U+	c #514638",
"V+	c #534738",
"W+	c #564F46",
"X+	c #615F5D",
"Y+	c #362E22",
"Z+	c #443E36",
"`+	c #6D6C6B",
" @	c #463D32",
".@	c #4C4134",
"+@	c #4D4334",
"@@	c #64625F",
"#@	c #656463",
"$@	c #332C22",
"%@	c #372F25",
"&@	c #433A2F",
"*@	c #605E5C",
"=@	c #483E35",
"-@	c #473D31",
";@	c #4A4031",
">@	c #473D32",
",@	c #7A7979",
"'@	c #504D49",
")@	c #332C21",
"!@	c #342D23",
"~@	c #3D3832",
"{@	c #3F372D",
"]@	c #443A2F",
"^@	c #594C3C",
"/@	c #564E46",
"(@	c #3B352E",
"_@	c #312A21",
":@	c #2E281F",
"<@	c #342D25",
"[@	c #372F26",
"}@	c #40372B",
"|@	c #6B6B69",
"1@	c #4F4C49",
"2@	c #322B20",
"3@	c #312A20",
"4@	c #2D2821",
"5@	c #353029",
"6@	c #3E3429",
"7@	c #3E3529",
"8@	c #4A4742",
"9@	c #60605E",
"0@	c #2A241C",
"a@	c #26211A",
"b@	c #535250",
"c@	c #4B4946",
"d@	c #352D22",
"e@	c #332C23",
"f@	c #2D261C",
"g@	c #6A6969",
"h@	c #575756",
"i@	c #28251D",
"j@	c #3D3A36",
"k@	c #514F4C",
"l@	c #342D22",
"m@	c #43413E",
"n@	c #737374",
"o@	c #24211A",
"p@	c #2C2A23",
"q@	c #5A5959",
"r@	c #393129",
"s@	c #3A3126",
"t@	c #362E24",
"u@	c #464441",
"v@	c #636262",
"w@	c #5D5D5D",
"x@	c #2D2C2B",
"y@	c #2A2825",
"z@	c #2C2826",
"A@	c #3D3C3B",
"B@	c #413D37",
"C@	c #352F24",
"D@	c #2B251C",
"E@	c #616060",
"F@	c #727171",
"G@	c #33312F",
"H@	c #272624",
"I@	c #323130",
"J@	c #504F4F",
"K@	c #3A3A3A",
"L@	c #585858",
"M@	c #31312F",
"N@	c #1D1B17",
"O@	c #545453",
"P@	c #4E4E4D",
"Q@	c #221F1B",
"R@	c #373531",
"S@	c #363634",
"T@	c #23221E",
"U@	c #2A2823",
"V@	c #6E6D6D",
"W@	c #646363",
"X@	c #3D3B3A",
"Y@	c #201F1D",
"Z@	c #151513",
"`@	c #1F1F1E",
" #	c #626262",
".#	c #332F2D",
"+#	c #2D2925",
"@#	c #262524",
"##	c #686767",
"$#	c #585757",
"%#	c #565656",
"  .   + + @ # $ $ @ + + @ @ @ @ $ @ % & * + . & + . $ % % $ @ . + $ $ + + + & = ",
". + & $ - - # # ; # @ + # - # # - ; ; > , ' ) + $ # # % - - % . @ - # # # @ & ! ",
". $ + - # ~ ~ ; ; { # % # ; ~ ; ~ { ] ^ / ( _ $ # # : ; { ; { $ # - - ; % . +   ",
"+ $ @ : ; { < [ : : } ~ : ; ; ; ; ~ | 1 2 3 4 5 [ ; { < : { } } ~ { ; ; % + . = ",
"+ $ # : ~ ~ { ~ ~ [ < [ [ ; # ; ~ [ 6 7 8 9 0 a } ~ { ~ ; ~ } } : [ - # % + + . ",
"= @ # { : : ~ ; : b < } : ~ - ~ : [ c d e f g h i j : ; ; [ < [ } : ; % ~ # # % ",
"& $ - : { [ [ ~ [ } } } } { - ~ { ; k l m n o p q r i [ { [ < [ < b ~ ; ~ - # . ",
"@ # ; { : : } ~ : [ b } [ { ~ { { ~ # s t u v w x y z } ; : < A B } : : [ ~ % . ",
"% # ~ [ : [ < ; ~ ~ : : } } [ ~ ; $ C D E F G H I w J K - ~ } : < } } [ : ; - . ",
"$ # ~ : : < < [ { : L M [ N ! O P Q R S T U V W X Y Z ` : : [ < < b < } [ ~ ; $ ",
"$ # ; { { : } } $  ...+.@.#.$.%.&.*.=.-.;.>.,.'.).!.~.{.} } < } } } } [ [ { ; % ",
"@ $ % # - - : : - ; ].^./.(._.:.<.[.}.|.1.2.3.4.5.6.7.8.9.[ } : { { { [ { ~ - + ",
". % - ~ - { : : [ : 0.+ ; : a.b.c.d.e.f.g.h.i.j.k.l.m.n.o.< } < } [ : : : ~ # + ",
"$ ; ; { : b } } ~ { { - ; { [ p.q.r.s.t.u.v.w.i.x.y.z.A.B.< b } } < } [ [ : - % ",
"; < < < B C.D.} ~ ~ ~ { [ [ < E.F.[ G.H.I.J.K.J.L.l.M.N.O.{ : : : : [ [ : : { { ",
": B B B B C.P.< : } [ } b C.Q.P.A b [ R.S.T.U.V.W.X.Y.Z.`. +[ { ~ { { [ { < [ { ",
"} b B C.A C.A b b < [ } B C.C.B B < < : p..+++@+#+$+%+&+*+=+< [ [ { [ [ } [ < } ",
"A A C.C.B A B b b } [ [ b A C.A < } [ ~ < -+;+>+,+'+Z )+!+~+{+b } } } b b } A b ",
"b C.< b b } } < } : : } < b b B < < < ~ B ]+^+/+(+_+:+<+[+}+~ [ : [ b B A A P.b ",
"; - @ $ # # % - # # ; ; - - # ; ~ ~ ~ @ |+1+2+3+4+5+6+7+8+9+; # % $ { < [ [ : % ",
": } # ; { { ~ ~ ; ~ [ } [ [ : { } < b ; 0+a+b+c+d+e+f+g+h+} B b < < C.P.P.P.A < ",
"< < ~ ~ : : { [ [ [ [ < } [ [ { [ b b i+j+k+l+m+n+o+p+q+r+s+C.A C.C.t+u+t+u+P.b ",
"B b { ~ : } < < } } } [ : < < < < b B v+w+x+y+z+A+B+C+D+E+P.P.Q.u+D.u+P.Q.Q.C.B ",
"} < [ { } } } } [ [ [ : { [ < B B B b F+G+H+w+I+J+K+L+M+N+B B A A C.C.B A B b [ ",
"{ } [ [ [ : [ [ ~ { [ [ : < < b A P.O+b+P+Q+R+S+T+U+V+W+: < A C.A Q.A b b b b : ",
"~ { : [ [ : b } : { : } b b < < B C.X+Y+P+Z+`+z+ @.@+@@@A A Q.P.P.P.A < [ } } ; ",
"$ - { [ [ [ } ~ ~ [ [ } [ [ : [ b A #@$@%@&@*@=@-@;@>@K } b C.b b } < } : { { % ",
"@ # ~ : : { : : [ [ } [ : [ [ b C.P.,@'@)@!@~@{@]@^@/@[ { } < < : [ < } < [ { @ ",
". - ; { { ~ : [ } [ [ [ < } : : b B B # (@_@:@<@[@}@>@|@: } } [ } } } } [ [ { % ",
"% ; ~ [ { : { } < < } [ b b < [ [ [ : # 1@2@3@4@5@6@7@8@: [ } b } } [ : : : ~ % ",
"$ ; ; { { { : } b b < [ < b } < } } [ - 9@0@a@b@c@d@e@f@g@{ : } } { { { : : { # ",
". - ; { { : < b A P.b } < < [ : [ [ } ; : h@i@j@k@$@)@l@m@n@} } < < } [ [ : : # ",
". # ~ : [ B P.P.Q.P.B < [ } : : { } [ % [ = o@p@q@r@s@t@u@< < < } [ } [ } [ } ; ",
". # ; { : b A b b } b { ~ : : : } } } v@w@x@y@z@A@B@C@D@E@[ b : ~ { { : [ { : # ",
"% - ~ : [ } } [ : : : { : : < b B B F@G@H@I@J@K@L@; M@N@O@b b < } : : : [ : : - ",
"+ $ - : : } [ : { } } [ [ } b B b b } - ; [ : : : [ P@Q@R@[ C.< } : [ < < < : # ",
". @ % ; [ [ [ [ : } } [ [ } b b A b [ # } } [ { [ - S@T@U@V@P.A b < < < B [ ~ $ ",
"= @ @ ; { : [ { - : { : { : : [ } : : # } } } [ W@X@Y@Z@`@% B } [ : : } [ - # + ",
"! + % - ~ { : - % - ; ; ; ; ; - { { } ; < ; ~  #.#+#@#O @ B < < ~ { ~ ~ ; + + & ",
"= & @ $ % # # @ @ $ $ % # $ + @ @ @ % = # @ + ##$#%#W@: ~ { ~ - - # $ @ @ . +   "};
