/* XPM */
static char * char_walkW1_xpm[] = {
"24 24 17 1",
" 	c #EFF7CE",
".	c #EFEFB5",
"+	c #E7E78C",
"@	c #E7DE73",
"#	c #384040",
"$	c #B87020",
"%	c #000000",
"&	c #486060",
"*	c #F8B020",
"=	c #282838",
"-	c #D8A078",
";	c #784040",
">	c #9088A8",
",	c #B8B0D0",
"'	c #F06848",
")	c #E8E8F8",
"!	c #F8D0B8",
"   .++@@#$$$$$#+. .+++..",
".+++++%#&*****&#%++.    ",
"+... %#&&*****&&#%.    +",
"..  +%&&*******&&%  .+++",
". ++%#&&*******&&#%++++.",
"++++%#&&*******&&#%+++..",
"@+..%##&*******&##%... +",
"+..+%###$*****$###%.. @@",
".++.%=##$$$$$$$##=%  @@+",
"++.%-%=##$$$$$##=%-%+@..",
"++@%-%&==#####==&%-%+..+",
"@++.%;%&&&&&&&&&%;%...++",
"+... %%#&&&&&&&#%%..+++@",
"..    %%%%%%%%%%;%.++++.",
"   .+@@%=%>,,,,%#;%+..  ",
"+++@@+%'=##>,,##=;-%  .+",
"++++.%;'';;&%#)>#--%+@@+",
"..  .%'';%%#)),,%%%+++..",
"  ++%!!;%%>,,,,&%+@++.. ",
"+++.%!!%%%>,,&&%#@+.  ..",
"+++++%%%&#%&&&%%%.  ++++",
"..++++..%%%%%%%&% +++...",
"+++.... .+++%;!%++......",
"....  .+@+. %,,%......+."};
