/* XPM */
static char * char2right_xpm[] = {
"40 40 377 2",
"  	c #676767",
". 	c #686868",
"+ 	c #6A6A6A",
"@ 	c #6C6C6C",
"# 	c #696969",
"$ 	c #6B6B6B",
"% 	c #6D6D6D",
"& 	c #696A6A",
"* 	c #6E6E6E",
"= 	c #666666",
"- 	c #656565",
"; 	c #6F6F6F",
"> 	c #484C4A",
", 	c #3F4443",
"' 	c #555551",
") 	c #686764",
"! 	c #737373",
"~ 	c #707070",
"{ 	c #727272",
"] 	c #6A6967",
"^ 	c #514D46",
"/ 	c #42423E",
"( 	c #817049",
"_ 	c #9B8354",
": 	c #6D6E6E",
"< 	c #717171",
"[ 	c #757575",
"} 	c #767676",
"| 	c #737474",
"1 	c #7C6F6B",
"2 	c #887266",
"3 	c #A97863",
"4 	c #BA8674",
"5 	c #815D50",
"6 	c #6A6969",
"7 	c #747474",
"8 	c #747575",
"9 	c #7F6F6B",
"0 	c #8A6556",
"a 	c #BC806B",
"b 	c #AB7262",
"c 	c #9E7264",
"d 	c #767575",
"e 	c #747574",
"f 	c #6F706D",
"g 	c #624E41",
"h 	c #826A5D",
"i 	c #A17562",
"j 	c #A97666",
"k 	c #8E6F68",
"l 	c #777777",
"m 	c #727270",
"n 	c #5E5F4F",
"o 	c #555741",
"p 	c #6B503D",
"q 	c #7B584B",
"r 	c #8B7A6E",
"s 	c #957A6D",
"t 	c #96908C",
"u 	c #787878",
"v 	c #797979",
"w 	c #70706F",
"x 	c #525341",
"y 	c #595A3F",
"z 	c #56583D",
"A 	c #584D39",
"B 	c #7C4F3F",
"C 	c #504137",
"D 	c #6D6456",
"E 	c #636361",
"F 	c #585851",
"G 	c #4E5038",
"H 	c #54553C",
"I 	c #51543C",
"J 	c #4B4934",
"K 	c #784E3B",
"L 	c #5F5240",
"M 	c #373A2A",
"N 	c #52534C",
"O 	c #6E6E6D",
"P 	c #717170",
"Q 	c #3F3E2E",
"R 	c #4F4F37",
"S 	c #505038",
"T 	c #4F4F39",
"U 	c #474733",
"V 	c #977D5F",
"W 	c #64543E",
"X 	c #303327",
"Y 	c #43453A",
"Z 	c #424341",
"` 	c #575859",
" .	c #555556",
"..	c #626363",
"+.	c #696868",
"@.	c #6D6E6D",
"#.	c #60605E",
"$.	c #343220",
"%.	c #4C4B33",
"&.	c #514F39",
"*.	c #4A4B37",
"=.	c #414332",
"-.	c #9F8968",
";.	c #574C39",
">.	c #242521",
",.	c #232424",
"'.	c #2E3132",
").	c #403938",
"!.	c #513A2F",
"~.	c #4E362C",
"{.	c #222525",
"].	c #292A2A",
"^.	c #383A3A",
"/.	c #5E5F5F",
"(.	c #686869",
"_.	c #40413B",
":.	c #2D2A1C",
"<.	c #3D3A28",
"[.	c #4C4A37",
"}.	c #50503B",
"|.	c #4A4A38",
"1.	c #927F60",
"2.	c #403D2D",
"3.	c #282824",
"4.	c #3F3125",
"5.	c #553D32",
"6.	c #885740",
"7.	c #7B4E39",
"8.	c #674435",
"9.	c #604C45",
"0.	c #464646",
"a.	c #3B3C3D",
"b.	c #5F5F5D",
"c.	c #6F6F70",
"d.	c #2F3029",
"e.	c #24251A",
"f.	c #2F2F22",
"g.	c #474532",
"h.	c #4F4D39",
"i.	c #4B4B37",
"j.	c #6A5F48",
"k.	c #434333",
"l.	c #484439",
"m.	c #845842",
"n.	c #9F6950",
"o.	c #8E604C",
"p.	c #7A635B",
"q.	c #736966",
"r.	c #757576",
"s.	c #686867",
"t.	c #6B6B6A",
"u.	c #2B2C24",
"v.	c #2B2B1F",
"w.	c #3B3C2C",
"x.	c #4E4936",
"y.	c #54503C",
"z.	c #514E3A",
"A.	c #4B4835",
"B.	c #524E39",
"C.	c #55503A",
"D.	c #895D48",
"E.	c #7C5749",
"F.	c #635955",
"G.	c #6D6C6A",
"H.	c #595A57",
"I.	c #28291D",
"J.	c #303122",
"K.	c #3B3B2B",
"L.	c #423E2D",
"M.	c #5A553F",
"N.	c #5A573F",
"O.	c #59573E",
"P.	c #544F3B",
"Q.	c #4F4B37",
"R.	c #555046",
"S.	c #717070",
"T.	c #7D7D7D",
"U.	c #7A7A7A",
"V.	c #333326",
"W.	c #2F3022",
"X.	c #343525",
"Y.	c #3C3C2A",
"Z.	c #3E3A29",
"`.	c #484431",
" +	c #54513B",
".+	c #53523D",
"++	c #3F4030",
"@+	c #565752",
"#+	c #7B7B7B",
"$+	c #7C7C7C",
"%+	c #5C5C5B",
"&+	c #302F20",
"*+	c #343323",
"=+	c #3A3928",
"-+	c #3B3C2A",
";+	c #363826",
">+	c #433F2D",
",+	c #554C39",
"'+	c #414136",
")+	c #6B6B69",
"!+	c #4E4E4A",
"~+	c #333422",
"{+	c #373825",
"]+	c #3E402D",
"^+	c #3D3E2C",
"/+	c #6B5A43",
"(+	c #6C583F",
"_+	c #41423C",
":+	c #484742",
"<+	c #323223",
"[+	c #3A3A26",
"}+	c #3D3D2A",
"|+	c #3A3A28",
"1+	c #393927",
"2+	c #6D5C45",
"3+	c #4B3E2E",
"4+	c #3F3E37",
"5+	c #656564",
"6+	c #413F37",
"7+	c #3A3427",
"8+	c #3E382A",
"9+	c #403A2B",
"0+	c #3E3A2A",
"a+	c #554A3A",
"b+	c #40372D",
"c+	c #413A2F",
"d+	c #605E5B",
"e+	c #787979",
"f+	c #5C5956",
"g+	c #443A2C",
"h+	c #4E4333",
"i+	c #54493B",
"j+	c #574D40",
"k+	c #4A4134",
"l+	c #3C3428",
"m+	c #42392C",
"n+	c #494035",
"o+	c #6F6E6C",
"p+	c #7E7E7E",
"q+	c #7F7F7F",
"r+	c #6E6B69",
"s+	c #504335",
"t+	c #594D3D",
"u+	c #5F5545",
"v+	c #5B5144",
"w+	c #534A3D",
"x+	c #332C21",
"y+	c #3B3227",
"z+	c #41392D",
"A+	c #656260",
"B+	c #767472",
"C+	c #5B4F3F",
"D+	c #5C4F3D",
"E+	c #5D5142",
"F+	c #5B5143",
"G+	c #534A3E",
"H+	c #382F26",
"I+	c #302A21",
"J+	c #2F2923",
"K+	c #453F34",
"L+	c #727271",
"M+	c #777675",
"N+	c #564C41",
"O+	c #4F4434",
"P+	c #524739",
"Q+	c #574E42",
"R+	c #52493E",
"S+	c #373129",
"T+	c #342D25",
"U+	c #3B3327",
"V+	c #3E3428",
"W+	c #686766",
"X+	c #615D59",
"Y+	c #514535",
"Z+	c #524738",
"`+	c #50453A",
" @	c #4F4539",
".@	c #393026",
"+@	c #362E24",
"@@	c #3A3227",
"#@	c #56534F",
"$@	c #7B7B7C",
"%@	c #787877",
"&@	c #4C4437",
"*@	c #4D4334",
"=@	c #473D32",
"-@	c #453C30",
";@	c #686664",
">@	c #5B5855",
",@	c #393127",
"'@	c #373024",
")@	c #48433E",
"!@	c #59544F",
"~@	c #4A3F31",
"{@	c #493F31",
"]@	c #443A31",
"^@	c #605D5C",
"/@	c #4F4A44",
"(@	c #3A3126",
"_@	c #342D24",
":@	c #4A4642",
"<@	c #666360",
"[@	c #55493A",
"}@	c #4D4235",
"|@	c #45403B",
"1@	c #322A21",
"2@	c #3B362E",
"3@	c #6F6E6D",
"4@	c #55504B",
"5@	c #443B2D",
"6@	c #3A3228",
"7@	c #342C24",
"8@	c #2D261D",
"9@	c #322B22",
"0@	c #332C23",
"a@	c #666564",
"b@	c #5D5C5B",
"c@	c #383125",
"d@	c #3F362A",
"e@	c #342C23",
"f@	c #393530",
"g@	c #2D271E",
"h@	c #332C22",
"i@	c #37322B",
"j@	c #6D6D6C",
"k@	c #3D3833",
"l@	c #302A20",
"m@	c #393025",
"n@	c #322C25",
"o@	c #666565",
"p@	c #2F2B27",
"q@	c #29231B",
"r@	c #3E3A36",
"s@	c #747473",
"t@	c #656464",
"u@	c #342D23",
"v@	c #3D3832",
"w@	c #2C2921",
"x@	c #42413E",
"y@	c #706F6F",
"z@	c #676766",
"A@	c #383026",
"B@	c #5A5957",
"C@	c #32312D",
"D@	c #2B2821",
"E@	c #4C4B4A",
"F@	c #34312D",
"G@	c #3C362F",
"H@	c #454341",
"I@	c #242220",
"J@	c #2C2A25",
"K@	c #252422",
"L@	c #504F4E",
"M@	c #2C2A27",
"N@	c #191714",
"O@	c #403F3F",
"P@	c #4D4D4D",
"Q@	c #404040",
"R@	c #282625",
"S@	c #272422",
"T@	c #575757",
"U@	c #595857",
"V@	c #25231D",
"W@	c #363433",
"X@	c #373634",
"Y@	c #25241E",
"Z@	c #3C3C3C",
"`@	c #10100E",
" #	c #1E1D1B",
".#	c #272624",
"+#	c #383737",
"@#	c #2A2724",
"##	c #34302D",
"$#	c #454544",
"%#	c #5B5B5A",
"&#	c #565655",
"*#	c #616161",
"  . + + + @ @ + # $ @ % % @ # + . # & + . % $ @ $ $ $ $ + + $ @ @ * $ + + = # = ",
"- . $ * * * ; $ # % ; ; % * * @ . > , ' ) ! ~ ; * * ; * + $ * ~ * * ; ; @ . + # ",
"= + # % ~ ; ; * @ { ~ { ~ ! * * ] ^ / ( _ : < < ~ < ~ * % * { ~ ~ < < * ; + @ # ",
"  # + % ~ ~ { < [ [ { ! } { ~ | 1 2 3 4 5 6 { ~ ~ ~ ~ ! < [ ! ! 7 } { ~ ! $ @ + ",
"# + + % * ; 7 ! [ [ < ~ < { < 8 9 0 a b c d 7 < ~ * ~ 7 7 } 7 < < { < < ! * @ + ",
"% * * < % ~ ! [ 7 } 7 ~ ~ ! e f g h i j k 7 7 ! < ; < ! [ } l ! ~ < ! ! { * $   ",
"# * ; < ~ < l } 7 } 7 { 7 m n o p q r s t l ~ { < ; { [ [ [ [ 7 < 7 7 { ! ; @ . ",
"# % < 7 ! ! [ u v } ! ~ w x y z A B C D E { < { { < { 7 [ l 7 ! < [ ! ! { ~ * $ ",
"# ; ~ ! 7 [ [ } ! [ < ; F G H I J K L M N O : < { 7 [ [ { ! < < ~ } 7 ! 7 < * % ",
"@ ~ < 7 [ } l } } 7 ! P Q R S T U V W X Y Z `  ...+.! % @.7 ! { 7 } } ! ! < * @ ",
"% ~ { 7 7 [ [ [ [ } [ #.$.%.&.*.=.-.;.>.,.'.).!.~.{.].^./.$ (.! [ [ ! { { ~ * @ ",
"+ ; < { 7 { { { ! [ 7 _.:.<.[.}.|.1.2.3.4.5.6.7.8.9.0.a.b.O c.{ ! ! ; ; * % @ $ ",
"+ * < ! ! ! 7 [ } [ * d.e.f.g.h.i.j.k.l.m.n.o.p.q.r.! @ s.~ ! 7 ! ! { ; < ; % # ",
"% ; ! 7 7 [ } [ [ l t.u.v.w.x.y.z.A.B.C.D.E.F.G.! 7 { ~ ; { { < [ [ l ! { ~ ~ @ ",
"{ { ! ! 7 7 ! ! ! ! H.I.J.K.L.M.N.O.P.Q.R.S.+ t.l } 7 7 { < < < [ T.U.u } } } ~ ",
"{ 7 } { 7 { { < { < V.W.X.Y.Z.`. +.+++@+; 7 l v #+$+U.l [ 7 [ ! } #+U.u u u u ! ",
"[ } 7 [ 7 7 { 7 7 %+&+*+=+-+;+>+,+'+)+[ ! } } u u U.U.u [ 7 } l l v U.v U.u l [ ",
"l v [ l l [ [ [ } !+~+{+]+^+=+/+(+_+< } < 7 [ } v U.v l 7 7 [ l l u v u U.U.v v ",
"l #+v v u l 7 ! ! :+<+[+}+|+1+2+3+4+7 u < } } } u l l } [ ! ! [ } [ [ l l } U.l ",
"% ! 7 7 } { @ % * 5+6+7+8+9+0+a+b+c+d+< $ < < < ~ * ; ; ~ ~ * * ; % * * @ $ ; ~ ",
"} v #+#+#+U.} } l e+f+g+h+i+j+k+l+m+n+o+~ l } [ { ! 7 7 [ 7 < ~ < < { { ~ * [ ! ",
"l #+p+q+p+q+U.U.v U.r+s+t+u+v+w+x+y+z+A+~ l l 7 { 7 7 [ } 7 7 7 7 { ! ! < < } } ",
"u U.$+$+#+p+T.p+$+#+B+C+D+E+F+G+H+I+J+K+L+u l } } } } ! 7 [ [ [ } } [ ! < { l u ",
"7 l u v u U.U.v v u M+N+O+P+Q+R+S+T+U+V+W+U.u u u } 7 { ! 7 7 7 [ [ [ [ { 7 } [ ",
"! l l l l v $+v U.v } X+Y+Z+`+ @X+.@+@@@#@$@#+v l } } ! 7 7 { < 7 7 ! 7 7 7 [ { ",
"~ [ [ 7 } v #+#+#+$+v %@&@*@=@-@;@>@,@'@)@l v u } } l l [ ! { ! [ l ! 7 7 ! { < ",
"% { { ! [ } [ l l U.l 7 !@~@{@]@^@/@(@_@:@l v l 7 ! 7 7 [ 7 7 < < [ 7 7 7 { ; @ ",
"$ { 7 } [ } 7 ! } } [ { <@[@}@b+|@1@x+2@3@#+#+U.l 7 7 ! 7 [ 7 7 ! ! { ! ! < * $ ",
"% { 7 7 [ [ [ [ 7 [ [ < 4@5@6@7@8@9@0@a@< u u l ! ! [ } 7 7 7 [ 7 ! < { { ~ ; # ",
"% < ! ! ! 7 [ [ l [ 7 b@c@d@e@f@g@h@i@j@* ! 7 7 7 } l l 7 [ } } [ { ! { 7 < ~ % ",
"* { ! ! { { { [ [ ! ~ k@l@m@n@o@p@q@r@s@; 7 [ [ } [ l } 7 } l l [ ! { { { ~ ~ @ ",
"* ! ! 7 7 [ } } [ [ t@_@x+u@v@%+w@x@y@[ ~ [ 7 7 ! 7 } } [ l #+v l } ! { { ~ ; # ",
"~ [ 7 [ 7 [ 7 [ } } z@_@(@A@B@C@D@E@} 7 % 7 [ { ! ! [ 7 } u #+$+#+#+u 7 ! < * # ",
"* ! { 7 ! { { < ! l * F@h@G@H@I@J@K@L@5++ } [ [ ! ! ! < { l [ l l v l ! { ~ * # ",
"; ! ! 7 ! ! ! [ } l % M@N@  - O@P@Q@R@S@T@l u u l } ! ! { ! ! ! 7 [ [ 7 ! < ; % ",
"* ! } } } 7 ! [ } U.U@V@W@! 7 ! ! 7 ; 7 ; [ l l u l [ 7 7 [ [ { ! 7 [ ! ! ; @ + ",
"@ < 7 u } } } l v $+X@Y@I@= [ 7 { 7 [ [ * 7 l v l l [ 7 7 [ [ ! 7 7 7 7 ~ % $ # ",
"+ * ; 7 [ ! ! 7 [ u Z@`@ #.#U@; [ [ [ [ * ! ! [ 7 ! ! { ! { ! ; { 7 ! { ~ $ $   ",
". + + ~ < < { < } } !   +#@###$#< < ~ } ~ [ { { ; ~ ~ ~ ~ ~ ; % ; ! { < ; % + - ",
"= + # $ $ @ * ; ; < { < @ %#&#*#@ + $ *   % $ $ $ + @ * % @ @ $ $ * * % @ $ .   "};
