/* XPM */
static char * colect_xpm[] = {
"24 24 11 1",
" 	c #EFF7CE",
".	c #EFEFB5",
"+	c #E7E78C",
"@	c #E7DE73",
"#	c #404040",
"$	c #A80000",
"%	c #D02828",
"&	c #F89878",
"*	c #800000",
"=	c #F8F8F8",
"-	c #909090",
"   .++@@+  .++++. .+++..",
".++++++  .++..   ++.    ",
"+...   .++..  +++..    +",
"..  ++++..   .@+..  .+++",
". ++...    +@+... +++++.",
"++++.. .. @@+..  +@+++..",
"@+..++.. @#### +@@+... +",
"+..++.  ##$$$$##++... @@",
".++...+#$%&%%$$*#..  @@+",
"++.+++@#%&=&%%$$#   +@..",
"++@@++#$%%&%%%$$*#@@+..+",
"@++...#%%%%##$$$*#+...++",
"+...  ##%%#=-#$*##..+++@",
"..    #=###--###-#.++++.",
"   .+@@#===##---#.++..  ",
"+++@@+.#-===----#+..  .+",
"++++.   ##----##+.  +@@+",
"..  ..++. ####++.  +++..",
"  ++++  .++++.   +@++.. ",
"+++....+++..  +@@@+.  ..",
"++++++++.....@@+..  ++++",
"..++++...  +@+.   +++...",
"+++.... .+++.   ++......",
"....  .+@+.   .+......+."};
