/* XPM */
static char * door_xpm[] = {
"40 40 732 2",
"  	c #666666",
". 	c #696969",
"+ 	c #6A6A6A",
"@ 	c #6B6B6B",
"# 	c #6E6E6E",
"$ 	c #6C6C6C",
"% 	c #61615F",
"& 	c #555554",
"* 	c #656565",
"= 	c #6E6E6D",
"- 	c #696968",
"; 	c #6F6F6F",
"> 	c #868686",
", 	c #5F605F",
"' 	c #595959",
") 	c #6D6D6C",
"! 	c #7E7F7E",
"~ 	c #838383",
"{ 	c #686868",
"] 	c #5B5B5A",
"^ 	c #4A4A49",
"/ 	c #3C3D3C",
"( 	c #3F3F3F",
"_ 	c #60605F",
": 	c #676767",
"< 	c #707070",
"[ 	c #616161",
"} 	c #3F3F3C",
"| 	c #605F56",
"1 	c #787773",
"2 	c #777675",
"3 	c #6E6E68",
"4 	c #848175",
"5 	c #B6B4AC",
"6 	c #969593",
"7 	c #82827F",
"8 	c #9B998D",
"9 	c #A3A298",
"0 	c #ADAEA9",
"a 	c #9D9C9C",
"b 	c #6C6C6B",
"c 	c #555556",
"d 	c #4B4B4B",
"e 	c #4C4B4B",
"f 	c #565656",
"g 	c #3E3E3E",
"h 	c #717171",
"i 	c #727272",
"j 	c #4C4A3F",
"k 	c #827C49",
"l 	c #8A8247",
"m 	c #5A553E",
"n 	c #58533F",
"o 	c #978E50",
"p 	c #ADA357",
"q 	c #878058",
"r 	c #5A564A",
"s 	c #98915D",
"t 	c #B3AC5F",
"u 	c #A7A163",
"v 	c #676456",
"w 	c #5A5751",
"x 	c #605F59",
"y 	c #605F5D",
"z 	c #4E4C4A",
"A 	c #5E5D5D",
"B 	c #5B5B5B",
"C 	c #6D6D6D",
"D 	c #737373",
"E 	c #767676",
"F 	c #747474",
"G 	c #5B5B58",
"H 	c #757050",
"I 	c #978C3E",
"J 	c #8D843D",
"K 	c #565032",
"L 	c #645D3A",
"M 	c #A49A48",
"N 	c #AEA348",
"O 	c #857D4B",
"P 	c #615D4C",
"Q 	c #9A9251",
"R 	c #BDB14F",
"S 	c #A39B50",
"T 	c #59553D",
"U 	c #57554D",
"V 	c #6E6E69",
"W 	c #5A5958",
"X 	c #717070",
"Y 	c #7D7D7D",
"Z 	c #757575",
"` 	c #5E5E5E",
" .	c #545453",
"..	c #504E4A",
"+.	c #656041",
"@.	c #87814D",
"#.	c #847F5C",
"$.	c #59564A",
"%.	c #635F4A",
"&.	c #91895A",
"*.	c #9C9560",
"=.	c #74705C",
"-.	c #5C5A4F",
";.	c #878157",
">.	c #A39B5B",
",.	c #908B61",
"'.	c #545043",
").	c #45413E",
"!.	c #4C4948",
"~.	c #777777",
"{.	c #4A4948",
"].	c #574E4C",
"^.	c #564B48",
"/.	c #67655F",
"(.	c #797975",
"_.	c #7E7E7C",
":.	c #979795",
"<.	c #8E8D89",
"[.	c #8D8C8A",
"}.	c #8F8E8E",
"|.	c #8C8C8B",
"1.	c #797873",
"2.	c #75746D",
"3.	c #626160",
"4.	c #4A3838",
"5.	c #4D3635",
"6.	c #5E5C5C",
"7.	c #525252",
"8.	c #4B4848",
"9.	c #5A3737",
"0.	c #583736",
"a.	c #5E5A5A",
"b.	c #848484",
"c.	c #8A8A8A",
"d.	c #919191",
"e.	c #9F9F9F",
"f.	c #9B9A9B",
"g.	c #898989",
"h.	c #646464",
"i.	c #4B3434",
"j.	c #4F2B2B",
"k.	c #524E4E",
"l.	c #535353",
"m.	c #5A5455",
"n.	c #603030",
"o.	c #542B2A",
"p.	c #534E4E",
"q.	c #5D5D5D",
"r.	c #747574",
"s.	c #5C5C5C",
"t.	c #525151",
"u.	c #555555",
"v.	c #4F4E4E",
"w.	c #462C2C",
"x.	c #522D2D",
"y.	c #666363",
"z.	c #797979",
"A.	c #787878",
"B.	c #696566",
"C.	c #664D4E",
"D.	c #5F4C4C",
"E.	c #605D5D",
"F.	c #434241",
"G.	c #4C4B49",
"H.	c #50504E",
"I.	c #4B4A49",
"J.	c #535252",
"K.	c #9C9B9B",
"L.	c #41403F",
"M.	c #464545",
"N.	c #4F4F4F",
"O.	c #4D3737",
"P.	c #553332",
"Q.	c #686666",
"R.	c #625656",
"S.	c #503B3C",
"T.	c #3B3635",
"U.	c #454542",
"V.	c #222221",
"W.	c #363634",
"X.	c #1A1918",
"Y.	c #32312F",
"Z.	c #40403F",
"`.	c #A0A0A0",
" +	c #383735",
".+	c #1C1C1C",
"++	c #333433",
"@+	c #413839",
"#+	c #524847",
"$+	c #5D5B5B",
"%+	c #5A5A5A",
"&+	c #787777",
"*+	c #837979",
"=+	c #654E4E",
"-+	c #342726",
";+	c #474745",
">+	c #282826",
",+	c #43433F",
"'+	c #0C0C0B",
")+	c #494946",
"!+	c #3D3D3D",
"~+	c #8F8F8F",
"{+	c #383838",
"]+	c #20211F",
"^+	c #444440",
"/+	c #412A29",
"(+	c #4E3332",
"_+	c #484646",
":+	c #3B3B3B",
"<+	c #545454",
"[+	c #575353",
"}+	c #673C3A",
"|+	c #692B2B",
"1+	c #3A2624",
"2+	c #474844",
"3+	c #292926",
"4+	c #454440",
"5+	c #0D0D0B",
"6+	c #4C4C48",
"7+	c #2E2E2D",
"8+	c #515151",
"9+	c #252524",
"0+	c #4E4E4A",
"a+	c #242321",
"b+	c #4B4A45",
"c+	c #493633",
"d+	c #503736",
"e+	c #454545",
"f+	c #504C4D",
"g+	c #614949",
"h+	c #613E3E",
"i+	c #483A39",
"j+	c #454543",
"k+	c #2F2E2D",
"l+	c #42423E",
"m+	c #282827",
"n+	c #4E4D4A",
"o+	c #383736",
"p+	c #343433",
"q+	c #51504D",
"r+	c #313130",
"s+	c #4F4A49",
"t+	c #564F4F",
"u+	c #484747",
"v+	c #323232",
"w+	c #322F2F",
"x+	c #524040",
"y+	c #847877",
"z+	c #908C8C",
"A+	c #565756",
"B+	c #595958",
"C+	c #535350",
"D+	c #717170",
"E+	c #7A7977",
"F+	c #747372",
"G+	c #70706F",
"H+	c #81817F",
"I+	c #6F6F70",
"J+	c #565150",
"K+	c #5B4E4D",
"L+	c #393435",
"M+	c #292929",
"N+	c #7A7A7A",
"O+	c #404040",
"P+	c #352929",
"Q+	c #5F1C17",
"R+	c #672E2B",
"S+	c #412D2D",
"T+	c #1F201F",
"U+	c #262624",
"V+	c #3A3935",
"W+	c #20201F",
"X+	c #454340",
"Y+	c #323231",
"Z+	c #2F2F2E",
"`+	c #474643",
" @	c #222121",
".@	c #211E1D",
"+@	c #563A37",
"@@	c #673937",
"#@	c #403737",
"$@	c #2C2C2C",
"%@	c #7B7B7B",
"&@	c #494949",
"*@	c #392B2C",
"=@	c #672B28",
"-@	c #622A28",
";@	c #331A19",
">@	c #32322F",
",@	c #20201D",
"'@	c #383733",
")@	c #090908",
"!@	c #3E3C38",
"~@	c #21211F",
"{@	c #424242",
"]@	c #1E1E1C",
"^@	c #403E3B",
"/@	c #191918",
"(@	c #3B3836",
"_@	c #644745",
":@	c #6B3A39",
"<@	c #504A4A",
"[@	c #484848",
"}@	c #464646",
"|@	c #3A3031",
"1@	c #5D2424",
"2@	c #641D1C",
"3@	c #3D1E1C",
"4@	c #393934",
"5@	c #20201C",
"6@	c #383731",
"7@	c #080908",
"8@	c #2A2A29",
"9@	c #292927",
"0@	c #3F3F3A",
"a@	c #1C1B18",
"b@	c #3F3D39",
"c@	c #664F4D",
"d@	c #6B3F3F",
"e@	c #514C4C",
"f@	c #575757",
"g@	c #545050",
"h@	c #654849",
"i@	c #6C3E3E",
"j@	c #432320",
"k@	c #383833",
"l@	c #20201B",
"m@	c #38362F",
"n@	c #070707",
"o@	c #3E3C37",
"p@	c #626262",
"q@	c #292A28",
"r@	c #3F3F37",
"s@	c #403C38",
"t@	c #65524F",
"u@	c #6C4646",
"v@	c #625E5E",
"w@	c #5E5F5F",
"x@	c #626060",
"y@	c #5E4A49",
"z@	c #593E3D",
"A@	c #463231",
"B@	c #474340",
"C@	c #393431",
"D@	c #433E39",
"E@	c #2C2324",
"F@	c #49403D",
"G@	c #342A2A",
"H@	c #484546",
"I@	c #322928",
"J@	c #493F3C",
"K@	c #362828",
"L@	c #4B413F",
"M@	c #645451",
"N@	c #644B4B",
"O@	c #615E5E",
"P@	c #757172",
"Q@	c #5D3234",
"R@	c #551C1E",
"S@	c #5C3535",
"T@	c #633F3E",
"U@	c #5F4040",
"V@	c #62403E",
"W@	c #5D4746",
"X@	c #613A38",
"Y@	c #57302E",
"Z@	c #41292A",
"`@	c #572D2C",
" #	c #5B302D",
".#	c #5D3332",
"+#	c #523534",
"@#	c #5E3434",
"##	c #604545",
"$#	c #545252",
"%#	c #4C4C4C",
"&#	c #676364",
"*#	c #5B3031",
"=#	c #5D2B2D",
"-#	c #5D2123",
";#	c #651519",
">#	c #5C1618",
",#	c #5D3433",
"'#	c #654E4B",
")#	c #775852",
"!#	c #82655F",
"~#	c #867167",
"{#	c #785F59",
"]#	c #4E211F",
"^#	c #4F3331",
"/#	c #4F2C2B",
"(#	c #583535",
"_#	c #614A4A",
":#	c #595756",
"<#	c #4A4A4A",
"[#	c #5A5757",
"}#	c #624242",
"|#	c #6B4C4D",
"1#	c #603B3B",
"2#	c #5A2122",
"3#	c #623F3E",
"4#	c #8C7A73",
"5#	c #AD9489",
"6#	c #AD9485",
"7#	c #B49C8B",
"8#	c #B69A8C",
"9#	c #AB958A",
"0#	c #644743",
"a#	c #522F2E",
"b#	c #5B2D2D",
"c#	c #573737",
"d#	c #605251",
"e#	c #6C6B6B",
"f#	c #7F7F7F",
"g#	c #7E7E7E",
"h#	c #6E6C6C",
"i#	c #63504F",
"j#	c #5F4646",
"k#	c #553535",
"l#	c #542C2D",
"m#	c #654745",
"n#	c #A48C80",
"o#	c #B69184",
"p#	c #B59386",
"q#	c #BA9A8C",
"r#	c #BA9F8E",
"s#	c #AE9B8B",
"t#	c #775E58",
"u#	c #623938",
"v#	c #653C3A",
"w#	c #64403D",
"x#	c #6E5B5A",
"y#	c #8A8888",
"z#	c #7C7C7C",
"A#	c #777575",
"B#	c #695152",
"C#	c #532828",
"D#	c #4F0A0D",
"E#	c #4C1517",
"F#	c #512424",
"G#	c #9B8980",
"H#	c #AD8E81",
"I#	c #A88C7B",
"J#	c #AE9283",
"K#	c #B39D8E",
"L#	c #978175",
"M#	c #684A45",
"N#	c #530C0B",
"O#	c #4F1010",
"P#	c #59312F",
"Q#	c #695756",
"R#	c #929190",
"S#	c #888888",
"T#	c #7C797A",
"U#	c #5C3839",
"V#	c #4D0609",
"W#	c #490308",
"X#	c #430307",
"Y#	c #461A1C",
"Z#	c #786462",
"`#	c #7A5A54",
" $	c #734D46",
".$	c #6E4944",
"+$	c #623734",
"@$	c #56201B",
"#$	c #4A1512",
"$$	c #4B0608",
"%$	c #4A1A1B",
"&$	c #4C1516",
"*$	c #5B4846",
"=$	c #828181",
"-$	c #675251",
";$	c #624142",
">$	c #5E3C3C",
",$	c #533637",
"'$	c #634A4B",
")$	c #633C3B",
"!$	c #623735",
"~$	c #66403F",
"{$	c #573636",
"]$	c #411918",
"^$	c #421514",
"/$	c #491213",
"($	c #5E3F40",
"_$	c #4D2F2F",
":$	c #503F3D",
"<$	c #757474",
"[$	c #7D7A7A",
"}$	c #837F7F",
"|$	c #797373",
"1$	c #726C6C",
"2$	c #807C7C",
"3$	c #868181",
"4$	c #776F6F",
"5$	c #665C5C",
"6$	c #706667",
"7$	c #746D6D",
"8$	c #736D6D",
"9$	c #696262",
"0$	c #554A4A",
"a$	c #433536",
"b$	c #3D3131",
"c$	c #4C4344",
"d$	c #5F5E5E",
"e$	c #5F5F5F",
"f$	c #716E6E",
"g$	c #7C7A79",
"h$	c #6B6767",
"i$	c #666162",
"j$	c #757070",
"k$	c #706C6C",
"l$	c #585353",
"m$	c #494443",
"n$	c #5D5758",
"o$	c #6A6566",
"p$	c #726E6E",
"q$	c #676464",
"r$	c #4C4848",
"s$	c #3B3636",
"t$	c #3B3535",
"u$	c #393535",
"v$	c #474747",
"w$	c #585757",
"x$	c #4B4444",
"y$	c #3F2929",
"z$	c #402220",
"A$	c #411D1D",
"B$	c #4D2726",
"C$	c #492220",
"D$	c #42211E",
"E$	c #492928",
"F$	c #4D2523",
"G$	c #492321",
"H$	c #4C2827",
"I$	c #533332",
"J$	c #402324",
"K$	c #391D1D",
"L$	c #3E2626",
"M$	c #403333",
"N$	c #4D4D4D",
"O$	c #5B5858",
"P$	c #4C3B3A",
"Q$	c #3F1B1B",
"R$	c #3E1F1E",
"S$	c #482B2C",
"T$	c #4B2424",
"U$	c #492827",
"V$	c #4C2F2D",
"W$	c #502524",
"X$	c #552A29",
"Y$	c #522828",
"Z$	c #592122",
"`$	c #5A2425",
" %	c #532626",
".%	c #531B1B",
"+%	c #581D1B",
"@%	c #583B3B",
"#%	c #535050",
"$%	c #6C686A",
"%%	c #4D3838",
"&%	c #380002",
"*%	c #3A0002",
"=%	c #3C0608",
"-%	c #390003",
";%	c #400405",
">%	c #480C0A",
",%	c #4F0708",
"'%	c #590B0C",
")%	c #610E0C",
"!%	c #6B0F0A",
"~%	c #6A100D",
"{%	c #610E0E",
"]%	c #59090C",
"^%	c #650E0E",
"/%	c #6C4141",
"(%	c #767272",
"_%	c #919090",
":%	c #777474",
"<%	c #5E4B4B",
"[%	c #5F4B4B",
"}%	c #5E4E4E",
"|%	c #564343",
"1%	c #584242",
"2%	c #573A3A",
"3%	c #654241",
"4%	c #643F3F",
"5%	c #6B4342",
"6%	c #724645",
"7%	c #724240",
"8%	c #6F3A39",
"9%	c #663939",
"0%	c #5F3738",
"a%	c #633434",
"b%	c #715453",
"c%	c #918E8E",
"d%	c #828282",
"e%	c #777676",
"f%	c #918D8D",
"g%	c #B4B1B0",
"h%	c #A7A4A4",
"i%	c #8B8787",
"j%	c #888484",
"k%	c #7F7C7B",
"l%	c #959291",
"m%	c #989594",
"n%	c #8A8686",
"o%	c #6A6565",
"p%	c #565151",
"q%	c #3C3737",
"r%	c #3D3938",
"s%	c #474646",
"t%	c #676161",
"u%	c #736E6E",
"v%	c #635A5A",
"w%	c #504646",
"x%	c #4D4040",
"y%	c #544545",
"z%	c #5B4E4E",
"A%	c #594B4B",
"B%	c #5C5050",
"C%	c #5A4D4D",
"D%	c #534444",
"E%	c #453737",
"F%	c #3C2D2E",
"G%	c #332223",
"H%	c #2B1616",
"I%	c #332929",
"J%	c #403F3F",
"K%	c #434444",
"L%	c #3A3534",
"M%	c #4C2425",
"N%	c #511F20",
"O%	c #541415",
"P%	c #531215",
"Q%	c #551D1E",
"R%	c #5D1919",
"S%	c #5A0B0A",
"T%	c #560A09",
"U%	c #540A08",
"V%	c #580906",
"W%	c #610B07",
"X%	c #5F0A07",
"Y%	c #5A0C0B",
"Z%	c #551010",
"`%	c #491212",
" &	c #493435",
".&	c #555353",
"+&	c #3E3737",
"@&	c #562627",
"#&	c #5A191A",
"$&	c #5C1416",
"%&	c #601A1D",
"&&	c #522325",
"*&	c #522626",
"=&	c #4F1210",
"-&	c #410A0A",
";&	c #431615",
">&	c #4D1412",
",&	c #5B0D0B",
"'&	c #5C1412",
")&	c #5A1514",
"!&	c #510806",
"~&	c #420E0D",
"{&	c #473434",
"]&	c #494647",
"^&	c #3C3C3C",
"/&	c #444444",
"(&	c #3B3838",
"_&	c #482D2D",
":&	c #4B2222",
"<&	c #4C2223",
"[&	c #522B2C",
"}&	c #4A2829",
"|&	c #4F3334",
"1&	c #532F2E",
"2&	c #4B2525",
"3&	c #4E2B2A",
"4&	c #522B29",
"5&	c #582522",
"6&	c #582927",
"7&	c #482423",
"8&	c #391212",
"9&	c #381B1B",
"0&	c #514A49",
"a&	c #3A3A3A",
"b&	c #413E3E",
"c&	c #4E3131",
"d&	c #5C2828",
"e&	c #592929",
"f&	c #542D2C",
"g&	c #4F2425",
"h&	c #542729",
"i&	c #692726",
"j&	c #641716",
"k&	c #671A16",
"l&	c #70221F",
"m&	c #681615",
"n&	c #651512",
"o&	c #561E1D",
"p&	c #462525",
"q&	c #564D4C",
"r&	c #535250",
"s&	c #474746",
"t&	c #403D3E",
"u&	c #67585A",
"v&	c #6F5B5D",
"w&	c #685759",
"x&	c #635455",
"y&	c #675B5C",
"z&	c #7D6D6D",
"A&	c #715556",
"B&	c #6A4E4E",
"C&	c #775D5B",
"D&	c #775B5A",
"E&	c #603C3B",
"F&	c #613F3E",
"G&	c #664E4E",
"H&	c #625556",
"I&	c #52504F",
"J&	c #373737",
"K&	c #818181",
"L&	c #898889",
"M&	c #7A7979",
"N&	c #7E7D7D",
"O&	c #8E8C8D",
"P&	c #585758",
"Q&	c #5A585A",
"R&	c #8A898A",
"S&	c #817F80",
"T&	c #484647",
"U&	c #656464",
"V&	c #5D5D5C",
"W&	c #2F2F2F",
"  .   + + @ # $ $ @ % & * # = - ; > , ' ) ! ~ { ] ^ / ( _ ] @ . + $ $ + + + { : ",
". + { $ ; ; # # < # [ } | 1 2 3 4 5 6 7 8 9 0 a b c d e f g # . @ ; # # # @ { * ",
". $ + ; # h h < < i $ j k l m n o p q r s t u v w x y z A B i $ # ; ; < C . +   ",
"+ $ @ D < i E F D D < G H I J K L M N O P Q R S T U V W X Y Z Z h i < < C + . : ",
"+ $ # D h h i h h F `  ...+.@.#.$.%.&.*.=.-.;.>.,.'.).!.< . Z Z D F ; # C + + . ",
": @ # i D D h < D ~.{ {.].^./.(._.> :.<.[.}.|.1.2.3.4.5.6.7.~.F Z D < C h # # C ",
"{ $ ; D i F F h F Z i 8.9.0.a.D b.c.d.e.f.g.< * < h.i.j.k.l.E F E ~.h < h ; # . ",
"@ # < i D D Z h D F < m.n.o.p.q.{ < ; Z * r.s.t.u.v.w.x.y.< E z.A.Z D D F h C . ",
"C # h F D F E < h h [ B.C.D.E.v.F.G.H.I.J.K.u.L.M.N.O.P.y.@ Z D E Z Z F D < ; . ",
"$ # h D D E E F i D [ Q.R.S.T.U.V.W.X.Y.Z.`.(  +.+++@+#+$+' F E E ~.E Z F h < $ ",
"$ # < i i D Z Z F D %+&+*+=+-+;+>+,+'+)+!+~+{+G.]+^+/+(+_+:+E Z Z Z Z F F i < C ",
"@ $ C # ; ; D D D F <+[+}+|+1+2+3+4+5+6+7+8+9+0+a+b+c+d+_+:+E D i i i F i h ; + ",
". C ; h ; i D D F D e+f+g+h+i+j+k+l+m+n+o+` p+q+r+U.s+t+u+v+E E Z F D D D h # + ",
"$ < < i D ~.Z Z h D !+w+x+y+z+A+B+C+D+E+F+> G+H+I+Z.J+K+L+M+~.Z Z E Z F F D ; C ",
"< E E E A.N+Y Z h h O+P+Q+R+S+T+U+V+W+X+Y+[ Z+`+ @.@+@@@#@$@F D D D F F D D i i ",
"D A.A.A.A.N+%@E D E &@*@=@-@;@>@,@'@)@!@~@{@]@^@/@(@_@:@<@[@F i h i i F i E F i ",
"Z ~.A.N+z.N+z.~.~.E }@|@1@2@3@4@5@6@7@!@8@h.9@0@a@b@c@d@e@&@E F F i F F Z F E Z ",
"z.z.N+N+A.z.A.~.~.Z f@g@h@i@j@k@l@m@n@o@9@p@q@r@a@s@t@u@v@w@A.~.Z Z Z ~.~.Z z.~.",
"~.N+E ~.~.Z Z E Z D : x@y@z@A@B@C@D@E@F@G@H@I@J@K@L@M@N@O@f@E F D F ~.A.z.z.%@~.",
"< ; @ $ # # C ; # # %@P@Q@R@S@T@U@V@W@X@Y@Z@`@ #.#+#@###$#%#< # C $ i E F F D C ",
"D Z # < i i h h < h E &#*#=#-#;#>#,#'#)#!#~#{#]#^#/#(#_#:#<#z.~.E E N+%@%@%@z.E ",
"E E h h D D i F F F Z [#}#|#1#2#3#4#5#6#7#8#9#0#a#b#c#d#e#+ N+z.N+N+f#g#f#g#%@~.",
"A.~.i h D Z E E Z Z g.h#i#j#k#l#m#n#o#p#q#r#s#t#u#v#w#x#y#z#%@z#g#Y g#%@z#z#N+A.",
"Z E F i Z Z Z Z F D c.A#B#C#D#E#F#G#H#I#J#K#L#M#N#O#P#Q#R#$ A.z.z.N+N+A.z.A.~.F ",
"i Z F F F D F F h i S#T#U#V#W#X#Y#Z#`# $.$+$@$#$$$%$&$*$=$h.z.N+z.z#z.~.~.~.~.D ",
"h i D F F D ~.Z D i C B.-$;$>$k#,$'$)$!$~${$]$^$/$($_$:$<$h z#%@%@%@z.E F Z Z < ",
"$ ; i F F F Z h h F + E [$}$|$1$2$3$4$5$6$7$8$9$0$a$b$c$d$[ N+~.~.Z E Z D i i C ",
"@ # h D D i D D F F e$  f$g$h$i$j$k$l$m$n$o$p$q$r$s$t$u$:+v$E E D F E Z E F i @ ",
". ; < i i h D F Z Z   w$x$y$z$A$B$C$D$E$F$G$H$I$J$K$L$M$N${@Z F Z Z Z Z F F i C ",
"C < h F i D i Z E E $ O$P$Q$R$S$T$U$V$W$X$Y$Z$`$ %.%+%@%#%f@Z ~.Z Z F D D D h C ",
"$ < < i i i D Z ~.~.Y $%%%&%*%=%-%;%>%,%'%)%!%~%{%]%^%/%(%{ F Z Z i i i D D i # ",
". ; < i i D E ~.z.%@_%:%<%[%}%|%1%2%3%4%5%6%7%8%9%0%a%b%c%d%Z Z E E Z F F D D # ",
". # h D F A.%@%@z#%@b.e%f%g%h%i%j%k%f%i%l%m%n%j$o%p%q%r%s%e+E E Z F Z F Z F Z < ",
". # < i D ~.z.~.~.Z # v.t%u%v%w%x%y%z%A%B%C%D%E%F%G%H%I%J%K%~.D h i i D F i D # ",
"C ; h D F Z Z F D D %+L%M%N%O%P%Q%R%S%T%U%V%W%X%Y%Z%`% &.&' ~.E Z D D D F D D ; ",
"+ $ ; D D Z F D i Z %#+&@&#&$&%&&&*&=&-&;&>&,&'&)&!&~&{&]&^&N+E Z D F E E E D # ",
". @ C < F F F F D Z /&(&_&:&<&[&}&|&1&2&3&4&5&6&7&8&9&0&B a&z#z.~.E E E A.F h $ ",
": @ @ < i D F i ; D d b&c&d&e&f&g&h&i&j&k&l&m&n&o&p&q&r&s&!+A.Z F D D Z F ; # + ",
"* + C ; h i D ; C ; }@t&u&v&w&x&y&z&A&B&C&D&E&F&G&H&I&J&g a&~.E h i h h < + + { ",
": { @ $ C # # @ @ $ ( ^&s.K&L&M&N&O&P&Q&R&S&T&U&A.V&( W&!+J&h ; ; # $ @ @ . +   "};
