/* XPM */
static char * exit_xpm[] = {
"24 24 10 1",
" 	c #EFF7CE",
".	c #EFEFB5",
"+	c #E7E78C",
"@	c #E7DE73",
"#	c #502830",
"$	c #F8E098",
"%	c #000000",
"&	c #C8A878",
"*	c #906858",
"=	c #704838",
"   .++@@+  .++++. .+++..",
".++++++  .++..   ++.    ",
"+...   .++..  +++..    +",
"..  ++++..   .@+..  .+++",
". ++..#$#%%%%%%#$ +++++.",
"++++.##&#%%%%%%#&#@+++..",
"@+..+##&########&##... +",
"+..++%#&$$$$$$$&&%#.. @@",
".++.#%#&########&%%  @@+",
"++.+%%#&#%%%%%%#&%% +@..",
"++@@%%#&########&%%@+..+",
"@++.%%#&$$$$$$$&&%%...++",
"+...#%#&########&%%.+++@",
"..  #%#&%%%%%%%#*%%++++.",
"   .+%#*########*%#+..  ",
"+++@@#%**********%#.  .+",
"++++.##*#%%%%%%%*#= +@@+",
"..  ..+##%%%#%%%#  +++..",
"  ++++  .#%%%### +@++.. ",
"+++....+++..  +@@@+.  ..",
"++++++++.....@@+..  ++++",
"..++++...  +@+.   +++...",
"+++.... .+++.   ++......",
"....  .+@+.   .+......+."};
