/* XPM */
static char * floor_xpm[] = {
"24 24 4 1",
" 	c #EFF7CE",
".	c #EFEFB5",
"+	c #E7E78C",
"@	c #E7DE73",
"   .++@@+  .++++. .+++..",
".++++++  .++..   ++.    ",
"+...   .++..  +++..    +",
"..  ++++..   .@+..  .+++",
". ++...    +@+... +++++.",
"++++.. .. @@+..  +@+++..",
"@+..++.. @+..  +@@+... +",
"+..++.  @+..  +@++... @@",
".++...+@+...+@@+...  @@+",
"++.+++@+.. +@@+..   +@..",
"++@@++... +@@+..  @@+..+",
"@++....  +@@+.   @+...++",
"+...    +@++..  @+..+++@",
"..    +@@++.   ++..++++.",
"   .+@@++.  .+++..++..  ",
"+++@@+..  ++++ .++..  .+",
"++++.   .+.  .+++.  +@@+",
"..  ..++. .+++++.  +++..",
"  ++++  .++++.   +@++.. ",
"+++....+++..  +@@@+.  ..",
"++++++++.....@@+..  ++++",
"..++++...  +@+.   +++...",
"+++.... .+++.   ++......",
"....  .+@+.   .+......+."};
