/* XPM */
static char * rock_xpm[] = {
"24 24 13 1",
" 	c #E7E78C",
".	c #EFEFB5",
"+	c #E7BD5A",
"@	c #AD7331",
"#	c #A55229",
"$	c #BD8C39",
"%	c #C69C42",
"&	c #DEBD5A",
"*	c #D6AD4A",
"=	c #E7DE73",
"-	c #E7CE63",
";	c #F7E752",
">	c #EFF7CE",
"   ..    ....  .   ..   ",
"...    ..   +@@@.     ..",
"      @@@##@@$$$@$  ..  ",
"     @$%@@#@$%%%%$$     ",
".   $$%%%@@$%&***%$$   .",
".. $$%%%%*@*&&&&**%$$ ..",
"= $$%**%*@-;;-*****%$$ =",
"  @$***&@-;;;;-&&*%%$@  ",
"..+@@$%$-;;;;;;-%@$@@@+ ",
".=+@$%%*-;;;;;;-*@*$@@@.",
" +@$$*$*--;;;;-*%@*$@@@.",
" @$$$*$&---;-**$@@$@@@@ ",
" @$$$$*$&--*$***%%@@@@@ ",
">@$$$%&*%&*$$%%$*%$@@@@>",
" @$$$*&&*%$$$$$$%$@@#@@ ",
" @$$%%****$@$$@@$$@@@#@ ",
" +@%%%%%%$@@$%%%$@@@@@+ ",
".=@$%%%%$@@@@$$$$@@@@@=.",
".=@$$%$$@@@@@@$$@@@@@@=.",
". =@$$$$@@@@@@@$@@@@@= .",
"   =$$$@@@@@#@@@$@@@=   ",
"... =$$@@@@@##@@$@@= ...",
"..   =@@@###+==+@@=   ..",
"....   ..........   ...."};
