/* XPM */
static char * wallTL_xpm[] = {
"24 24 13 1",
" 	c #EFF7CE",
".	c #EFEFB5",
"+	c #E7E78C",
"@	c #E7DE73",
"#	c #AD7331",
"$	c #A55229",
"%	c #BD8C39",
"&	c #C69C42",
"*	c #DEBD5A",
"=	c #D6AD4A",
"-	c #E7CE63",
";	c #EFD663",
">	c #F7E752",
"   .++@@+  .++++. .+++..",
".++++++  .++.###########",
"+...  ###$$##%%%%%%##%%%",
"..  +#%&##$#%&&&&&%%&&%%",
". ++%%&&&##%&*===*&****&",
"+++%%&&&&=##%&***&%%%###",
"@+%%&==&=#%%=-==**&===&%",
"+.#%===*#&*&-----=-----&",
".+$#&=*&*;;*;>>>>>>>>->>",
"++$$#&&*;;;>*>>>>>>>>-&-",
"++##%%&-;;>>*;>>>>>>>-&*",
"@##%&&&*;>>>>;>>>>>>-&%&",
"+#%%&=&=;>>>>>>>>>>-&&#%",
".#%&&*=&=;>>>>>>>>-&&&%#",
" #%&&**-;>>>>>>>==&&&%%#",
"+#%&&**-;>>>>>>>-%%&%%#&",
"+#%%&*=*>>>;;>>>>*#%%#&#",
".%%%&*&*>>>>>>>>>*%##%##",
" %%%%=%&>>>>>>>>>*%%####",
"+%%%%%%*>>>>>>>>>*%&%$#$",
"+%%%%%%*>>>>>>>>>*%*%#$$",
".##%%%%***>>>>>>-=#*%%#$",
"+######&>>;;;>>>=%#&%%##",
".##%####>>>>>>>>%##&%%#@"};
