/* XPM */
static char * wallBL_xpm[] = {
"24 24 14 1",
" 	c #EFF7CE",
".	c #AD7331",
"+	c #BD8C39",
"@	c #A55229",
"#	c #D6AD4A",
"$	c #DEBD5A",
"%	c #F7E752",
"&	c #EFEFB5",
"*	c #E7E78C",
"=	c #EFD663",
"-	c #C69C42",
";	c #E7CE63",
">	c #E7DE73",
",	c #E7BD5A",
" .+.@..#$%%%%%%$+.#+++.@",
"&*.@..+$$=%%%%%$$#+#++@@",
"*&@@..+$$$=%%%=$$$#+-@.+",
"&&@.+.+$=%==%%%=$$$#.+-+",
"& @++.+$%%%%%%%%;$$-----",
"**.++.+$%%%%%%%%%;##-+++",
">*.++.+#%%%%%%%=;;%%;;;$",
"*&.+..++%%%%%%%%%%%%%%%;",
"&*,..+-+%%%%%%%%$%%%%;%%",
"**,.+--#;%%%%%%%$%%%;$;;",
"*,.++#+#;;%%%%;#-$;;;-$$",
">.+++#+$;;;%;##+.$$$$#-+",
"*.++++#+$;;#+###.-$$$#-+",
"&.+++-$#-$#++--+.+-###-+",
" .+++#$$#-++++++..+--+..",
"*.++--####+.++....#$$#-.",
"*,.------+..+---+.-####-",
"&&.+----+....+++..++++--",
"  .++-++......++..+++++-",
"***.++++.......+..+++++-",
"****+++.....@......+++++",
"&&***++.....@@.....+++++",
"***&&&...@@@&   **...++.",
"&&&&  &*>*&   &*&&&&&&*&"};
