/* XPM */
static char * wall_sides_xpm[] = {
"24 24 12 1",
" 	c #E7E78C",
".	c #AD7331",
"+	c #BD8C39",
"@	c #C69C42",
"#	c #EFD663",
"$	c #F7E752",
"%	c #DEBD5A",
"&	c #EFEFB5",
"*	c #A55229",
"=	c #E7DE73",
"-	c #E7BD5A",
";	c #D6AD4A",
" .+@+..@#$$$$$$%@...@+. ",
"&.+*...%%$$$$$#%@...*+.&",
"  **..+%%#$$$#%%%+..**  ",
"  *.+.@+#$##$$$#+@.+.*  ",
"& *++..%#$$$$$$#%..++* &",
"&=.++.+%#$$$$$$#%+.++.=&",
"==.++.@%%$$$$$$%%@.++.==",
"  -++.+.+%$$$#%+.+.++-  ",
"& -+...@#$%$$$$#@...+- &",
"&=-....;#$$##$$#;....-=&",
" =..+@.;#$$$$$$#;.@+..= ",
"==.+@%+;#$$$$$$#;+%@+.==",
" =++@%+;#$$$$$$#;+%@++= ",
"&=+@@%@;#$$$$$$#;@%@@+=&",
" -+@@%@;#$$$$$$#;@%@@+- ",
"=++@@;@;#$$$##$#;@;@@++=",
"=+++@;@%#$#;$$$#%@;@+++=",
" +++@;.@@%%$$$%@@.;@+++ ",
" +++@@.@#$$$$#$#@.@@+++ ",
"=.+@+..%#$$##$$#%..+@+.=",
"=.++...%#$$$$$$#%...++.=",
" .++@..@%%#$$$%%@..@++. ",
" .++@..+#$$##$$#+..@++. ",
"&.+@@..+#$$$$$$#+..@@+.&"};
